SplineFontDB: 3.2
FontName: CognformsThinner
FullName: CognformsThinner
FamilyName: CognformsThinner
Weight: Thinner
Copyright: Copyright (c) 2023, Liesbeth Flobbe, liesbeth@syboor.eu with Reserved Font Name "CogncurLines".\nThis Font Software is licensed under the SIL Open Font License, Version 1.1. http://scripts.sil.org/OFL\n
FontLog: "Copyright (c) 2023-2024, Liesbeth Flobbe, liesbeth@syboor.eu with Reserved Font Name +ACIA-Cognforms+ACIACgAA"
Version: 1.12
ItalicAngle: 0
UnderlinePosition: -368
UnderlineWidth: 204
Ascent: 1365
Descent: 683
InvalidEm: 0
LayerCount: 3
Layer: 0 0 "Back" 1
Layer: 1 1 "Fore" 0
Layer: 2 0 "Images" 0
XUID: [1021 630 -1095995287 12585]
StyleMap: 0x0000
FSType: 0
OS2Version: 0
OS2_WeightWidthSlopeOnly: 0
OS2_UseTypoMetrics: 1
CreationTime: 1670875426
ModificationTime: 1755114621
PfmFamily: 17
TTFWeight: 400
TTFWidth: 5
LineGap: 0
VLineGap: 184
OS2TypoAscent: 0
OS2TypoAOffset: 1
OS2TypoDescent: 0
OS2TypoDOffset: 1
OS2TypoLinegap: 0
OS2WinAscent: 500
OS2WinAOffset: 1
OS2WinDescent: 20
OS2WinDOffset: 1
HheadAscent: 0
HheadAOffset: 1
HheadDescent: 0
HheadDOffset: 1
OS2XHeight: 512
OS2Vendor: 'PfEd'
MarkAttachClasses: 1
DEI: 91125
LangName: 1033
Encoding: UnicodeBmp
Compacted: 1
UnicodeInterp: none
NameList: AGL For New Fonts
DisplaySize: -72
AntiAlias: 1
FitToEm: 0
WinInfo: 0 18 9
BeginPrivate: 0
EndPrivate
GridOrder2: 1
Grid
-2048 -454 m 0,0,-1
 4096 -454 l 1024
  Named: "-.67"
-2048 1137 m 0,2,-1
 4096 1137 l 1024
  Named: "1.667"
4096 -681 m 0,2,-1
 -2048 -681 l 0,32,-1
 4096 -681 l 0,2,-1
  Named: "Bottom"
-2048 171 m 0,0,-1
 4096 171 l 1024
  Named: "1/4"
-2048 545.999983728 m 0,10,-1
 4096 545.999983728 l 1024
  Named: "Curve2"
-2048 -341 m 0,22,-1
 4096 -341 l 1024
  Named: "-.5"
-2048 1023 m 0,24,-1
 4096 1023 l 1024
  Named: "1.5"
-2048 341 m 0,26,-1
 4096 341 l 1024
  Named: "Half"
-2048 682 m 0,28,-1
 4096 682 l 1024
  Named: "Midline"
-2048 1364 m 0,30,-1
 4096 1364 l 1024
  Named: "Top"
EndSplineSet

StartChar: a
Encoding: 97 97 0
Width: 600
Flags: W
LayerCount: 3
Back
SplineSet
550 687 m 5
 580 687 l 5
 580 677 l 5
 550 677 l 5
 550 687 l 5
500 687 m 5
 530 687 l 5
 530 677 l 5
 500 677 l 5
 500 687 l 5
450 687 m 5
 480 687 l 5
 480 677 l 5
 450 677 l 5
 450 687 l 5
400 687 m 5
 430 687 l 5
 430 677 l 5
 400 677 l 5
 400 687 l 5
350 687 m 5
 380 687 l 5
 380 677 l 5
 350 677 l 5
 350 687 l 5
300 687 m 5
 330 687 l 5
 330 677 l 5
 300 677 l 5
 300 687 l 5
250 687 m 5
 280 687 l 5
 280 677 l 5
 250 677 l 5
 250 687 l 5
200 687 m 5
 230 687 l 5
 230 677 l 5
 200 677 l 5
 200 687 l 5
150 687 m 5
 180 687 l 5
 180 677 l 5
 150 677 l 5
 150 687 l 5
100 687 m 5
 130 687 l 5
 130 677 l 5
 100 677 l 5
 100 687 l 5
50 687 m 5
 80 687 l 5
 80 677 l 5
 50 677 l 5
 50 687 l 5
0 -677 m 5
 602 -677 l 5
 602 -687 l 5
 0 -687 l 5
 0 -677 l 5
0 687 m 5
 30 687 l 5
 30 677 l 5
 0 677 l 5
 0 687 l 5
0 1369 m 5
 602 1369 l 5
 602 1359 l 5
 0 1359 l 5
 0 1369 l 5
0 8 m 5
 602 8 l 5
 602 -8 l 5
 0 -8 l 5
 0 8 l 5
EndSplineSet
Fore
SplineSet
550 687 m 5,0,-1
 580 687 l 5,1,-1
 580 677 l 5,2,-1
 550 677 l 5,3,-1
 550 687 l 5,0,-1
500 687 m 5,4,-1
 530 687 l 5,5,-1
 530 677 l 5,6,-1
 500 677 l 5,7,-1
 500 687 l 5,4,-1
450 687 m 5,8,-1
 480 687 l 5,9,-1
 480 677 l 5,10,-1
 450 677 l 5,11,-1
 450 687 l 5,8,-1
400 687 m 5,12,-1
 430 687 l 5,13,-1
 430 677 l 5,14,-1
 400 677 l 5,15,-1
 400 687 l 5,12,-1
350 687 m 5,16,-1
 380 687 l 5,17,-1
 380 677 l 5,18,-1
 350 677 l 5,19,-1
 350 687 l 5,16,-1
300 687 m 5,20,-1
 330 687 l 5,21,-1
 330 677 l 5,22,-1
 300 677 l 5,23,-1
 300 687 l 5,20,-1
250 687 m 5,24,-1
 280 687 l 5,25,-1
 280 677 l 5,26,-1
 250 677 l 5,27,-1
 250 687 l 5,24,-1
200 687 m 5,28,-1
 230 687 l 5,29,-1
 230 677 l 5,30,-1
 200 677 l 5,31,-1
 200 687 l 5,28,-1
150 687 m 5,32,-1
 180 687 l 5,33,-1
 180 677 l 5,34,-1
 150 677 l 5,35,-1
 150 687 l 5,32,-1
100 687 m 5,36,-1
 130 687 l 5,37,-1
 130 677 l 5,38,-1
 100 677 l 5,39,-1
 100 687 l 5,36,-1
50 687 m 5,40,-1
 80 687 l 5,41,-1
 80 677 l 5,42,-1
 50 677 l 5,43,-1
 50 687 l 5,40,-1
0 -677 m 5,44,-1
 602 -677 l 5,45,-1
 602 -687 l 5,46,-1
 0 -687 l 5,47,-1
 0 -677 l 5,44,-1
0 687 m 5,48,-1
 30 687 l 5,49,-1
 30 677 l 5,50,-1
 0 677 l 5,51,-1
 0 687 l 5,48,-1
0 1369 m 5,52,-1
 602 1369 l 5,53,-1
 602 1359 l 5,54,-1
 0 1359 l 5,55,-1
 0 1369 l 5,52,-1
0 8 m 5,56,-1
 602 8 l 5,57,-1
 602 -8 l 5,58,-1
 0 -8 l 5,59,-1
 0 8 l 5,56,-1
EndSplineSet
Validated: 1
EndChar

StartChar: n
Encoding: 110 110 1
Width: 600
VWidth: 1540
Flags: W
LayerCount: 3
Back
SplineSet
0 512 m 5
 600 512 l 5
 600 0 l 5
 0 0 l 5
 0 512 l 5
EndSplineSet
Fore
SplineSet
0 0 m 1,0,-1
 602 0 l 5,1,-1
 602 -681 l 5,2,-1
 0 -681 l 1,3,-1
 0 0 l 1,0,-1
EndSplineSet
Validated: 1
EndChar

StartChar: i
Encoding: 105 105 2
Width: 808
VWidth: 1540
Flags: W
LayerCount: 3
Back
SplineSet
803.250976562 -681.359375 m 29
 803.250976562 -511.151367188 l 5
 617.130859375 -511.151367188 l 5
 617.130859375 -340.943359375 l 5
 431.010742188 -340.943359375 l 5
 431.010742188 -169.848632812 l 5
 244.890625 -169.848632812 l 5
 244.890625 0.359375 l 1037
244.890625 0 m 1029
58.7705078125 682 m 29
 40.1591796875 682 9.138671875 682 9.138671875 682 c 21
 431.010742188 1358 l 5
 852.8828125 682 l 13
 852.8828125 682 823.103515625 682 803.250976562 682 c 1053
58.7705078125 682 m 5
 803.250976562 682 l 5
 803.250976562 0 l 5
 58.7705078125 0 l 5
 58.7705078125 682 l 5
EndSplineSet
Fore
SplineSet
798.25195701 677.000980447 m 5,0,-1
 63.7695273652 677.000980447 l 5,1,-1
 63.76953125 7.9990234375 l 5,2,-1
 798.251953125 7.9990234375 l 5,3,-1
 798.25195701 677.000980447 l 5,0,-1
808.25 -687.059570312 m 5,4,-1
 798.251953125 -687.059570312 l 5,5,-1
 798.25195701 -516.15038674 l 5,6,-1
 612.131839822 -516.15038674 l 5,7,-1
 612.131839822 -345.942378928 l 5,8,-1
 426.011722635 -345.942378928 l 5,9,-1
 426.011722635 -174.847652365 l 5,10,-1
 239.891605447 -174.847652365 l 5,11,-1
 239.891601562 -7.9990234375 l 5,12,-1
 53.771484375 -7.9990234375 l 5,13,-1
 53.7714882598 677.000980447 l 5,14,-1
 9.138671875 677.000980447 l 5,15,-1
 0.124102567497 677.000980447 l 5,16,-1
 431.010742188 1367.44575952 l 5,17,-1
 861.897381808 677.000980447 l 5,18,-1
 808.249996115 677.000980447 l 5,19,-1
 808.25 -7.9990234375 l 5,20,-1
 249.889648438 -7.9990234375 l 5,21,-1
 249.889644553 -164.84961326 l 5,22,-1
 436.00976174 -164.84961326 l 5,23,-1
 436.00976174 -335.944339822 l 5,24,-1
 622.129878928 -335.944339822 l 5,25,-1
 622.129878928 -506.152347635 l 5,26,-1
 808.249996115 -506.152347635 l 5,27,-1
 808.25 -687.059570312 l 5,4,-1
843.868243192 686.999019553 m 5,28,-1
 431.010742188 1348.55424048 l 5,29,-1
 18.1532411825 686.999019553 l 5,30,-1
 843.868243192 686.999019553 l 5,28,-1
EndSplineSet
Validated: 1
Layer: 2
SplineSet
1150 687 m 5
 1180 687 l 5
 1180 677 l 5
 1150 677 l 5
 1150 687 l 5
1100 687 m 5
 1130 687 l 5
 1130 677 l 5
 1100 677 l 5
 1100 687 l 5
1050 687 m 5
 1080 687 l 5
 1080 677 l 5
 1050 677 l 5
 1050 687 l 5
1000 687 m 5
 1030 687 l 5
 1030 677 l 5
 1000 677 l 5
 1000 687 l 5
950 687 m 5
 980 687 l 5
 980 677 l 5
 950 677 l 5
 950 687 l 5
900 687 m 5
 930 687 l 5
 930 677 l 5
 900 677 l 5
 900 687 l 5
850 687 m 5
 880 687 l 5
 880 677 l 5
 850 677 l 5
 850 687 l 5
800 687 m 5
 830 687 l 5
 830 677 l 5
 800 677 l 5
 800 687 l 5
750 687 m 5
 780 687 l 5
 780 677 l 5
 750 677 l 5
 750 687 l 5
700 687 m 5
 730 687 l 5
 730 677 l 5
 700 677 l 5
 700 687 l 5
650 687 m 5
 680 687 l 5
 680 677 l 5
 650 677 l 5
 650 687 l 5
600 -677 m 5
 1202 -677 l 5
 1202 -687 l 5
 600 -687 l 5
 600 -677 l 5
600 687 m 5
 630 687 l 5
 630 677 l 5
 600 677 l 5
 600 687 l 5
600 1369 m 5
 1202 1369 l 5
 1202 1359 l 5
 600 1359 l 5
 600 1369 l 5
600 8 m 5
 1202 8 l 5
 1202 -8 l 5
 600 -8 l 5
 600 8 l 5
550 687 m 1
 580 687 l 1
 580 677 l 1
 550 677 l 1
 550 687 l 1
500 687 m 1
 530 687 l 1
 530 677 l 1
 500 677 l 1
 500 687 l 1
450 687 m 1
 480 687 l 1
 480 677 l 1
 450 677 l 1
 450 687 l 1
400 687 m 1
 430 687 l 1
 430 677 l 1
 400 677 l 1
 400 687 l 1
350 687 m 1
 380 687 l 1
 380 677 l 1
 350 677 l 1
 350 687 l 1
300 687 m 1
 330 687 l 1
 330 677 l 1
 300 677 l 1
 300 687 l 1
250 687 m 1
 280 687 l 1
 280 677 l 1
 250 677 l 1
 250 687 l 1
200 687 m 1
 230 687 l 1
 230 677 l 1
 200 677 l 1
 200 687 l 1
150 687 m 1
 180 687 l 1
 180 677 l 1
 150 677 l 1
 150 687 l 1
100 687 m 1
 130 687 l 1
 130 677 l 1
 100 677 l 1
 100 687 l 1
50 687 m 1
 80 687 l 1
 80 677 l 1
 50 677 l 1
 50 687 l 1
0 -677 m 1
 602 -677 l 1
 602 -687 l 1
 0 -687 l 1
 0 -677 l 1
0 687 m 1
 30 687 l 1
 30 677 l 1
 0 677 l 1
 0 687 l 1
0 1369 m 1
 602 1369 l 1
 602 1359 l 1
 0 1359 l 1
 0 1369 l 1
0 8 m 1
 602 8 l 1
 602 -8 l 1
 0 -8 l 1
 0 8 l 1
EndSplineSet
EndChar

StartChar: ccnn
Encoding: 57345 57345 4
Width: 2048
LayerCount: 3
Back
SplineSet
218.171875 410.755859375 m 4
 218.171875 451.379882812 205.3828125 487.490234375 161.75 487.490234375 c 7
 130.153320312 487.490234375 114.182617188 458.987304688 103.0703125 436.333984375 c 6
 -72.9677734375 77.4873046875 l 5
 -84.0859375 54.8359375 -100.05078125 26.330078125 -131.647460938 26.330078125 c 7
 -175.280273438 26.330078125 -188.0703125 62.4404296875 -188.0703125 103.065429688 c 1028
218.171875 410.755859375 m 0
 218.171875 451.379882812 205.3828125 487.490234375 161.75 487.490234375 c 3
 130.153320312 487.490234375 114.182617188 458.987304688 103.0703125 436.333984375 c 2
 -72.9677734375 77.4873046875 l 1
 -84.0859375 54.8359375 -100.05078125 26.330078125 -131.647460938 26.330078125 c 3
 -175.280273438 26.330078125 -188.0703125 62.4404296875 -188.0703125 103.065429688 c 1024
EndSplineSet
Fore
Validated: 1
EndChar

StartChar: h
Encoding: 104 104 5
Width: 1200
VWidth: 1540
Flags: W
LayerCount: 3
Back
SplineSet
227.770507812 682 m 25
 209.159179688 682 178.138671875 682 178.138671875 682 c 17
 600.010742188 1350 l 1
 1021.8828125 682 l 9
 1021.8828125 682 992.103515625 682 972.250976562 682 c 1049
413.890625 0 m 1025
972.250976562 -681.359375 m 25
 972.250976562 -511.151367188 l 1
 786.130859375 -511.151367188 l 1
 786.130859375 -340.943359375 l 1
 600.010742188 -340.943359375 l 1
 600.010742188 -169.848632812 l 1
 413.890625 -169.848632812 l 1
 413.890625 0.359375 l 1033
0 687 m 1
 30 687 l 1
 30 677 l 1
 0 677 l 1
 0 687 l 1
50 687 m 1
 80 687 l 1
 80 677 l 1
 50 677 l 1
 50 687 l 1
100 687 m 1
 130 687 l 1
 130 677 l 1
 100 677 l 1
 100 687 l 1
150 687 m 1
 180 687 l 1
 180 677 l 1
 150 677 l 1
 150 687 l 1
200 687 m 1
 230 687 l 1
 230 682 l 1
 250 682 l 1
 250 687 l 1
 280 687 l 1
 280 682 l 1
 300 682 l 1
 300 687 l 1
 330 687 l 1
 330 682 l 1
 350 682 l 1
 350 687 l 1
 380 687 l 1
 380 682 l 1
 400 682 l 1
 400 687 l 1
 430 687 l 1
 430 682 l 1
 450 682 l 1
 450 687 l 1
 480 687 l 1
 480 682 l 1
 500 682 l 1
 500 687 l 1
 530 687 l 1
 530 682 l 1
 550 682 l 1
 550 687 l 1
 580 687 l 1
 580 682 l 1
 600 682 l 1
 600 687 l 1
 630 687 l 1
 630 682 l 1
 650 682 l 1
 650 687 l 1
 680 687 l 1
 680 682 l 1
 700 682 l 1
 700 687 l 1
 730 687 l 1
 730 682 l 1
 750 682 l 1
 750 687 l 1
 780 687 l 1
 780 682 l 1
 800 682 l 1
 800 687 l 1
 830 687 l 1
 830 682 l 1
 850 682 l 1
 850 687 l 1
 880 687 l 1
 880 682 l 1
 900 682 l 1
 900 687 l 1
 930 687 l 1
 930 682 l 1
 950 682 l 1
 950 687 l 1
 980 687 l 1
 980 677 l 1
 972.250976562 677 l 1
 972.250976562 8 l 1
 1202 8 l 1
 1202 -8 l 1
 602 -8 l 1
 600 -8 l 1
 0 -8 l 1
 0 8 l 1
 227.770507812 8 l 1
 227.770507812 677 l 1
 200 677 l 1
 200 687 l 1
1000 687 m 1
 1030 687 l 1
 1030 677 l 1
 1000 677 l 1
 1000 687 l 1
1050 687 m 1
 1080 687 l 1
 1080 677 l 1
 1050 677 l 1
 1050 687 l 1
1100 687 m 1
 1130 687 l 1
 1130 677 l 1
 1100 677 l 1
 1100 687 l 1
1150 687 m 1
 1180 687 l 1
 1180 677 l 1
 1150 677 l 1
 1150 687 l 1
600 1369 m 1
 602 1369 l 1
 1202 1369 l 1
 1202 1359 l 1
 602 1359 l 1
 600 1359 l 1
 0 1359 l 1
 0 1369 l 1
 600 1369 l 1
600 -677 m 1
 602 -677 l 1
 1202 -677 l 1
 1202 -687 l 1
 602 -687 l 1
 600 -687 l 1
 0 -687 l 1
 0 -677 l 1
 600 -677 l 1
EndSplineSet
Fore
SplineSet
0 -687 m 5,0,-1
 0 -677 l 5,1,-1
 967.251953125 -677 l 5,2,-1
 967.251953125 -516.150390625 l 5,3,-1
 781.131835938 -516.150390625 l 5,4,-1
 781.131835938 -345.942382812 l 5,5,-1
 595.01171875 -345.942382812 l 5,6,-1
 595.01171875 -174.84765625 l 5,7,-1
 408.891601562 -174.84765625 l 5,8,-1
 408.891601562 -8 l 5,9,-1
 0 -8 l 5,10,-1
 0 8 l 5,11,-1
 222.771484375 8 l 5,12,-1
 222.771484375 677 l 5,13,-1
 150 677 l 5,14,-1
 150 687 l 5,15,-1
 175.364130243 687 l 5,16,-1
 594.740262291 1359 l 5,17,-1
 0 1359 l 5,18,-1
 0 1369 l 5,19,-1
 1202 1369 l 5,20,-1
 1202 1359 l 5,21,-1
 605.281222084 1359 l 5,22,-1
 1024.65735413 687 l 5,23,-1
 1030 687 l 5,24,-1
 1030 677.000976562 l 5,25,-1
 1030 677 l 5,26,-1
 980 677 l 5,27,-1
 977.25 677 l 5,28,-1
 977.25 8 l 5,29,-1
 1202 8 l 5,30,-1
 1202 -8 l 5,31,-1
 418.889648438 -8 l 5,32,-1
 418.889648438 -164.849609375 l 5,33,-1
 605.009765625 -164.849609375 l 5,34,-1
 605.009765625 -335.944335938 l 5,35,-1
 791.129882812 -335.944335938 l 5,36,-1
 791.129882812 -506.15234375 l 5,37,-1
 977.25 -506.15234375 l 5,38,-1
 977.25 -677 l 5,39,-1
 1202 -677 l 5,40,-1
 1202 -687 l 5,41,-1
 0 -687 l 5,0,-1
0 687 m 5,42,-1
 30 687 l 5,43,-1
 30 677 l 5,44,-1
 0 677 l 5,45,-1
 0 687 l 5,42,-1
50 687 m 5,46,-1
 80 687 l 5,47,-1
 80 677 l 5,48,-1
 50 677 l 5,49,-1
 50 687 l 5,46,-1
100 687 m 5,50,-1
 130 687 l 5,51,-1
 130 677 l 5,52,-1
 100 677 l 5,53,-1
 100 687 l 5,50,-1
1012.86755462 687 m 5,54,-1
 600.010742188 1348.5546875 l 5,55,-1
 187.153320312 686.999023438 l 5,56,-1
 1012.86755462 687 l 5,54,-1
1050 687 m 5,57,-1
 1080 687 l 5,58,-1
 1080 677 l 5,59,-1
 1050 677 l 5,60,-1
 1050 687 l 5,57,-1
1100 687 m 5,61,-1
 1130 687 l 5,62,-1
 1130 677 l 5,63,-1
 1100 677 l 5,64,-1
 1100 687 l 5,61,-1
1150 687 m 5,65,-1
 1180 687 l 5,66,-1
 1180 677 l 5,67,-1
 1150 677 l 5,68,-1
 1150 687 l 5,65,-1
232.76953125 8 m 5,69,-1
 967.251953125 8 l 5,70,-1
 967.251953125 677 l 5,71,-1
 232.76953125 677.000976562 l 5,72,-1
 232.76953125 8 l 5,69,-1
EndSplineSet
Validated: 1
Layer: 2
SplineSet
967.251953125 677.000976562 m 5
 232.76953125 677.000976562 l 5
 232.76953125 7.9990234375 l 5
 967.251953125 7.9990234375 l 5
 967.251953125 677.000976562 l 5
977.25 -687.059570312 m 5
 967.251953125 -687.059570312 l 5
 967.251953125 -516.150390625 l 5
 781.131835938 -516.150390625 l 5
 781.131835938 -345.942382812 l 5
 595.01171875 -345.942382812 l 5
 595.01171875 -174.84765625 l 5
 408.891601562 -174.84765625 l 5
 408.891601562 -7.9990234375 l 5
 222.771484375 -7.9990234375 l 5
 222.771484375 677.000976562 l 5
 178.138671875 677.000976562 l 5
 169.124023438 677.000976562 l 5
 600.010742188 1367.4453125 l 5
 1030.89746094 677.000976562 l 5
 977.25 677.000976562 l 5
 977.25 -7.9990234375 l 5
 418.889648438 -7.9990234375 l 5
 418.889648438 -164.849609375 l 5
 605.009765625 -164.849609375 l 5
 605.009765625 -335.944335938 l 5
 791.129882812 -335.944335938 l 5
 791.129882812 -506.15234375 l 5
 977.25 -506.15234375 l 5
 977.25 -687.059570312 l 5
1012.86816406 686.999023438 m 5
 600.010742188 1348.5546875 l 5
 187.153320312 686.999023438 l 5
 1012.86816406 686.999023438 l 5
EndSplineSet
EndChar

StartChar: ccno
Encoding: 57347 57347 6
Width: 0
VWidth: 1540
LayerCount: 3
Back
SplineSet
460.068359375 442.362304688 m 5
 434.111328125 469.892578125 401.522460938 487.490234375 366.370117188 487.490234375 c 4
 319.751953125 487.490234375 277.641601562 457.6484375 248.52734375 410.466796875 c 1029
EndSplineSet
Fore
Validated: 1
EndChar

StartChar: ccna
Encoding: 57348 57348 7
Width: 0
VWidth: 1540
LayerCount: 3
Back
SplineSet
571.748046875 25.578125 m 3
 528.114257812 25.578125 515.325195312 62.4404296875 515.325195312 103.065429688 c 0
 515.325195312 104.12890625 515.325195312 487.490234375 515.325195312 487.490234375 c 1049
515.325195312 412.260742188 m 4
 493.508789062 440.84765625 445.361328125 487.490234375 384.42578125 487.490234375 c 4
 271.881835938 487.490234375 198.532226562 381.416015625 198.532226562 255.782226562 c 4
 198.532226562 128.643554688 277.147460938 25.578125 373.140625 25.578125 c 0
 451.379882812 25.578125 515.325195312 109.8125 515.325195312 217.415039062 c 1024
EndSplineSet
Fore
Validated: 1
EndChar

StartChar: o
Encoding: 111 111 8
Width: 108
VWidth: 1540
Flags: W
LayerCount: 3
Back
SplineSet
0.599609375 -52.7998046875 m 5
 65.400390625 0 l 5
 0.599609375 52.7998046875 l 5
 0.599609375 -52.7998046875 l 5
EndSplineSet
Fore
SplineSet
0.599609375 -52.7998046875 m 5,0,-1
 65.400390625 0 l 5,1,-1
 0.599609375 52.7998046875 l 5,2,-1
 0.599609375 -52.7998046875 l 5,0,-1
EndSplineSet
Validated: 9
EndChar

StartChar: c
Encoding: 99 99 9
Width: 600
Flags: W
LayerCount: 3
Fore
SplineSet
0 8 m 1,0,-1
 602 8 l 1,1,-1
 602 -8 l 1,2,-1
 0 -8 l 1,3,-1
 0 8 l 1,0,-1
EndSplineSet
Validated: 1
EndChar

StartChar: ccoo
Encoding: 57359 57359 10
Width: 0
VWidth: 1540
LayerCount: 3
Back
SplineSet
273.411132812 443.201171875 m 5
 299.587890625 471.018554688 331.735351562 487.490234375 366.370117188 487.490234375 c 4
 401.356445312 487.490234375 433.802734375 470.051757812 460.068359375 442.362304688 c 1029
273.411132812 443.201171875 m 1029
EndSplineSet
Fore
Validated: 1
EndChar

StartChar: ccoa
Encoding: 57360 57360 11
Width: 0
VWidth: 1540
LayerCount: 3
Back
SplineSet
-107.91796875 442.362304688 m 1029
-360.3515625 255.782226562 m 4
 -360.3515625 382.920898438 -288.8828125 487.490234375 -201.616210938 487.490234375 c 4
 -114.349609375 487.490234375 -42.880859375 383.672851562 -42.880859375 256.534179688 c 4
 -42.880859375 159.6484375 -84.3837890625 76.306640625 -142.752929688 42.12890625 c 4
 -160.979492188 31.4560546875 -180.850585938 25.578125 -201.616210938 25.578125 c 4
 -288.8828125 25.578125 -360.3515625 128.643554688 -360.3515625 255.782226562 c 4
571.748046875 25.578125 m 3
 528.114257812 25.578125 515.325195312 62.4404296875 515.325195312 103.065429688 c 0
 515.325195312 104.12890625 515.325195312 487.490234375 515.325195312 487.490234375 c 1049
515.325195312 412.260742188 m 0
 493.508789062 440.84765625 445.361328125 487.490234375 384.42578125 487.490234375 c 0
 271.881835938 487.490234375 198.532226562 381.416015625 198.532226562 255.782226562 c 0
 198.532226562 128.643554688 277.147460938 25.578125 373.140625 25.578125 c 0
 451.379882812 25.578125 515.325195312 109.8125 515.325195312 217.415039062 c 1024
EndSplineSet
Fore
Validated: 1
EndChar

StartChar: ccoh
Encoding: 57358 57358 12
Width: 0
VWidth: 1540
LayerCount: 3
Back
SplineSet
-107.91796875 442.362304688 m 1025
-360.3515625 255.782226562 m 0
 -360.3515625 382.920898438 -288.8828125 487.490234375 -201.616210938 487.490234375 c 0
 -114.349609375 487.490234375 -42.880859375 383.672851562 -42.880859375 256.534179688 c 0
 -42.880859375 159.6484375 -84.3837890625 76.306640625 -142.752929688 42.12890625 c 0
 -160.979492188 31.4560546875 -180.850585938 25.578125 -201.616210938 25.578125 c 0
 -288.8828125 25.578125 -360.3515625 128.643554688 -360.3515625 255.782226562 c 0
EndSplineSet
Fore
Validated: 1
EndChar

StartChar: e
Encoding: 101 101 13
Width: 600
Flags: W
LayerCount: 3
Fore
SplineSet
0 -677 m 1,0,-1
 602 -677 l 1,1,-1
 602 -687 l 1,2,-1
 0 -687 l 1,3,-1
 0 -677 l 1,0,-1
0 1369 m 1,4,-1
 602 1369 l 1,5,-1
 602 1359 l 1,6,-1
 0 1359 l 1,7,-1
 0 1369 l 1,4,-1
0 8 m 1,8,-1
 602 8 l 1,9,-1
 602 -8 l 1,10,-1
 0 -8 l 1,11,-1
 0 8 l 1,8,-1
EndSplineSet
Validated: 1
EndChar

StartChar: ccne
Encoding: 57349 57349 14
Width: 0
VWidth: 1540
LayerCount: 3
Back
SplineSet
366.370117188 487.490234375 m 4
 279.103515625 487.490234375 207.634765625 382.920898438 207.634765625 255.782226562 c 4
 207.634765625 128.643554688 279.103515625 25.578125 366.370117188 25.578125 c 1028
EndSplineSet
Fore
Validated: 1
EndChar

StartChar: ccoe
Encoding: 57361 57361 15
Width: 0
VWidth: 1540
LayerCount: 3
Back
SplineSet
366.370117188 487.490234375 m 4
 279.103515625 487.490234375 207.634765625 382.920898438 207.634765625 255.782226562 c 4
 207.634765625 128.643554688 279.103515625 25.578125 366.370117188 25.578125 c 1028
EndSplineSet
Fore
Validated: 1
EndChar

StartChar: u
Encoding: 117 117 16
Width: 682
VWidth: 1540
Flags: W
LayerCount: 3
Fore
SplineSet
-4.9990195527 -4.9990195527 m 13,0,-1
 -5.0009765625 4.9990234375 l 17,1,-1
 687.000976562 4.9990234375 l 1,2,-1
 686.999019553 -4.9990195527 l 1,3,-1
 -4.9990195527 -4.9990195527 l 13,0,-1
EndSplineSet
Validated: 524289
EndChar

StartChar: ccei
Encoding: 57368 57368 17
Width: 2048
LayerCount: 3
Back
SplineSet
-134.25 442.362304688 m 1029
-386.682617188 255.782226562 m 4
 -386.682617188 382.920898438 -315.21484375 487.490234375 -227.947265625 487.490234375 c 4
 -140.680664062 487.490234375 -69.2119140625 383.672851562 -69.2119140625 256.534179688 c 4
 -69.2119140625 159.6484375 -110.71484375 76.306640625 -169.084960938 42.12890625 c 4
 -187.310546875 31.4560546875 -207.182617188 25.578125 -227.947265625 25.578125 c 4
 -315.21484375 25.578125 -386.682617188 128.643554688 -386.682617188 255.782226562 c 4
EndSplineSet
Fore
Validated: 1
EndChar

StartChar: ccen
Encoding: 57369 57369 18
Width: 2048
LayerCount: 3
Back
SplineSet
-134.25 442.362304688 m 1029
-386.682617188 255.782226562 m 4
 -386.682617188 382.920898438 -315.21484375 487.490234375 -227.947265625 487.490234375 c 4
 -140.680664062 487.490234375 -69.2119140625 383.672851562 -69.2119140625 256.534179688 c 4
 -69.2119140625 159.6484375 -110.71484375 76.306640625 -169.084960938 42.12890625 c 4
 -187.310546875 31.4560546875 -207.182617188 25.578125 -227.947265625 25.578125 c 4
 -315.21484375 25.578125 -386.682617188 128.643554688 -386.682617188 255.782226562 c 4
246.756835938 410.755859375 m 4
 246.756835938 451.379882812 233.967773438 487.490234375 190.333984375 487.490234375 c 7
 158.737304688 487.490234375 142.774414062 458.982421875 131.654296875 436.333984375 c 6
 29.33984375 227.947265625 l 5
 -20.2021484375 126.953125 -38.8916015625 104.141601562 -97.7998046875 64.7421875 c 4
 -137.057617188 38.486328125 -179.810546875 25.578125 -227.947265625 25.578125 c 1028
EndSplineSet
Fore
Validated: 1
EndChar

StartChar: cceh
Encoding: 57370 57370 19
Width: 2048
LayerCount: 3
Back
SplineSet
447.887695312 1257.02050781 m 7
 552.940429688 1257.02050781 586.041992188 1135.22460938 586.041992188 1053.21972656 c 7
 586.041992188 1006.00976562 577.776367188 934.536132812 525.326171875 820.006835938 c 4
 493.34375 750.169921875 439.209960938 667.369140625 365.618164062 558.20703125 c 6
 365.618164062 558.20703125 95.7578125 156.696289062 94.7900390625 156.478515625 c 6
 29.2431640625 59.251953125 -19 25 -115.1015625 24.578125 c 1052
315.965820312 25.578125 m 1
 316.341796875 1003.19238281 l 2
 316.341796875 1141.99121094 331.771484375 1257.09375 448.37109375 1257.09375 c 1024
315.965820312 256.534179688 m 0
 315.965820312 337.030273438 425.049804688 487.490234375 531.875976562 487.490234375 c 3
 589.05078125 487.490234375 632.684570312 446.114257812 632.684570312 384.42578125 c 0
 632.684570312 384.42578125 632.684570312 103.817382812 632.684570312 103.065429688 c 0
 632.684570312 62.4404296875 645.473632812 25.578125 689.106445312 25.578125 c 1024
-115.1015625 487.490234375 m 0
 -202.369140625 487.490234375 -273.836914062 382.920898438 -273.836914062 255.782226562 c 0
 -273.836914062 128.643554688 -202.369140625 25.578125 -115.1015625 25.578125 c 1024
EndSplineSet
Fore
Validated: 1
EndChar

StartChar: cceo
Encoding: 57371 57371 20
Width: 2048
LayerCount: 3
Back
SplineSet
497.68359375 442.362304688 m 1029
303.58984375 434.803710938 m 5
 330.999023438 467.672851562 365.995117188 487.490234375 403.985351562 487.490234375 c 4
 439.033203125 487.490234375 471.533203125 470.744140625 497.87890625 442.467773438 c 1029
497.87890625 442.467773438 m 5
 537.130859375 400.337890625 562.720703125 332.611328125 562.720703125 256.534179688 c 0
 562.720703125 159.6484375 521.217773438 76.306640625 462.848632812 42.12890625 c 0
 444.622070312 31.4560546875 424.750976562 25.578125 403.985351562 25.578125 c 0
 316.71875 25.578125 245.25 128.643554688 245.25 255.782226562 c 0
 245.25 327.573242188 268.037109375 392.16796875 303.58984375 434.803710938 c 1029
-134.25 442.362304688 m 1025
-386.682617188 255.782226562 m 0
 -386.682617188 382.920898438 -315.21484375 487.490234375 -227.947265625 487.490234375 c 0
 -140.680664062 487.490234375 -69.2119140625 383.672851562 -69.2119140625 256.534179688 c 0
 -69.2119140625 159.6484375 -110.71484375 76.306640625 -169.084960938 42.12890625 c 0
 -187.310546875 31.4560546875 -207.182617188 25.578125 -227.947265625 25.578125 c 0
 -315.21484375 25.578125 -386.682617188 128.643554688 -386.682617188 255.782226562 c 0
EndSplineSet
Fore
Validated: 1
EndChar

StartChar: ccea
Encoding: 57372 57372 21
Width: 2048
LayerCount: 3
Back
SplineSet
609.36328125 25.578125 m 7
 565.729492188 25.578125 552.940429688 62.4404296875 552.940429688 103.065429688 c 4
 552.940429688 104.12890625 552.940429688 487.490234375 552.940429688 487.490234375 c 1053
552.940429688 412.260742188 m 4
 531.124023438 440.84765625 482.9765625 487.490234375 422.040039062 487.490234375 c 4
 309.49609375 487.490234375 236.147460938 381.416015625 236.147460938 255.782226562 c 4
 236.147460938 128.643554688 314.762695312 25.578125 410.755859375 25.578125 c 4
 488.995117188 25.578125 552.940429688 109.8125 552.940429688 217.415039062 c 1028
EndSplineSet
Fore
Validated: 1
EndChar

StartChar: m
Encoding: 109 109 22
Width: 600
VWidth: 1540
Flags: W
LayerCount: 3
Back
SplineSet
0 512 m 5
 600 512 l 5
 600 0 l 5
 0 0 l 5
 0 512 l 5
EndSplineSet
Fore
SplineSet
602 1364 m 5,0,-1
 602 682 l 5,1,-1
 0 682 l 1,2,-1
 0 1364 l 1,3,-1
 602 1364 l 5,0,-1
EndSplineSet
Validated: 1
EndChar

StartChar: l
Encoding: 108 108 23
Width: 600
VWidth: 1540
Flags: W
LayerCount: 3
Fore
SplineSet
0 682 m 1,0,-1
 602 682 l 5,1,-1
 602 0 l 5,2,-1
 0 0 l 1,3,-1
 0 682 l 1,0,-1
EndSplineSet
Validated: 1
EndChar

StartChar: csi
Encoding: 57536 57536 24
Width: 2048
LayerCount: 3
Back
SplineSet
-179.12109375 103.065429688 m 4
 -179.12109375 75.9775390625 -151.787109375 25.580078125 -122.698242188 25.578125 c 4
 -101.633789062 25.578125 -71.3984375 62.453125 -64.0185546875 77.4873046875 c 14
 137.59765625 488.243164062 l 1029
EndSplineSet
Fore
Validated: 1
EndChar

StartChar: csn
Encoding: 57537 57537 25
Width: 2048
LayerCount: 3
Back
SplineSet
227.875976562 410.755859375 m 4
 227.875976562 451.379882812 215.086914062 487.490234375 171.453125 487.490234375 c 7
 139.856445312 487.490234375 123.88671875 458.987304688 112.774414062 436.333984375 c 6
 -63.2646484375 77.4873046875 l 5
 -74.3818359375 54.8359375 -90.3466796875 26.330078125 -121.943359375 26.330078125 c 7
 -165.577148438 26.330078125 -178.366210938 62.4404296875 -178.366210938 103.065429688 c 1028
EndSplineSet
Fore
Validated: 1
EndChar

StartChar: csh
Encoding: 57538 57538 26
Width: 2048
LayerCount: 3
Back
SplineSet
495.9609375 1257.02050781 m 7
 601.014648438 1257.02050781 634.115234375 1135.22460938 634.115234375 1053.21972656 c 7
 634.115234375 977.22265625 624.393554688 838.348632812 417.453125 558.20703125 c 6
 24 25.578125 l 1029
EndSplineSet
Fore
Validated: 1
EndChar

StartChar: cso
Encoding: 57539 57539 27
Width: 2048
LayerCount: 3
Back
SplineSet
470.236328125 442.362304688 m 1029
217.802734375 255.782226562 m 4
 217.802734375 382.920898438 289.271484375 487.490234375 376.538085938 487.490234375 c 4
 463.8046875 487.490234375 535.2734375 383.672851562 535.2734375 256.534179688 c 4
 535.2734375 159.6484375 493.770507812 76.306640625 435.401367188 42.12890625 c 4
 417.174804688 31.4560546875 397.303710938 25.578125 376.538085938 25.578125 c 4
 289.271484375 25.578125 217.802734375 128.643554688 217.802734375 255.782226562 c 4
EndSplineSet
Fore
Validated: 1
EndChar

StartChar: csa
Encoding: 57540 57540 28
Width: 2048
LayerCount: 3
Back
SplineSet
582.20703125 25.578125 m 7
 538.573242188 25.578125 525.784179688 62.4404296875 525.784179688 103.065429688 c 4
 525.784179688 104.12890625 525.784179688 487.490234375 525.784179688 487.490234375 c 1053
525.784179688 412.260742188 m 4
 503.967773438 440.84765625 455.8203125 487.490234375 394.884765625 487.490234375 c 4
 282.340820312 487.490234375 208.991210938 381.416015625 208.991210938 255.782226562 c 4
 208.991210938 128.643554688 287.606445312 25.578125 383.599609375 25.578125 c 4
 461.838867188 25.578125 525.784179688 109.8125 525.784179688 217.415039062 c 1028
EndSplineSet
Fore
Validated: 1
EndChar

StartChar: cse
Encoding: 57541 57541 29
Width: 2048
LayerCount: 3
Back
SplineSet
256.4609375 487.490234375 m 0
 305.360351562 487.490234375 357.26953125 457.404296875 357.26953125 406.2421875 c 3
 357.26953125 369.37890625 344.291992188 342.561523438 317.397460938 323.489257812 c 2
 -57.248046875 48.8994140625 l 2
 -76.6376953125 35.1484375 -97.8720703125 25.578125 -129.46875 25.578125 c 7
 -173.102539062 25.578125 -185.891601562 62.4404296875 -185.891601562 103.065429688 c 1028
EndSplineSet
Fore
Validated: 1
EndChar

StartChar: v
Encoding: 118 118 30
Width: 682
VWidth: 1540
Flags: W
LayerCount: 3
Back
SplineSet
0 0 m 5
 682 0 l 5
 682 454.666666667 682 909.333333333 682 1364 c 5
 0 1364 l 5
 0 0 l 5
EndSplineSet
Fore
SplineSet
677.000980447 1359.00098045 m 5,0,-1
 4.9990195527 1359.00098045 l 5,1,-1
 4.9990195527 4.9990195527 l 5,2,-1
 677.000980447 4.9990195527 l 5,3,-1
 677.000980447 1359.00098045 l 5,0,-1
-4.9990195527 -4.9990195527 m 5,4,-1
 -4.9990195527 1368.99901955 l 5,5,-1
 686.999019553 1368.99901955 l 5,6,-1
 686.999019553 -4.9990195527 l 5,7,-1
 -4.9990195527 -4.9990195527 l 5,4,-1
EndSplineSet
Validated: 1
EndChar

StartChar: w
Encoding: 119 119 31
Width: 682
VWidth: 1540
Flags: W
LayerCount: 3
Back
SplineSet
836.557617188 487.490234375 m 4
 853.860351562 464.168945312 874.172851562 406.275390625 874.172851562 330.259765625 c 7
 874.172851562 163.252929688 765.088867188 25.578125 658.262695312 25.578125 c 7
 596.57421875 25.578125 557.454101562 71.46875 557.454101562 128.643554688 c 4
 557.454101562 128.643554688 557.454101562 347.5625 557.454101562 487.490234375 c 1052
557.454101562 256.534179688 m 4
 557.454101562 176.038085938 448.37109375 25.578125 341.543945312 25.578125 c 7
 279.85546875 25.578125 240.736328125 71.46875 240.736328125 128.643554688 c 4
 240.736328125 128.643554688 240.736328125 270.828125 240.736328125 410.755859375 c 20
 240.735351562 451.379882812 227.946289062 487.490234375 184.3125 487.490234375 c 1028
EndSplineSet
Fore
SplineSet
651 687 m 5,0,-1
 681 687 l 5,1,-1
 681 677 l 5,2,-1
 651 677 l 5,3,-1
 651 687 l 5,0,-1
601 687 m 5,4,-1
 631 687 l 5,5,-1
 631 677 l 5,6,-1
 601 677 l 5,7,-1
 601 687 l 5,4,-1
551 687 m 5,8,-1
 581 687 l 5,9,-1
 581 677 l 5,10,-1
 551 677 l 5,11,-1
 551 687 l 5,8,-1
501 687 m 5,12,-1
 531 687 l 5,13,-1
 531 677 l 5,14,-1
 501 677 l 5,15,-1
 501 687 l 5,12,-1
451 687 m 5,16,-1
 481 687 l 5,17,-1
 481 677 l 5,18,-1
 451 677 l 5,19,-1
 451 687 l 5,16,-1
401 687 m 5,20,-1
 431 687 l 5,21,-1
 431 677 l 5,22,-1
 401 677 l 5,23,-1
 401 687 l 5,20,-1
351 687 m 5,24,-1
 381 687 l 5,25,-1
 381 677 l 5,26,-1
 351 677 l 5,27,-1
 351 687 l 5,24,-1
301 687 m 5,28,-1
 331 687 l 5,29,-1
 331 677 l 5,30,-1
 301 677 l 5,31,-1
 301 687 l 5,28,-1
251 687 m 5,32,-1
 281 687 l 5,33,-1
 281 677 l 5,34,-1
 251 677 l 5,35,-1
 251 687 l 5,32,-1
201 687 m 5,36,-1
 231 687 l 5,37,-1
 231 677 l 5,38,-1
 201 677 l 5,39,-1
 201 687 l 5,36,-1
151 687 m 5,40,-1
 181 687 l 5,41,-1
 181 677 l 5,42,-1
 151 677 l 5,43,-1
 151 687 l 5,40,-1
101 687 m 5,44,-1
 131 687 l 5,45,-1
 131 677 l 5,46,-1
 101 677 l 5,47,-1
 101 687 l 5,44,-1
51 687 m 5,48,-1
 81 687 l 5,49,-1
 81 677 l 5,50,-1
 51 677 l 5,51,-1
 51 687 l 5,48,-1
1 687 m 5,52,-1
 31 687 l 5,53,-1
 31 677 l 5,54,-1
 1 677 l 5,55,-1
 1 687 l 5,52,-1
677.000980447 1359.00098045 m 1,56,-1
 4.9990195527 1359.00098045 l 1,57,-1
 4.9990195527 4.9990195527 l 1,58,-1
 677.000980447 4.9990195527 l 1,59,-1
 677.000980447 1359.00098045 l 1,56,-1
-4.9990195527 -4.9990195527 m 1,60,-1
 -4.9990195527 1368.99901955 l 1,61,-1
 686.999019553 1368.99901955 l 1,62,-1
 686.999019553 -4.9990195527 l 1,63,-1
 -4.9990195527 -4.9990195527 l 1,60,-1
EndSplineSet
Validated: 5
EndChar

StartChar: ccvi
Encoding: 57380 57380 32
Width: 0
VWidth: 1540
LayerCount: 3
Back
SplineSet
-540.903320312 487.490234375 m 7
 -497.270507812 487.490234375 -484.481445312 451.379882812 -484.481445312 410.755859375 c 4
 -483.728515625 410.755859375 -484.481445312 128.643554688 -484.481445312 128.643554688 c 4
 -484.481445312 71.46875 -445.361328125 25.578125 -383.672851562 25.578125 c 7
 -276.846679688 25.578125 -167.762695312 163.252929688 -167.762695312 330.259765625 c 7
 -167.762695312 406.275390625 -188.075195312 464.168945312 -205.377929688 487.490234375 c 1028
EndSplineSet
Fore
Validated: 1
EndChar

StartChar: ccvn
Encoding: 57381 57381 33
Width: 0
VWidth: 1540
LayerCount: 3
Back
SplineSet
-220.763671875 443.114257812 m 4
 -189.580078125 416.774414062 -163.249023438 395.709960938 -90.2763671875 395.709960938 c 7
 -12.037109375 395.709960938 14.2939453125 451.9453125 24.0732421875 464.168945312 c 4
 33.1015625 475.453125 46.642578125 487.490234375 71.470703125 487.490234375 c 7
 115.104492188 487.490234375 127.893554688 451.379882812 127.893554688 410.755859375 c 1028
-540.903320312 487.490234375 m 3
 -497.270507812 487.490234375 -484.481445312 451.379882812 -484.481445312 410.755859375 c 0
 -483.728515625 410.755859375 -484.481445312 128.643554688 -484.481445312 128.643554688 c 0
 -484.481445312 71.46875 -445.361328125 25.578125 -383.672851562 25.578125 c 3
 -276.846679688 25.578125 -167.762695312 163.252929688 -167.762695312 330.259765625 c 3
 -167.762695312 406.275390625 -188.075195312 464.168945312 -205.377929688 487.490234375 c 1024
EndSplineSet
Fore
Validated: 1
EndChar

StartChar: ccvh
Encoding: 57382 57382 34
Width: 0
VWidth: 1540
LayerCount: 3
Back
SplineSet
240.736328125 25.578125 m 1
 241.112304688 1003.19238281 l 2
 241.112304688 1141.99121094 256.541992188 1257.09375 373.140625 1257.09375 c 1024
240.736328125 256.534179688 m 0
 240.736328125 337.030273438 349.819335938 487.490234375 456.646484375 487.490234375 c 3
 513.821289062 487.490234375 557.454101562 446.114257812 557.454101562 384.42578125 c 0
 557.454101562 384.42578125 557.454101562 103.817382812 557.454101562 103.065429688 c 0
 557.454101562 62.4404296875 570.243164062 25.578125 613.876953125 25.578125 c 1024
-428.05859375 487.490234375 m 3
 -384.42578125 487.490234375 -371.635742188 451.379882812 -371.635742188 410.755859375 c 0
 -370.883789062 410.755859375 -371.635742188 128.643554688 -371.635742188 128.643554688 c 0
 -371.635742188 71.46875 -332.516601562 25.578125 -270.828125 25.578125 c 3
 -164.000976562 25.578125 -54.91796875 163.252929688 -54.91796875 330.259765625 c 3
 -54.91796875 406.275390625 -75.23046875 464.168945312 -92.533203125 487.490234375 c 1024
EndSplineSet
Fore
Validated: 1
EndChar

StartChar: ccvo
Encoding: 57383 57383 35
Width: 0
VWidth: 1540
LayerCount: 3
Back
SplineSet
460.068359375 442.362304688 m 1029
273.443359375 443.236328125 m 5
 299.615234375 471.032226562 331.75 487.490234375 366.370117188 487.490234375 c 4
 401.497070312 487.490234375 434.063476562 470.669921875 460.440429688 442.27734375 c 1029
460.440429688 442.27734375 m 5
 499.592773438 400.134765625 525.10546875 332.497070312 525.10546875 256.534179688 c 0
 525.10546875 159.6484375 483.602539062 76.306640625 425.233398438 42.12890625 c 0
 407.006835938 31.4560546875 387.135742188 25.578125 366.370117188 25.578125 c 0
 279.103515625 25.578125 207.634765625 128.643554688 207.634765625 255.782226562 c 0
 207.634765625 332.482421875 233.645507812 400.96875 273.443359375 443.236328125 c 1029
-540.903320312 487.490234375 m 3
 -497.270507812 487.490234375 -484.481445312 451.379882812 -484.481445312 410.755859375 c 0
 -483.728515625 410.755859375 -484.481445312 128.643554688 -484.481445312 128.643554688 c 0
 -484.481445312 71.46875 -445.361328125 25.578125 -383.672851562 25.578125 c 3
 -276.846679688 25.578125 -167.762695312 163.252929688 -167.762695312 330.259765625 c 3
 -167.762695312 406.275390625 -188.075195312 464.168945312 -205.377929688 487.490234375 c 1024
EndSplineSet
Fore
Validated: 1
EndChar

StartChar: ccva
Encoding: 57384 57384 36
Width: 0
VWidth: 1540
LayerCount: 3
Back
SplineSet
-92.533203125 487.490234375 m 4
 -60.18359375 433.325195312 -4.5244140625 355.837890625 97.798828125 355.837890625 c 7
 200.908203125 355.837890625 278.350585938 401.728515625 299.415039062 423.544921875 c 4
 343.807617188 462.209960938 401.895507812 487.490234375 474.701171875 487.490234375 c 7
 509.33984375 487.490234375 515.325195312 487.490234375 515.325195312 487.490234375 c 1028
EndSplineSet
Fore
Validated: 1
EndChar

StartChar: ccve
Encoding: 57385 57385 37
Width: 0
VWidth: 1540
LayerCount: 3
Back
SplineSet
-540.903320312 487.490234375 m 3
 -497.270507812 487.490234375 -484.481445312 451.379882812 -484.481445312 410.755859375 c 0
 -483.728515625 410.755859375 -484.481445312 128.643554688 -484.481445312 128.643554688 c 0
 -484.481445312 71.46875 -445.361328125 25.578125 -383.672851562 25.578125 c 3
 -276.846679688 25.578125 -167.762695312 163.252929688 -167.762695312 330.259765625 c 3
 -167.762695312 406.275390625 -188.075195312 464.168945312 -205.377929688 487.490234375 c 1024
EndSplineSet
Fore
Validated: 1
EndChar

StartChar: b
Encoding: 98 98 38
Width: 600
Flags: W
LayerCount: 3
Fore
SplineSet
550 687 m 5,0,-1
 580 687 l 5,1,-1
 580 677 l 5,2,-1
 550 677 l 5,3,-1
 550 687 l 5,0,-1
500 687 m 5,4,-1
 530 687 l 5,5,-1
 530 677 l 5,6,-1
 500 677 l 5,7,-1
 500 687 l 5,4,-1
450 687 m 5,8,-1
 480 687 l 5,9,-1
 480 677 l 5,10,-1
 450 677 l 5,11,-1
 450 687 l 5,8,-1
400 687 m 5,12,-1
 430 687 l 5,13,-1
 430 677 l 5,14,-1
 400 677 l 5,15,-1
 400 687 l 5,12,-1
350 687 m 5,16,-1
 380 687 l 5,17,-1
 380 677 l 5,18,-1
 350 677 l 5,19,-1
 350 687 l 5,16,-1
300 687 m 5,20,-1
 330 687 l 5,21,-1
 330 677 l 5,22,-1
 300 677 l 5,23,-1
 300 687 l 5,20,-1
250 687 m 5,24,-1
 280 687 l 5,25,-1
 280 677 l 5,26,-1
 250 677 l 5,27,-1
 250 687 l 5,24,-1
200 687 m 5,28,-1
 230 687 l 5,29,-1
 230 677 l 5,30,-1
 200 677 l 5,31,-1
 200 687 l 5,28,-1
150 687 m 5,32,-1
 180 687 l 5,33,-1
 180 677 l 5,34,-1
 150 677 l 5,35,-1
 150 687 l 5,32,-1
100 687 m 5,36,-1
 130 687 l 5,37,-1
 130 677 l 5,38,-1
 100 677 l 5,39,-1
 100 687 l 5,36,-1
50 687 m 5,40,-1
 80 687 l 5,41,-1
 80 677 l 5,42,-1
 50 677 l 5,43,-1
 50 687 l 5,40,-1
0 687 m 5,44,-1
 30 687 l 5,45,-1
 30 677 l 5,46,-1
 0 677 l 5,47,-1
 0 687 l 5,44,-1
0 1369 m 5,48,-1
 602 1369 l 5,49,-1
 602 1359 l 5,50,-1
 0 1359 l 5,51,-1
 0 1369 l 5,48,-1
0 8 m 5,52,-1
 602 8 l 5,53,-1
 602 -8 l 5,54,-1
 0 -8 l 5,55,-1
 0 8 l 5,52,-1
EndSplineSet
Validated: 1
EndChar

StartChar: d
Encoding: 100 100 39
Width: 600
Flags: W
LayerCount: 3
Fore
SplineSet
550 687 m 5,0,-1
 580 687 l 5,1,-1
 580 677 l 5,2,-1
 550 677 l 5,3,-1
 550 687 l 5,0,-1
500 687 m 5,4,-1
 530 687 l 5,5,-1
 530 677 l 5,6,-1
 500 677 l 5,7,-1
 500 687 l 5,4,-1
450 687 m 5,8,-1
 480 687 l 5,9,-1
 480 677 l 5,10,-1
 450 677 l 5,11,-1
 450 687 l 5,8,-1
400 687 m 5,12,-1
 430 687 l 5,13,-1
 430 677 l 5,14,-1
 400 677 l 5,15,-1
 400 687 l 5,12,-1
350 687 m 5,16,-1
 380 687 l 5,17,-1
 380 677 l 5,18,-1
 350 677 l 5,19,-1
 350 687 l 5,16,-1
300 687 m 5,20,-1
 330 687 l 5,21,-1
 330 677 l 5,22,-1
 300 677 l 5,23,-1
 300 687 l 5,20,-1
250 687 m 5,24,-1
 280 687 l 5,25,-1
 280 677 l 5,26,-1
 250 677 l 5,27,-1
 250 687 l 5,24,-1
200 687 m 5,28,-1
 230 687 l 5,29,-1
 230 677 l 5,30,-1
 200 677 l 5,31,-1
 200 687 l 5,28,-1
150 687 m 5,32,-1
 180 687 l 5,33,-1
 180 677 l 5,34,-1
 150 677 l 5,35,-1
 150 687 l 5,32,-1
100 687 m 5,36,-1
 130 687 l 5,37,-1
 130 677 l 5,38,-1
 100 677 l 5,39,-1
 100 687 l 5,36,-1
50 687 m 5,40,-1
 80 687 l 5,41,-1
 80 677 l 5,42,-1
 50 677 l 5,43,-1
 50 687 l 5,40,-1
0 687 m 5,44,-1
 30 687 l 5,45,-1
 30 677 l 5,46,-1
 0 677 l 5,47,-1
 0 687 l 5,44,-1
EndSplineSet
Validated: 1
EndChar

StartChar: j
Encoding: 106 106 40
Width: 808
VWidth: 1540
Flags: W
LayerCount: 3
Back
SplineSet
432 1369 m 5
 808 1369 l 5
 808 1359 l 5
 426 1359 l 5
 432 1369 l 5
EndSplineSet
Fore
SplineSet
843.868243192 686.999019553 m 1,0,-1
 431.010742188 1348.55424048 l 1,1,-1
 18.1532411825 686.999019553 l 1,2,-1
 843.868243192 686.999019553 l 1,0,-1
808.25 -687.059570312 m 1,3,-1
 798.251953125 -687.059570312 l 1,4,-1
 798.25195701 -516.15038674 l 1,5,-1
 612.131839822 -516.15038674 l 1,6,-1
 612.131839822 -345.942378928 l 1,7,-1
 426.011722635 -345.942378928 l 1,8,-1
 426.011722635 -174.847652365 l 1,9,-1
 239.891605447 -174.847652365 l 1,10,-1
 239.891601562 -7.9990234375 l 1,11,-1
 53.771484375 -7.9990234375 l 1,12,-1
 53.7714882598 677.000980447 l 1,13,-1
 9.138671875 677.000980447 l 1,14,-1
 0.124102567497 677.000980447 l 1,15,-1
 432 1369 l 1,16,-1
 808 1369 l 1,17,-1
 808 1359 l 1,18,-1
 436.281496704 1359 l 1,19,-1
 861.897381808 677.000980447 l 1,20,-1
 808.249996115 677.000980447 l 1,21,-1
 808.25 -7.9990234375 l 1,22,-1
 249.889648438 -7.9990234375 l 1,23,-1
 249.889644553 -164.84961326 l 1,24,-1
 436.00976174 -164.84961326 l 1,25,-1
 436.00976174 -335.944339822 l 1,26,-1
 622.129878928 -335.944339822 l 1,27,-1
 622.129878928 -506.152347635 l 1,28,-1
 808.249996115 -506.152347635 l 1,29,-1
 808.25 -687.059570312 l 1,3,-1
798.25195701 677.000980447 m 1,30,-1
 63.7695273652 677.000980447 l 1,31,-1
 63.76953125 7.9990234375 l 1,32,-1
 798.251953125 7.9990234375 l 1,33,-1
 798.25195701 677.000980447 l 1,30,-1
EndSplineSet
Validated: 1
EndChar

StartChar: ccgi
Encoding: 57392 57392 41
Width: 2048
LayerCount: 3
Back
SplineSet
343.045898438 25.578125 m 7
 299.412109375 25.578125 286.623046875 62.4404296875 286.623046875 103.065429688 c 4
 286.623046875 104.12890625 285.87109375 488.243164062 286.623046875 487.490234375 c 1029
-56.4228515625 487.490234375 m 0
 -56.42578125 487.4921875 -56.427734375 341.922851562 -56.4228515625 -489.37109375 c 0
 -56.4228515625 -628.170898438 -72.220703125 -743.272460938 -181.680664062 -743.272460938 c 1024
EndSplineSet
Fore
Validated: 1
EndChar

StartChar: ccgn
Encoding: 57393 57393 42
Width: 2048
LayerCount: 3
Back
SplineSet
-55.6748046875 487.990234375 m 25
 -55.6748046875 487.990234375 -55.6748046875 109.39453125 -55.6748046875 108.331054688 c 0
 -55.6767578125 -33.8701171875 -55.6748046875 -229.004882812 -55.6748046875 -489.37109375 c 0
 -55.6748046875 -628.170898438 -71.47265625 -744.272460938 -180.932617188 -744.272460938 c 1024
-55.6748046875 412.260742188 m 0
 -77.4912109375 440.84765625 -125.638671875 487.990234375 -186.57421875 487.990234375 c 0
 -299.118164062 487.990234375 -372.467773438 379.916015625 -372.467773438 254.282226562 c 0
 -372.467773438 127.143554688 -293.852539062 24.078125 -197.859375 24.078125 c 0
 -119.620117188 24.078125 -55.6748046875 109.8125 -55.6748046875 217.415039062 c 1024
EndSplineSet
Fore
Validated: 1
EndChar

StartChar: ccgh
Encoding: 57394 57394 43
Width: 2048
LayerCount: 3
Back
SplineSet
286.625976562 25.578125 m 1
 287.002929688 1003.19238281 l 2
 287.002929688 1141.99121094 302.431640625 1257.09375 419.03125 1257.09375 c 1024
286.625976562 256.534179688 m 0
 286.625976562 337.030273438 395.709960938 487.490234375 502.536132812 487.490234375 c 3
 559.7109375 487.490234375 603.344726562 446.114257812 603.344726562 384.42578125 c 0
 603.344726562 384.42578125 603.344726562 103.817382812 603.344726562 103.065429688 c 0
 603.344726562 62.4404296875 616.133789062 25.578125 659.767578125 25.578125 c 1024
-56.4228515625 487.490234375 m 0
 -56.42578125 487.4921875 -56.427734375 341.922851562 -56.4228515625 -489.37109375 c 0
 -56.4228515625 -628.170898438 -72.220703125 -743.272460938 -181.680664062 -743.272460938 c 1024
EndSplineSet
Fore
Validated: 1
EndChar

StartChar: ccgo
Encoding: 57395 57395 44
Width: 0
VWidth: 1540
LayerCount: 3
Back
SplineSet
460.2265625 442.5078125 m 5
 433.887695312 470.760742188 401.401367188 487.490234375 366.370117188 487.490234375 c 4
 321.528320312 487.490234375 281.610351562 460.6328125 252.665039062 416.538085938 c 5
 252.772460938 416.774414062 -209.896484375 -267.818359375 -209.896484375 -267.818359375 c 6
 -244.497070312 -318.975585938 -243.75 -364.727539062 -243.75 -391.948242188 c 7
 -243.75 -434.852539062 -220.428710938 -486.73828125 -162.501953125 -486.73828125 c 1028
460.2265625 442.5078125 m 1029
460.068359375 442.362304688 m 1025
251.913085938 415.786132812 m 1
 280.858398438 459.880859375 321.528320312 487.490234375 366.370117188 487.490234375 c 0
 401.401367188 487.490234375 433.887695312 470.760742188 460.2265625 442.5078125 c 1025
460.2265625 442.5078125 m 1
 499.499023438 400.380859375 525.10546875 332.635742188 525.10546875 256.534179688 c 0
 525.10546875 159.6484375 483.602539062 76.306640625 425.233398438 42.12890625 c 0
 407.006835938 31.4560546875 387.135742188 25.578125 366.370117188 25.578125 c 0
 279.103515625 25.578125 207.634765625 128.643554688 207.634765625 255.782226562 c 0
 207.634765625 317.591796875 224.526367188 374.06640625 251.913085938 415.786132812 c 1025
EndSplineSet
Fore
Validated: 1
EndChar

StartChar: ccge
Encoding: 57397 57397 45
Width: 0
VWidth: 1540
LayerCount: 3
Back
SplineSet
366.370117188 487.490234375 m 4
 279.103515625 487.490234375 207.634765625 382.920898438 207.634765625 255.782226562 c 4
 207.634765625 128.643554688 279.103515625 25.578125 366.370117188 25.578125 c 1028
-56.4228515625 487.490234375 m 0
 -56.42578125 487.4921875 -56.427734375 341.922851562 -56.4228515625 -489.37109375 c 0
 -56.4228515625 -628.170898438 -72.220703125 -743.272460938 -181.680664062 -743.272460938 c 1024
EndSplineSet
Fore
Validated: 1
EndChar

StartChar: g
Encoding: 103 103 46
Width: 600
Flags: W
LayerCount: 3
Back
SplineSet
0 -674 m 5
 602 -674 l 7
 604.666992188 -674 606 -676.666992188 606 -682 c 135
 606 -687.333007812 604.666992188 -690 602 -690 c 5
 0 -690 l 5
 0 -674 l 5
EndSplineSet
Fore
SplineSet
0 -677 m 5,0,-1
 602 -677 l 5,1,-1
 602 -687 l 5,2,-1
 0 -687 l 5,3,-1
 0 -677 l 5,0,-1
EndSplineSet
Validated: 1
EndChar

StartChar: y
Encoding: 121 121 47
Width: 682
VWidth: 1540
Flags: W
LayerCount: 3
Fore
SplineSet
0 682 m 1,0,-1
 684 682 l 1,1,-1
 684 0 l 1,2,-1
 0 0 l 1,3,-1
 0 682 l 1,0,-1
EndSplineSet
Validated: 1
EndChar

StartChar: k
Encoding: 107 107 48
Width: 1200
VWidth: 1540
Flags: W
LayerCount: 3
Back
SplineSet
600 -668 m 5
 1201 -668 l 5
 1201 -696 l 5
 600 -696 l 5
 600 -668 l 5
1100 696 m 5
 1160 696 l 5
 1160 668 l 5
 1100 668 l 5
 1100 696 l 5
1000 696 m 5
 1060 696 l 5
 1060 668 l 5
 1000 668 l 5
 1000 696 l 5
900 696 m 5
 960 696 l 5
 960 668 l 5
 900 668 l 5
 900 696 l 5
800 696 m 5
 860 696 l 5
 860 668 l 5
 800 668 l 5
 800 696 l 5
700 696 m 5
 760 696 l 5
 760 668 l 5
 700 668 l 5
 700 696 l 5
600 696 m 5
 660 696 l 5
 660 668 l 5
 600 668 l 5
 600 696 l 5
600 1378 m 5
 1201 1378 l 5
 1201 1350 l 5
 600 1350 l 5
 600 1378 l 5
600 21 m 5
 1201 21 l 5
 1201 -21 l 5
 600 -21 l 5
 600 21 l 5
0 -668 m 1
 601 -668 l 1
 601 -696 l 1
 0 -696 l 1
 0 -668 l 1
500 696 m 1
 560 696 l 1
 560 668 l 1
 500 668 l 1
 500 696 l 1
400 696 m 1
 460 696 l 1
 460 668 l 1
 400 668 l 1
 400 696 l 1
300 696 m 1
 360 696 l 1
 360 668 l 1
 300 668 l 1
 300 696 l 1
200 696 m 1
 260 696 l 1
 260 668 l 1
 200 668 l 1
 200 696 l 1
100 696 m 1
 160 696 l 1
 160 668 l 1
 100 668 l 1
 100 696 l 1
0 696 m 1
 60 696 l 1
 60 668 l 1
 0 668 l 1
 0 696 l 1
0 1378 m 1
 601 1378 l 1
 601 1350 l 1
 0 1350 l 1
 0 1378 l 1
0 21 m 1
 601 21 l 1
 601 -21 l 1
 0 -21 l 1
 0 21 l 1
EndSplineSet
Fore
SplineSet
519.291992188 683.583984375 m 1,0,1
 344 707 344 707 301.814453125 772.234375 c 1,2,3
 120 794 120 794 120.384765625 909.736328125 c 0,4,5
 121 945 121 945 137.05859375 988.540039062 c 1,6,7
 94 1035 94 1035 94.3154296875 1069.40820312 c 0,8,9
 94 1122 94 1122 191.046875 1151.65625 c 1,10,11
 212 1292 212 1292 361.471679688 1291.95800781 c 0,12,13
 383 1292 383 1292 406.998046875 1289.06347656 c 1,14,15
 472 1364 472 1364 588.508789062 1364.41601562 c 0,16,17
 725 1364 725 1364 802.59765625 1250.94433594 c 1,18,19
 860 1265 860 1265 901.918945312 1264.99804688 c 0,20,21
 1039.61328125 1263.63867188 1039.61328125 1263.63867188 1039.61328125 1120.61425781 c 0,22,23
 1040 1117 1040 1117 1039.82910156 1112.80664062 c 0,24,25
 1039 1101 1039 1101 1038.09667969 1088.71484375 c 1,26,27
 1086 1063 1086 1063 1086.04296875 1015.32617188 c 0,28,29
 1086 970 1086 970 1042.75097656 928.2578125 c 1,30,31
 1047 911 1047 911 1046.01171875 895.479492188 c 0,32,33
 1045 843 1045 843 943.840820312 801 c 0,34,35
 927 794 927 794 909.865234375 793.899414062 c 0,36,37
 893 794 893 794 877.064453125 800.6015625 c 1,38,39
 855 684 855 684 673.428710938 683.583984375 c 1,40,41
 673.428710938 683.583984375 673.428710938 683.583984375 686 -0.583984375 c 1,42,-1
 685.36328125 -0.583984375 l 1,43,44
 694 -22 694 -22 713.907226562 -35.87890625 c 0,45,46
 732 -49 732 -49 759 -55.546875 c 0,47,48
 766 -57 766 -57 788.05859375 -61.2333984375 c 0,49,50
 810 -65 810 -65 821.853515625 -69.1455078125 c 0,51,52
 838 -75 838 -75 849.569335938 -83.66796875 c 0,53,54
 864 -95 864 -95 868 -106.963867188 c 0,55,56
 871 -115 871 -115 874.15234375 -133.241210938 c 0,57,58
 875 -139 875 -139 873.880859375 -160.190429688 c 0,59,60
 873 -177 873 -177 875.221679688 -187.083984375 c 0,61,62
 878 -201 878 -201 885 -212.45703125 c 0,63,64
 893 -225 893 -225 907.751953125 -235.814453125 c 0,65,66
 913 -240 913 -240 936 -254.123046875 c 0,67,68
 971 -276 971 -276 993 -301.994140625 c 0,69,70
 1025 -340 1025 -340 1030 -379.119140625 c 0,71,72
 1033 -403 1033 -403 1024.98925781 -431.115234375 c 0,73,74
 1022 -442 1022 -442 1007 -481.067382812 c 0,75,76
 983 -543 983 -543 985 -596.311523438 c 0,77,78
 987 -640 987 -640 1002 -681.416015625 c 1,79,80
 955 -631 955 -631 961 -559.965820312 c 0,81,82
 963 -532 963 -532 980 -481.067382812 c 0,83,84
 995 -436 995 -436 994.998046875 -408.96484375 c 1,85,86
 958 -414 958 -414 932 -446.493164062 c 0,87,88
 911 -474 911 -474 900 -519.186523438 c 0,89,90
 895 -541 895 -541 892.799804688 -564.3984375 c 1,91,92
 876 -509 876 -509 898.399414062 -456.245117188 c 0,93,94
 912 -423 912 -423 938.399414062 -400.395507812 c 0,95,96
 962 -380 962 -380 989.442382812 -372.19921875 c 1,97,98
 982 -347 982 -347 963 -324.15625 c 0,99,100
 953 -312 953 -312 939.5 -299.77734375 c 0,101,102
 926 -288 926 -288 907 -273.182617188 c 0,103,104
 888 -259 888 -259 880 -251.463867188 c 0,105,106
 854 -229 854 -229 852.56640625 -221.640625 c 0,107,108
 848 -192 848 -192 840 -184.975585938 c 0,109,110
 839 -184 839 -184 839.440429688 -168.62890625 c 0,111,112
 840 -153 840 -153 839.564453125 -152.25 c 0,113,114
 838 -149 838 -149 833 -120.26171875 c 0,115,116
 831 -106 831 -106 805 -92.7802734375 c 1,117,118
 782 -111 782 -111 776 -138.877929688 c 0,119,120
 771 -163 771 -163 783 -194.727539062 c 0,121,122
 787 -205 787 -205 794 -218.663085938 c 0,123,124
 802 -234 802 -234 805 -241.711914062 c 0,125,126
 816 -270 816 -270 814 -291.356445312 c 0,127,128
 813 -305 813 -305 804.5 -329.475585938 c 128,-1,129
 796 -354 796 -354 795 -357.84375 c 0,130,131
 787 -387 787 -387 792 -434.08203125 c 0,132,133
 799 -497 799 -497 793 -535.143554688 c 1,134,135
 788 -519 788 -519 782 -502.342773438 c 0,136,137
 764 -453 764 -453 761.172851562 -442.342773438 c 0,138,139
 753 -410 753 -410 759 -380.005859375 c 0,140,141
 761 -369 761 -369 773.19140625 -334.2890625 c 0,142,143
 781 -313 781 -313 783 -287.809570312 c 0,144,145
 784 -277 784 -277 762.80078125 -223.094726562 c 0,146,147
 762 -221 762 -221 751.745117188 -205.439453125 c 0,148,149
 742 -189 742 -189 737.4140625 -180.836914062 c 0,150,151
 733 -172 733 -172 730 -161.926757812 c 0,152,153
 721 -132 721 -132 732.6875 -109.859375 c 0,154,155
 742 -91 742 -91 759 -79.482421875 c 1,156,157
 680 -61.7529296875 680 -61.7529296875 680 -61.7529296875 c 2,158,159
 659 -57 659 -57 648.037109375 -53.513671875 c 1,160,161
 648 -55 648 -55 644.959960938 -58.47265625 c 0,162,163
 644 -60 644 -60 641 -63.525390625 c 0,164,165
 636 -70 636 -70 631.692382812 -74.435546875 c 0,166,167
 629 -78 629 -78 627.875976562 -79.2353515625 c 0,168,169
 627 -81 627 -81 625.534179688 -83.861328125 c 0,170,171
 625 -87 625 -87 624.229492188 -88.4208984375 c 0,172,173
 624 -91 624 -91 623.984375 -93.3583984375 c 0,174,175
 624 -95 624 -95 625 -98.0986328125 c 128,-1,176
 626 -101 626 -101 627.323242188 -102.64453125 c 0,177,178
 629 -105 629 -105 630.883789062 -106.668945312 c 0,179,180
 633 -108 633 -108 635.092773438 -109.779296875 c 0,181,182
 638 -111 638 -111 640.244140625 -112.380859375 c 0,183,184
 642 -113 642 -113 645.971679688 -114.02734375 c 0,185,186
 652 -116 652 -116 662 -118.48828125 c 0,187,188
 667 -120 667 -120 669.712890625 -121.041992188 c 0,189,190
 673 -122 673 -122 676.184570312 -124.084960938 c 0,191,192
 680 -126 680 -126 682.401367188 -128.307617188 c 0,193,194
 685 -131 685 -131 687.567382812 -133.391601562 c 0,195,196
 692 -139 692 -139 694.2421875 -144.9921875 c 0,197,198
 697 -152 697 -152 697 -159.267578125 c 0,199,200
 697 -164 697 -164 696.290039062 -171.482421875 c 0,201,202
 696 -175 696 -175 694.870117188 -182.694335938 c 0,203,204
 694 -190 694 -190 693.439453125 -194.038085938 c 0,205,206
 692 -206 692 -206 691.915039062 -212.748046875 c 0,207,208
 692 -221 692 -221 693 -228.887695312 c 0,209,210
 694 -237 694 -237 697.568359375 -246.05078125 c 0,211,212
 700 -253 700 -253 706.3515625 -266.943359375 c 0,213,214
 714 -283 714 -283 716.100585938 -289.090820312 c 0,215,216
 720 -298 720 -298 721 -304.653320312 c 0,217,218
 723 -314 723 -314 722.25 -323.712890625 c 0,219,220
 721 -333 721 -333 718 -341.88671875 c 0,221,222
 714 -354 714 -354 701 -366.487304688 c 0,223,224
 689 -377 689 -377 674 -381.779296875 c 1,225,226
 681 -376 681 -376 685.698242188 -367.177734375 c 0,227,228
 690 -359 690 -359 692.44921875 -350.141601562 c 0,229,230
 694 -342 694 -342 694.037109375 -332.884765625 c 0,231,232
 694 -329 694 -329 691 -314.405273438 c 0,233,234
 689 -305 689 -305 686.671875 -302.66015625 c 0,235,236
 686 -302 686 -302 682.5859375 -292.887695312 c 0,237,238
 679 -284 679 -284 677.049804688 -279.4140625 c 0,239,240
 672 -267 672 -267 670.32421875 -260.477539062 c 0,241,242
 668 -251 668 -251 667 -243.485351562 c 0,243,244
 666 -237 666 -237 666.724609375 -229.06640625 c 0,245,246
 667 -226 667 -226 668.095703125 -207.4921875 c 0,247,248
 669 -195 669 -195 668.5703125 -187.102539062 c 0,249,250
 668 -179 668 -179 666 -171.678710938 c 0,251,252
 663 -164 663 -164 658.541992188 -156.883789062 c 0,253,254
 654 -150 654 -150 646.64453125 -145.63671875 c 0,255,256
 639 -141 639 -141 630.708984375 -138.454101562 c 0,257,258
 622 -136 622 -136 613 -137.10546875 c 1,259,260
 606 -151 606 -151 602.5 -167.024414062 c 0,261,262
 599 -182 599 -182 601 -200.046875 c 0,263,264
 602 -209 602 -209 603.75 -218.884765625 c 0,265,266
 606 -228 606 -228 610 -245.2578125 c 0,267,268
 616 -268 616 -268 618.25 -279.388671875 c 0,269,270
 621 -293 621 -293 623 -307.313476562 c 1,271,272
 622 -300 622 -300 619.75 -293.12890625 c 0,273,274
 617 -286 617 -286 614 -278.9453125 c 0,275,276
 612 -275 612 -275 608.625 -269.3046875 c 0,277,278
 607 -267 607 -267 600.5 -256.338867188 c 0,279,280
 596 -250 596 -250 592.875 -244.704101562 c 0,281,282
 589 -240 589 -240 589 -239.052734375 c 0,283,284
 588 -230 588 -230 576.938476562 -213.649414062 c 0,285,286
 569 -202 569 -202 571.336914062 -187.620117188 c 0,287,288
 574 -170 574 -170 571.33984375 -166.737304688 c 0,289,290
 571 -166 571 -166 574 -133.55859375 c 0,291,292
 576 -112 576 -112 575.673828125 -101.447265625 c 0,293,294
 576 -87 576 -87 573.594726562 -75.1025390625 c 0,295,296
 572 -67 572 -67 569.940429688 -58.998046875 c 128,-1,297
 568 -51 568 -51 564.524414062 -43.5888671875 c 1,298,299
 564 -44 564 -44 562.890625 -44.4462890625 c 0,300,301
 562 -45 562 -45 561.219726562 -45.283203125 c 0,302,303
 555 -48 555 -48 545.318359375 -51.5166015625 c 0,304,305
 537 -55 537 -55 522.463867188 -58.0478515625 c 1,306,307
 534 -81 534 -81 537.098632812 -106.129882812 c 0,308,309
 540 -131 540 -131 535 -159.267578125 c 0,310,311
 533 -169 533 -169 530 -180.764648438 c 0,312,313
 527 -191 527 -191 521 -209.797851562 c 0,314,315
 515 -229 515 -229 512 -237.944335938 c 0,316,317
 509 -248 509 -248 507 -256.782226562 c 0,318,319
 505 -266 505 -266 503.776367188 -274.009765625 c 0,320,321
 503 -282 503 -282 502.2578125 -290.387695312 c 1,322,323
 521 -294 521 -294 538.698242188 -301.655273438 c 0,324,325
 557 -309 557 -309 572 -319.723632812 c 0,326,327
 588 -331 588 -331 601 -345.2109375 c 0,328,329
 613 -359 613 -359 622 -375.573242188 c 0,330,331
 636 -402 636 -402 637.75 -429.20703125 c 0,332,333
 640 -457 640 -457 629 -483.7265625 c 1,334,335
 627 -472 627 -472 625.25 -460.899414062 c 0,336,337
 623 -449 623 -449 620 -438.514648438 c 0,338,339
 614 -416 614 -416 603.5 -397.736328125 c 0,340,341
 593 -379 593 -379 580 -365.822265625 c 0,342,343
 565 -351 565 -351 546.247070312 -341.135742188 c 0,344,345
 527 -331 527 -331 506.03125 -328.920898438 c 1,346,347
 508 -335 508 -335 509.473632812 -341.072265625 c 128,-1,348
 511 -347 511 -347 514 -353.411132812 c 0,349,350
 516 -358 516 -358 518.108398438 -362.83984375 c 0,351,352
 520 -368 520 -368 524.022460938 -375.3984375 c 0,353,354
 529 -386 529 -386 529.740234375 -387.359375 c 0,355,356
 532 -392 532 -392 533.258789062 -394.994140625 c 0,357,358
 541 -417 541 -417 541.577148438 -418.055664062 c 0,359,360
 543 -420 543 -420 545 -438.514648438 c 0,361,362
 546 -449 546 -449 543.333984375 -459.984375 c 0,363,364
 541 -470 541 -470 536.116210938 -480.725585938 c 0,365,366
 532 -490 532 -490 524.927734375 -498.666015625 c 0,367,368
 518 -508 518 -508 509 -516.52734375 c 0,369,370
 503 -523 503 -523 493.625 -530.157226562 c 0,371,372
 486 -537 486 -537 471.5 -547.998046875 c 0,373,374
 453 -563 453 -563 449.625 -565.395507812 c 0,375,376
 441 -572 441 -572 435 -577.6953125 c 0,377,378
 411 -599 411 -599 396 -623.350585938 c 0,379,380
 382 -647 382 -647 375 -673.4375 c 1,381,382
 373 -658 373 -658 375.69140625 -643.6484375 c 0,383,384
 378 -629 378 -629 383.985351562 -614.48046875 c 0,385,386
 390 -602 390 -602 398.158203125 -588.80859375 c 0,387,388
 406 -577 406 -577 419 -563.51171875 c 0,389,390
 424 -558 424 -558 429 -553.427734375 c 0,391,392
 433 -549 433 -549 443 -540.905273438 c 0,393,394
 452 -533 452 -533 458 -527.497070312 c 0,395,396
 465 -521 465 -521 471 -514.75390625 c 0,397,398
 477 -509 477 -509 482 -502.342773438 c 0,399,400
 487 -496 487 -496 491 -489.931640625 c 0,401,402
 498 -479 498 -479 501.750976562 -469.2265625 c 0,403,404
 506 -459 506 -459 507.177734375 -448.008789062 c 0,405,406
 509 -438 509 -438 507.2578125 -426.317382812 c 0,407,408
 506 -415 506 -415 502 -403.94140625 c 0,409,410
 500 -397 500 -397 495.20703125 -388.17578125 c 0,411,412
 493 -384 493 -384 483.024414062 -364.368164062 c 0,413,414
 476 -351 476 -351 472.3515625 -342.313476562 c 0,415,416
 468 -333 468 -333 466 -324.15625 c 0,417,418
 463 -313 463 -313 462.661132812 -300.87890625 c 0,419,420
 462 -289 462 -289 464.40625 -276.533203125 c 0,421,422
 465 -272 465 -272 466.576171875 -266.479492188 c 0,423,424
 468 -260 468 -260 470.005859375 -254.188476562 c 1,425,426
 425 -259 425 -259 394 -291.356445312 c 0,427,428
 367 -318 367 -318 354 -364.048828125 c 0,429,430
 348 -386 348 -386 345 -409.260742188 c 1,431,432
 324 -354 324 -354 352 -301.107421875 c 0,433,434
 370 -266 370 -266 402 -245.2578125 c 0,435,436
 439 -220 439 -220 483.721679688 -213.700195312 c 1,437,438
 492 -189 492 -189 495.831054688 -162.913085938 c 0,439,440
 499 -141 499 -141 497 -121.1484375 c 0,441,442
 496 -108 496 -108 491.586914062 -93.5830078125 c 0,443,444
 488 -80 488 -80 481.724609375 -67.4267578125 c 1,445,446
 468 -69 468 -69 453.6796875 -73.580078125 c 0,447,448
 452 -74 452 -74 443.525390625 -75.720703125 c 0,449,450
 435 -78 435 -78 430 -78.595703125 c 0,451,452
 413 -83 413 -83 403.8203125 -84.873046875 c 0,453,454
 393 -87 393 -87 385.80859375 -91.2451171875 c 0,455,456
 375 -96 375 -96 366.557617188 -103.706054688 c 0,457,458
 358 -111 358 -111 354 -120.26171875 c 0,459,460
 353 -123 353 -123 349.225585938 -134.586914062 c 0,461,462
 346 -147 346 -147 347.435546875 -152.25 c 0,463,464
 348 -155 348 -155 347.4609375 -156.711914062 c 0,465,466
 347 -157 347 -157 347.48828125 -161.674804688 c 0,467,468
 348 -166 348 -166 347.559570312 -168.62890625 c 0,469,470
 346 -177 346 -177 347.48828125 -180.536132812 c 0,471,472
 348 -182 348 -182 347 -184.975585938 c 0,473,474
 345 -193 345 -193 342.859375 -204.181640625 c 0,475,476
 342 -208 342 -208 334.43359375 -221.640625 c 0,477,478
 330 -229 330 -229 323 -236.276367188 c 0,479,480
 317 -243 317 -243 307 -251.463867188 c 0,481,482
 302 -256 302 -256 296.25 -260.439453125 c 0,483,484
 292 -264 292 -264 280 -273.182617188 c 0,485,486
 270 -282 270 -282 262.375 -287.145507812 c 0,487,488
 254 -294 254 -294 247.5 -299.77734375 c 0,489,490
 240 -306 240 -306 234.875 -311.856445312 c 0,491,492
 229 -318 229 -318 224 -324.15625 c 0,493,494
 216 -334 216 -334 210.59765625 -343.368164062 c 0,495,496
 205 -353 205 -353 200.809570312 -363.080078125 c 1,497,498
 223 -368 223 -368 241.678710938 -381.484375 c 0,499,500
 268 -401 268 -401 279 -426.103515625 c 0,501,502
 283 -435 283 -435 296.909179688 -470.80078125 c 0,503,504
 307 -498 307 -498 319 -513.8671875 c 0,505,506
 343 -546 343 -546 382 -553.759765625 c 1,507,508
 339 -561 339 -561 304 -535.143554688 c 0,509,510
 290 -525 290 -525 279.646484375 -508.500976562 c 0,511,512
 272 -496 272 -496 265 -476.634765625 c 0,513,514
 256 -450 256 -450 252.255859375 -443.041015625 c 0,515,516
 243 -425 243 -425 229 -414.579101562 c 0,517,518
 212 -402 212 -402 198 -400.395507812 c 0,519,520
 195 -400 195 -400 192.359375 -399.024414062 c 1,521,522
 192 -401 192 -401 192.08984375 -403.686523438 c 0,523,524
 192 -406 192 -406 192 -408.374023438 c 0,525,526
 192 -423 192 -423 195.75 -439.844726562 c 0,527,528
 199 -455 199 -455 207 -481.067382812 c 0,529,530
 218 -516 218 -516 220.25 -526.5 c 0,531,532
 225 -552 225 -552 226 -559.965820312 c 0,533,534
 230 -592 230 -592 218.75 -625.788085938 c 0,535,536
 208 -657 208 -657 185 -681.416015625 c 1,537,538
 192 -660 192 -660 196.75 -639.307617188 c 0,539,540
 201 -618 201 -618 202 -596.311523438 c 0,541,542
 203 -569 203 -569 197.5 -540.905273438 c 0,543,544
 195 -529 195 -529 180 -481.067382812 c 0,545,546
 178 -475 178 -475 173.737304688 -464.252929688 c 0,547,548
 170 -454 170 -454 168.037109375 -449.081054688 c 0,549,550
 164 -439 164 -439 162.010742188 -431.115234375 c 0,551,552
 158 -417 158 -417 156.846679688 -404.1015625 c 0,553,554
 156 -391 156 -391 157 -379.119140625 c 0,555,556
 159 -361 159 -361 168.75 -340.334960938 c 0,557,558
 179 -320 179 -320 194 -301.994140625 c 0,559,560
 210 -283 210 -283 219.25 -277.171875 c 0,561,562
 233 -268 233 -268 251 -254.123046875 c 0,563,564
 255 -251 255 -251 261.012695312 -247.75 c 0,565,566
 268 -243 268 -243 269.4296875 -242.4375 c 0,567,568
 275 -239 275 -239 279.248046875 -235.814453125 c 0,569,570
 287 -230 287 -230 292.376953125 -224.451171875 c 0,571,572
 298 -219 298 -219 302 -212.45703125 c 0,573,574
 306 -207 306 -207 308.083984375 -200.421875 c 0,575,576
 311 -194 311 -194 311.778320312 -187.083984375 c 0,577,578
 313 -181 313 -181 313.044921875 -175.151367188 c 0,579,580
 313 -170 313 -170 313.119140625 -160.190429688 c 0,581,582
 313 -157 313 -157 312.920898438 -151.920898438 c 0,583,584
 313 -146 313 -146 312.720703125 -143.016601562 c 0,585,586
 313 -137 313 -137 312.84765625 -133.241210938 c 0,587,588
 313 -126 313 -126 314.862304688 -119.231445312 c 0,589,590
 316 -112 316 -112 319 -106.963867188 c 0,591,592
 322 -100 322 -100 326.698242188 -94.3671875 c 0,593,594
 331 -88 331 -88 337.430664062 -83.66796875 c 0,595,596
 343 -79 343 -79 350.006835938 -75.5439453125 c 0,597,598
 362 -70 362 -70 365.146484375 -69.1455078125 c 0,599,600
 371 -68 371 -68 379.37109375 -65.220703125 c 0,601,602
 386 -63 386 -63 398.942382812 -61.232421875 c 0,603,604
 401 -61 401 -61 407.322265625 -59.6787109375 c 0,605,606
 414 -58 414 -58 417.329101562 -57.80078125 c 0,607,608
 424 -56 424 -56 428 -55.546875 c 0,609,610
 441 -53 441 -53 452.84765625 -47.3125 c 0,611,612
 465 -42 465 -42 473.092773438 -35.87890625 c 0,613,614
 480 -31 480 -31 490.454101562 -19.47265625 c 0,615,616
 503 -6 503 -6 508.12890625 -0.583984375 c 1,617,618
 508.12890625 -0.583984375 508.12890625 -0.583984375 508 -0.583984375 c 0,619,-1
 519.291992188 683.583984375 l 1,0,1
200.809570312 -363.080078125 m 1025,620,-1
200.749023438 -363.06640625 m 1025,621,-1
EndSplineSet
Validated: 37
EndChar

StartChar: p
Encoding: 112 112 49
Width: 600
Flags: W
LayerCount: 3
Back
SplineSet
0 -668 m 5
 601 -668 l 5
 601 -696 l 5
 0 -696 l 5
 0 -668 l 5
500 696 m 5
 560 696 l 5
 560 668 l 5
 500 668 l 5
 500 696 l 5
400 696 m 5
 460 696 l 5
 460 668 l 5
 400 668 l 5
 400 696 l 5
300 696 m 5
 360 696 l 5
 360 668 l 5
 300 668 l 5
 300 696 l 5
200 696 m 5
 260 696 l 5
 260 668 l 5
 200 668 l 5
 200 696 l 5
100 696 m 5
 160 696 l 5
 160 668 l 5
 100 668 l 5
 100 696 l 5
0 696 m 5
 60 696 l 5
 60 668 l 5
 0 668 l 5
 0 696 l 5
0 1378 m 5
 601 1378 l 5
 601 1350 l 5
 0 1350 l 5
 0 1378 l 5
0 21 m 5
 601 21 l 5
 601 -21 l 5
 0 -21 l 5
 0 21 l 5
EndSplineSet
Fore
Validated: 1
EndChar

StartChar: comma
Encoding: 44 44 50
Width: 178
VWidth: 1540
Flags: W
LayerCount: 3
Back
SplineSet
-42.58984375 -54.166015625 m 29
 -30.88671875 -42.4619140625 -6.4169921875 -17.9931640625 11.669921875 0.09375 c 5
 -6.4169921875 18.0869140625 -30.88671875 42.556640625 -42.58984375 54.259765625 c 1053
EndSplineSet
Fore
Validated: 1
EndChar

StartChar: s
Encoding: 115 115 51
Width: 600
Flags: W
LayerCount: 3
Back
SplineSet
574.928710938 341 m 5
 582 348.071289062 l 5
 589.071289062 341 l 5
 582 333.928710938 l 5
 574.928710938 341 l 5
549.928710938 341 m 5
 557 348.071289062 l 5
 564.071289062 341 l 5
 557 333.928710938 l 5
 549.928710938 341 l 5
524.928710938 341 m 5
 532 348.071289062 l 5
 539.071289062 341 l 5
 532 333.928710938 l 5
 524.928710938 341 l 5
499.928710938 341 m 5
 507 348.071289062 l 5
 514.071289062 341 l 5
 507 333.928710938 l 5
 499.928710938 341 l 5
474.928710938 341 m 5
 482 348.071289062 l 5
 489.071289062 341 l 5
 482 333.928710938 l 5
 474.928710938 341 l 5
449.928710938 341 m 5
 457 348.071289062 l 5
 464.071289062 341 l 5
 457 333.928710938 l 5
 449.928710938 341 l 5
424.928710938 341 m 5
 432 348.071289062 l 5
 439.071289062 341 l 5
 432 333.928710938 l 5
 424.928710938 341 l 5
399.928710938 341 m 5
 407 348.071289062 l 5
 414.071289062 341 l 5
 407 333.928710938 l 5
 399.928710938 341 l 5
374.928710938 341 m 5
 382 348.071289062 l 5
 389.071289062 341 l 5
 382 333.928710938 l 5
 374.928710938 341 l 5
349.928710938 341 m 5
 357 348.071289062 l 5
 364.071289062 341 l 5
 357 333.928710938 l 5
 349.928710938 341 l 5
324.928710938 341 m 5
 332 348.071289062 l 5
 339.071289062 341 l 5
 332 333.928710938 l 5
 324.928710938 341 l 5
299.928710938 341 m 5
 307 348.071289062 l 5
 314.071289062 341 l 5
 307 333.928710938 l 5
 299.928710938 341 l 5
274.928710938 341 m 5
 282 348.071289062 l 5
 289.071289062 341 l 5
 282 333.928710938 l 5
 274.928710938 341 l 5
249.928710938 341 m 5
 257 348.071289062 l 5
 264.071289062 341 l 5
 257 333.928710938 l 5
 249.928710938 341 l 5
224.928710938 341 m 5
 232 348.071289062 l 5
 239.071289062 341 l 5
 232 333.928710938 l 5
 224.928710938 341 l 5
199.928710938 341 m 5
 207 348.071289062 l 5
 214.071289062 341 l 5
 207 333.928710938 l 5
 199.928710938 341 l 5
174.928710938 341 m 5
 182 348.071289062 l 5
 189.071289062 341 l 5
 182 333.928710938 l 5
 174.928710938 341 l 5
149.928710938 341 m 5
 157 348.071289062 l 5
 164.071289062 341 l 5
 157 333.928710938 l 5
 149.928710938 341 l 5
124.928710938 341 m 5
 132 348.071289062 l 5
 139.071289062 341 l 5
 132 333.928710938 l 5
 124.928710938 341 l 5
99.9287109375 341 m 5
 107 348.071289062 l 5
 114.071289062 341 l 5
 107 333.928710938 l 5
 99.9287109375 341 l 5
74.9287109375 341 m 5
 82 348.071289062 l 5
 89.0712890625 341 l 5
 82 333.928710938 l 5
 74.9287109375 341 l 5
49.9287109375 341 m 5
 57 348.071289062 l 5
 64.0712890625 341 l 5
 57 333.928710938 l 5
 49.9287109375 341 l 5
24.9287109375 341 m 5
 32 348.071289062 l 5
 39.0712890625 341 l 5
 32 333.928710938 l 5
 24.9287109375 341 l 5
-0.0712890625 341 m 5
 7 348.071289062 l 5
 14.0712890625 341 l 5
 7 333.928710938 l 5
 -0.0712890625 341 l 5
585 -682 m 128
 585 -678.666992188 586.666992188 -677 590 -677 c 128
 593.333007812 -677 595 -678.666992188 595 -682 c 128
 595 -685.333007812 593.333007812 -687 590 -687 c 128
 586.666992188 -687 585 -685.333007812 585 -682 c 128
570 -682 m 128
 570 -678.666992188 571.666992188 -677 575 -677 c 128
 578.333007812 -677 580 -678.666992188 580 -682 c 128
 580 -685.333007812 578.333007812 -687 575 -687 c 128
 571.666992188 -687 570 -685.333007812 570 -682 c 128
555 -682 m 128
 555 -678.666992188 556.666992188 -677 560 -677 c 128
 563.333007812 -677 565 -678.666992188 565 -682 c 128
 565 -685.333007812 563.333007812 -687 560 -687 c 128
 556.666992188 -687 555 -685.333007812 555 -682 c 128
540 -682 m 128
 540 -678.666992188 541.666992188 -677 545 -677 c 128
 548.333007812 -677 550 -678.666992188 550 -682 c 128
 550 -685.333007812 548.333007812 -687 545 -687 c 128
 541.666992188 -687 540 -685.333007812 540 -682 c 128
525 -682 m 128
 525 -678.666992188 526.666992188 -677 530 -677 c 128
 533.333007812 -677 535 -678.666992188 535 -682 c 128
 535 -685.333007812 533.333007812 -687 530 -687 c 128
 526.666992188 -687 525 -685.333007812 525 -682 c 128
510 -682 m 128
 510 -678.666992188 511.666992188 -677 515 -677 c 128
 518.333007812 -677 520 -678.666992188 520 -682 c 128
 520 -685.333007812 518.333007812 -687 515 -687 c 128
 511.666992188 -687 510 -685.333007812 510 -682 c 128
495 -682 m 128
 495 -678.666992188 496.666992188 -677 500 -677 c 128
 503.333007812 -677 505 -678.666992188 505 -682 c 128
 505 -685.333007812 503.333007812 -687 500 -687 c 128
 496.666992188 -687 495 -685.333007812 495 -682 c 128
480 -682 m 128
 480 -678.666992188 481.666992188 -677 485 -677 c 128
 488.333007812 -677 490 -678.666992188 490 -682 c 128
 490 -685.333007812 488.333007812 -687 485 -687 c 128
 481.666992188 -687 480 -685.333007812 480 -682 c 128
465 -682 m 128
 465 -678.666992188 466.666992188 -677 470 -677 c 128
 473.333007812 -677 475 -678.666992188 475 -682 c 128
 475 -685.333007812 473.333007812 -687 470 -687 c 128
 466.666992188 -687 465 -685.333007812 465 -682 c 128
450 -682 m 128
 450 -678.666992188 451.666992188 -677 455 -677 c 128
 458.333007812 -677 460 -678.666992188 460 -682 c 128
 460 -685.333007812 458.333007812 -687 455 -687 c 128
 451.666992188 -687 450 -685.333007812 450 -682 c 128
435 -682 m 128
 435 -678.666992188 436.666992188 -677 440 -677 c 128
 443.333007812 -677 445 -678.666992188 445 -682 c 128
 445 -685.333007812 443.333007812 -687 440 -687 c 128
 436.666992188 -687 435 -685.333007812 435 -682 c 128
420 -682 m 128
 420 -678.666992188 421.666992188 -677 425 -677 c 128
 428.333007812 -677 430 -678.666992188 430 -682 c 128
 430 -685.333007812 428.333007812 -687 425 -687 c 128
 421.666992188 -687 420 -685.333007812 420 -682 c 128
405 -682 m 128
 405 -678.666992188 406.666992188 -677 410 -677 c 128
 413.333007812 -677 415 -678.666992188 415 -682 c 128
 415 -685.333007812 413.333007812 -687 410 -687 c 128
 406.666992188 -687 405 -685.333007812 405 -682 c 128
390 -682 m 128
 390 -678.666992188 391.666992188 -677 395 -677 c 128
 398.333007812 -677 400 -678.666992188 400 -682 c 128
 400 -685.333007812 398.333007812 -687 395 -687 c 128
 391.666992188 -687 390 -685.333007812 390 -682 c 128
375 -682 m 128
 375 -678.666992188 376.666992188 -677 380 -677 c 128
 383.333007812 -677 385 -678.666992188 385 -682 c 128
 385 -685.333007812 383.333007812 -687 380 -687 c 128
 376.666992188 -687 375 -685.333007812 375 -682 c 128
360 -682 m 128
 360 -678.666992188 361.666992188 -677 365 -677 c 128
 368.333007812 -677 370 -678.666992188 370 -682 c 128
 370 -685.333007812 368.333007812 -687 365 -687 c 128
 361.666992188 -687 360 -685.333007812 360 -682 c 128
345 -682 m 128
 345 -678.666992188 346.666992188 -677 350 -677 c 128
 353.333007812 -677 355 -678.666992188 355 -682 c 128
 355 -685.333007812 353.333007812 -687 350 -687 c 128
 346.666992188 -687 345 -685.333007812 345 -682 c 128
330 -682 m 128
 330 -678.666992188 331.666992188 -677 335 -677 c 128
 338.333007812 -677 340 -678.666992188 340 -682 c 128
 340 -685.333007812 338.333007812 -687 335 -687 c 128
 331.666992188 -687 330 -685.333007812 330 -682 c 128
315 -682 m 128
 315 -678.666992188 316.666992188 -677 320 -677 c 128
 323.333007812 -677 325 -678.666992188 325 -682 c 128
 325 -685.333007812 323.333007812 -687 320 -687 c 128
 316.666992188 -687 315 -685.333007812 315 -682 c 128
300 -682 m 128
 300 -678.666992188 301.666992188 -677 305 -677 c 128
 308.333007812 -677 310 -678.666992188 310 -682 c 128
 310 -685.333007812 308.333007812 -687 305 -687 c 128
 301.666992188 -687 300 -685.333007812 300 -682 c 128
285 -682 m 128
 285 -678.666992188 286.666992188 -677 290 -677 c 128
 293.333007812 -677 295 -678.666992188 295 -682 c 128
 295 -685.333007812 293.333007812 -687 290 -687 c 128
 286.666992188 -687 285 -685.333007812 285 -682 c 128
270 -682 m 128
 270 -678.666992188 271.666992188 -677 275 -677 c 128
 278.333007812 -677 280 -678.666992188 280 -682 c 128
 280 -685.333007812 278.333007812 -687 275 -687 c 128
 271.666992188 -687 270 -685.333007812 270 -682 c 128
255 -682 m 128
 255 -678.666992188 256.666992188 -677 260 -677 c 128
 263.333007812 -677 265 -678.666992188 265 -682 c 128
 265 -685.333007812 263.333007812 -687 260 -687 c 128
 256.666992188 -687 255 -685.333007812 255 -682 c 128
240 -682 m 128
 240 -678.666992188 241.666992188 -677 245 -677 c 128
 248.333007812 -677 250 -678.666992188 250 -682 c 128
 250 -685.333007812 248.333007812 -687 245 -687 c 128
 241.666992188 -687 240 -685.333007812 240 -682 c 128
225 -682 m 128
 225 -678.666992188 226.666992188 -677 230 -677 c 128
 233.333007812 -677 235 -678.666992188 235 -682 c 128
 235 -685.333007812 233.333007812 -687 230 -687 c 128
 226.666992188 -687 225 -685.333007812 225 -682 c 128
210 -682 m 128
 210 -678.666992188 211.666992188 -677 215 -677 c 128
 218.333007812 -677 220 -678.666992188 220 -682 c 128
 220 -685.333007812 218.333007812 -687 215 -687 c 128
 211.666992188 -687 210 -685.333007812 210 -682 c 128
195 -682 m 128
 195 -678.666992188 196.666992188 -677 200 -677 c 128
 203.333007812 -677 205 -678.666992188 205 -682 c 128
 205 -685.333007812 203.333007812 -687 200 -687 c 128
 196.666992188 -687 195 -685.333007812 195 -682 c 128
180 -682 m 128
 180 -678.666992188 181.666992188 -677 185 -677 c 128
 188.333007812 -677 190 -678.666992188 190 -682 c 128
 190 -685.333007812 188.333007812 -687 185 -687 c 128
 181.666992188 -687 180 -685.333007812 180 -682 c 128
165 -682 m 128
 165 -678.666992188 166.666992188 -677 170 -677 c 128
 173.333007812 -677 175 -678.666992188 175 -682 c 128
 175 -685.333007812 173.333007812 -687 170 -687 c 128
 166.666992188 -687 165 -685.333007812 165 -682 c 128
150 -682 m 128
 150 -678.666992188 151.666992188 -677 155 -677 c 128
 158.333007812 -677 160 -678.666992188 160 -682 c 128
 160 -685.333007812 158.333007812 -687 155 -687 c 128
 151.666992188 -687 150 -685.333007812 150 -682 c 128
135 -682 m 128
 135 -678.666992188 136.666992188 -677 140 -677 c 128
 143.333007812 -677 145 -678.666992188 145 -682 c 128
 145 -685.333007812 143.333007812 -687 140 -687 c 128
 136.666992188 -687 135 -685.333007812 135 -682 c 128
120 -682 m 128
 120 -678.666992188 121.666992188 -677 125 -677 c 128
 128.333007812 -677 130 -678.666992188 130 -682 c 128
 130 -685.333007812 128.333007812 -687 125 -687 c 128
 121.666992188 -687 120 -685.333007812 120 -682 c 128
105 -682 m 128
 105 -678.666992188 106.666992188 -677 110 -677 c 128
 113.333007812 -677 115 -678.666992188 115 -682 c 128
 115 -685.333007812 113.333007812 -687 110 -687 c 128
 106.666992188 -687 105 -685.333007812 105 -682 c 128
90 -682 m 128
 90 -678.666992188 91.6669921875 -677 95 -677 c 128
 98.3330078125 -677 100 -678.666992188 100 -682 c 128
 100 -685.333007812 98.3330078125 -687 95 -687 c 128
 91.6669921875 -687 90 -685.333007812 90 -682 c 128
75 -682 m 128
 75 -678.666992188 76.6669921875 -677 80 -677 c 128
 83.3330078125 -677 85 -678.666992188 85 -682 c 128
 85 -685.333007812 83.3330078125 -687 80 -687 c 128
 76.6669921875 -687 75 -685.333007812 75 -682 c 128
60 -682 m 128
 60 -678.666992188 61.6669921875 -677 65 -677 c 128
 68.3330078125 -677 70 -678.666992188 70 -682 c 128
 70 -685.333007812 68.3330078125 -687 65 -687 c 128
 61.6669921875 -687 60 -685.333007812 60 -682 c 128
45 -682 m 128
 45 -678.666992188 46.6669921875 -677 50 -677 c 128
 53.3330078125 -677 55 -678.666992188 55 -682 c 128
 55 -685.333007812 53.3330078125 -687 50 -687 c 128
 46.6669921875 -687 45 -685.333007812 45 -682 c 128
30 -682 m 128
 30 -678.666992188 31.6669921875 -677 35 -677 c 128
 38.3330078125 -677 40 -678.666992188 40 -682 c 128
 40 -685.333007812 38.3330078125 -687 35 -687 c 128
 31.6669921875 -687 30 -685.333007812 30 -682 c 128
15 -682 m 128
 15 -678.666992188 16.6669921875 -677 20 -677 c 128
 23.3330078125 -677 25 -678.666992188 25 -682 c 128
 25 -685.333007812 23.3330078125 -687 20 -687 c 128
 16.6669921875 -687 15 -685.333007812 15 -682 c 128
0 -682 m 128
 0 -678.666992188 1.6669921875 -677 5 -677 c 128
 8.3330078125 -677 10 -678.666992188 10 -682 c 128
 10 -685.333007812 8.3330078125 -687 5 -687 c 128
 1.6669921875 -687 0 -685.333007812 0 -682 c 128
585 1364 m 128
 585 1367.33300781 586.666992188 1369 590 1369 c 128
 593.333007812 1369 595 1367.33300781 595 1364 c 128
 595 1360.66699219 593.333007812 1359 590 1359 c 128
 586.666992188 1359 585 1360.66699219 585 1364 c 128
570 1364 m 128
 570 1367.33300781 571.666992188 1369 575 1369 c 128
 578.333007812 1369 580 1367.33300781 580 1364 c 128
 580 1360.66699219 578.333007812 1359 575 1359 c 128
 571.666992188 1359 570 1360.66699219 570 1364 c 128
555 1364 m 128
 555 1367.33300781 556.666992188 1369 560 1369 c 128
 563.333007812 1369 565 1367.33300781 565 1364 c 128
 565 1360.66699219 563.333007812 1359 560 1359 c 128
 556.666992188 1359 555 1360.66699219 555 1364 c 128
540 1364 m 128
 540 1367.33300781 541.666992188 1369 545 1369 c 128
 548.333007812 1369 550 1367.33300781 550 1364 c 128
 550 1360.66699219 548.333007812 1359 545 1359 c 128
 541.666992188 1359 540 1360.66699219 540 1364 c 128
525 1364 m 128
 525 1367.33300781 526.666992188 1369 530 1369 c 128
 533.333007812 1369 535 1367.33300781 535 1364 c 128
 535 1360.66699219 533.333007812 1359 530 1359 c 128
 526.666992188 1359 525 1360.66699219 525 1364 c 128
510 1364 m 128
 510 1367.33300781 511.666992188 1369 515 1369 c 128
 518.333007812 1369 520 1367.33300781 520 1364 c 128
 520 1360.66699219 518.333007812 1359 515 1359 c 128
 511.666992188 1359 510 1360.66699219 510 1364 c 128
495 1364 m 128
 495 1367.33300781 496.666992188 1369 500 1369 c 128
 503.333007812 1369 505 1367.33300781 505 1364 c 128
 505 1360.66699219 503.333007812 1359 500 1359 c 128
 496.666992188 1359 495 1360.66699219 495 1364 c 128
480 1364 m 128
 480 1367.33300781 481.666992188 1369 485 1369 c 128
 488.333007812 1369 490 1367.33300781 490 1364 c 128
 490 1360.66699219 488.333007812 1359 485 1359 c 128
 481.666992188 1359 480 1360.66699219 480 1364 c 128
465 1364 m 128
 465 1367.33300781 466.666992188 1369 470 1369 c 128
 473.333007812 1369 475 1367.33300781 475 1364 c 128
 475 1360.66699219 473.333007812 1359 470 1359 c 128
 466.666992188 1359 465 1360.66699219 465 1364 c 128
450 1364 m 128
 450 1367.33300781 451.666992188 1369 455 1369 c 128
 458.333007812 1369 460 1367.33300781 460 1364 c 128
 460 1360.66699219 458.333007812 1359 455 1359 c 128
 451.666992188 1359 450 1360.66699219 450 1364 c 128
435 1364 m 128
 435 1367.33300781 436.666992188 1369 440 1369 c 128
 443.333007812 1369 445 1367.33300781 445 1364 c 128
 445 1360.66699219 443.333007812 1359 440 1359 c 128
 436.666992188 1359 435 1360.66699219 435 1364 c 128
420 1364 m 128
 420 1367.33300781 421.666992188 1369 425 1369 c 128
 428.333007812 1369 430 1367.33300781 430 1364 c 128
 430 1360.66699219 428.333007812 1359 425 1359 c 128
 421.666992188 1359 420 1360.66699219 420 1364 c 128
405 1364 m 128
 405 1367.33300781 406.666992188 1369 410 1369 c 128
 413.333007812 1369 415 1367.33300781 415 1364 c 128
 415 1360.66699219 413.333007812 1359 410 1359 c 128
 406.666992188 1359 405 1360.66699219 405 1364 c 128
390 1364 m 128
 390 1367.33300781 391.666992188 1369 395 1369 c 128
 398.333007812 1369 400 1367.33300781 400 1364 c 128
 400 1360.66699219 398.333007812 1359 395 1359 c 128
 391.666992188 1359 390 1360.66699219 390 1364 c 128
375 1364 m 128
 375 1367.33300781 376.666992188 1369 380 1369 c 128
 383.333007812 1369 385 1367.33300781 385 1364 c 128
 385 1360.66699219 383.333007812 1359 380 1359 c 128
 376.666992188 1359 375 1360.66699219 375 1364 c 128
360 1364 m 128
 360 1367.33300781 361.666992188 1369 365 1369 c 128
 368.333007812 1369 370 1367.33300781 370 1364 c 128
 370 1360.66699219 368.333007812 1359 365 1359 c 128
 361.666992188 1359 360 1360.66699219 360 1364 c 128
345 1364 m 128
 345 1367.33300781 346.666992188 1369 350 1369 c 128
 353.333007812 1369 355 1367.33300781 355 1364 c 128
 355 1360.66699219 353.333007812 1359 350 1359 c 128
 346.666992188 1359 345 1360.66699219 345 1364 c 128
330 1364 m 128
 330 1367.33300781 331.666992188 1369 335 1369 c 128
 338.333007812 1369 340 1367.33300781 340 1364 c 128
 340 1360.66699219 338.333007812 1359 335 1359 c 128
 331.666992188 1359 330 1360.66699219 330 1364 c 128
315 1364 m 128
 315 1367.33300781 316.666992188 1369 320 1369 c 128
 323.333007812 1369 325 1367.33300781 325 1364 c 128
 325 1360.66699219 323.333007812 1359 320 1359 c 128
 316.666992188 1359 315 1360.66699219 315 1364 c 128
300 1364 m 128
 300 1367.33300781 301.666992188 1369 305 1369 c 128
 308.333007812 1369 310 1367.33300781 310 1364 c 128
 310 1360.66699219 308.333007812 1359 305 1359 c 128
 301.666992188 1359 300 1360.66699219 300 1364 c 128
285 1364 m 128
 285 1367.33300781 286.666992188 1369 290 1369 c 128
 293.333007812 1369 295 1367.33300781 295 1364 c 128
 295 1360.66699219 293.333007812 1359 290 1359 c 128
 286.666992188 1359 285 1360.66699219 285 1364 c 128
270 1364 m 128
 270 1367.33300781 271.666992188 1369 275 1369 c 128
 278.333007812 1369 280 1367.33300781 280 1364 c 128
 280 1360.66699219 278.333007812 1359 275 1359 c 128
 271.666992188 1359 270 1360.66699219 270 1364 c 128
255 1364 m 128
 255 1367.33300781 256.666992188 1369 260 1369 c 128
 263.333007812 1369 265 1367.33300781 265 1364 c 128
 265 1360.66699219 263.333007812 1359 260 1359 c 128
 256.666992188 1359 255 1360.66699219 255 1364 c 128
240 1364 m 128
 240 1367.33300781 241.666992188 1369 245 1369 c 128
 248.333007812 1369 250 1367.33300781 250 1364 c 128
 250 1360.66699219 248.333007812 1359 245 1359 c 128
 241.666992188 1359 240 1360.66699219 240 1364 c 128
225 1364 m 128
 225 1367.33300781 226.666992188 1369 230 1369 c 128
 233.333007812 1369 235 1367.33300781 235 1364 c 128
 235 1360.66699219 233.333007812 1359 230 1359 c 128
 226.666992188 1359 225 1360.66699219 225 1364 c 128
210 1364 m 128
 210 1367.33300781 211.666992188 1369 215 1369 c 128
 218.333007812 1369 220 1367.33300781 220 1364 c 128
 220 1360.66699219 218.333007812 1359 215 1359 c 128
 211.666992188 1359 210 1360.66699219 210 1364 c 128
195 1364 m 128
 195 1367.33300781 196.666992188 1369 200 1369 c 128
 203.333007812 1369 205 1367.33300781 205 1364 c 128
 205 1360.66699219 203.333007812 1359 200 1359 c 128
 196.666992188 1359 195 1360.66699219 195 1364 c 128
180 1364 m 128
 180 1367.33300781 181.666992188 1369 185 1369 c 128
 188.333007812 1369 190 1367.33300781 190 1364 c 128
 190 1360.66699219 188.333007812 1359 185 1359 c 128
 181.666992188 1359 180 1360.66699219 180 1364 c 128
165 1364 m 128
 165 1367.33300781 166.666992188 1369 170 1369 c 128
 173.333007812 1369 175 1367.33300781 175 1364 c 128
 175 1360.66699219 173.333007812 1359 170 1359 c 128
 166.666992188 1359 165 1360.66699219 165 1364 c 128
150 1364 m 128
 150 1367.33300781 151.666992188 1369 155 1369 c 128
 158.333007812 1369 160 1367.33300781 160 1364 c 128
 160 1360.66699219 158.333007812 1359 155 1359 c 128
 151.666992188 1359 150 1360.66699219 150 1364 c 128
135 1364 m 128
 135 1367.33300781 136.666992188 1369 140 1369 c 128
 143.333007812 1369 145 1367.33300781 145 1364 c 128
 145 1360.66699219 143.333007812 1359 140 1359 c 128
 136.666992188 1359 135 1360.66699219 135 1364 c 128
120 1364 m 128
 120 1367.33300781 121.666992188 1369 125 1369 c 128
 128.333007812 1369 130 1367.33300781 130 1364 c 128
 130 1360.66699219 128.333007812 1359 125 1359 c 128
 121.666992188 1359 120 1360.66699219 120 1364 c 128
105 1364 m 128
 105 1367.33300781 106.666992188 1369 110 1369 c 128
 113.333007812 1369 115 1367.33300781 115 1364 c 128
 115 1360.66699219 113.333007812 1359 110 1359 c 128
 106.666992188 1359 105 1360.66699219 105 1364 c 128
90 1364 m 128
 90 1367.33300781 91.6669921875 1369 95 1369 c 128
 98.3330078125 1369 100 1367.33300781 100 1364 c 128
 100 1360.66699219 98.3330078125 1359 95 1359 c 128
 91.6669921875 1359 90 1360.66699219 90 1364 c 128
75 1364 m 128
 75 1367.33300781 76.6669921875 1369 80 1369 c 128
 83.3330078125 1369 85 1367.33300781 85 1364 c 128
 85 1360.66699219 83.3330078125 1359 80 1359 c 128
 76.6669921875 1359 75 1360.66699219 75 1364 c 128
60 1364 m 128
 60 1367.33300781 61.6669921875 1369 65 1369 c 128
 68.3330078125 1369 70 1367.33300781 70 1364 c 128
 70 1360.66699219 68.3330078125 1359 65 1359 c 128
 61.6669921875 1359 60 1360.66699219 60 1364 c 128
45 1364 m 128
 45 1367.33300781 46.6669921875 1369 50 1369 c 128
 53.3330078125 1369 55 1367.33300781 55 1364 c 128
 55 1360.66699219 53.3330078125 1359 50 1359 c 128
 46.6669921875 1359 45 1360.66699219 45 1364 c 128
30 1364 m 128
 30 1367.33300781 31.6669921875 1369 35 1369 c 128
 38.3330078125 1369 40 1367.33300781 40 1364 c 128
 40 1360.66699219 38.3330078125 1359 35 1359 c 128
 31.6669921875 1359 30 1360.66699219 30 1364 c 128
15 1364 m 128
 15 1367.33300781 16.6669921875 1369 20 1369 c 128
 23.3330078125 1369 25 1367.33300781 25 1364 c 128
 25 1360.66699219 23.3330078125 1359 20 1359 c 128
 16.6669921875 1359 15 1360.66699219 15 1364 c 128
0 1364 m 128
 0 1367.33300781 1.6669921875 1369 5 1369 c 128
 8.3330078125 1369 10 1367.33300781 10 1364 c 128
 10 1360.66699219 8.3330078125 1359 5 1359 c 128
 1.6669921875 1359 0 1360.66699219 0 1364 c 128
EndSplineSet
Fore
SplineSet
574.928710938 341 m 5,0,-1
 582 348.071289062 l 5,1,-1
 589.071289062 341 l 5,2,-1
 582 333.928710938 l 5,3,-1
 574.928710938 341 l 5,0,-1
549.928710938 341 m 5,4,-1
 557 348.071289062 l 5,5,-1
 564.071289062 341 l 5,6,-1
 557 333.928710938 l 5,7,-1
 549.928710938 341 l 5,4,-1
524.928710938 341 m 5,8,-1
 532 348.071289062 l 5,9,-1
 539.071289062 341 l 5,10,-1
 532 333.928710938 l 5,11,-1
 524.928710938 341 l 5,8,-1
499.928710938 341 m 5,12,-1
 507 348.071289062 l 5,13,-1
 514.071289062 341 l 5,14,-1
 507 333.928710938 l 5,15,-1
 499.928710938 341 l 5,12,-1
474.928710938 341 m 5,16,-1
 482 348.071289062 l 5,17,-1
 489.071289062 341 l 5,18,-1
 482 333.928710938 l 5,19,-1
 474.928710938 341 l 5,16,-1
449.928710938 341 m 5,20,-1
 457 348.071289062 l 5,21,-1
 464.071289062 341 l 5,22,-1
 457 333.928710938 l 5,23,-1
 449.928710938 341 l 5,20,-1
424.928710938 341 m 5,24,-1
 432 348.071289062 l 5,25,-1
 439.071289062 341 l 5,26,-1
 432 333.928710938 l 5,27,-1
 424.928710938 341 l 5,24,-1
399.928710938 341 m 5,28,-1
 407 348.071289062 l 5,29,-1
 414.071289062 341 l 5,30,-1
 407 333.928710938 l 5,31,-1
 399.928710938 341 l 5,28,-1
374.928710938 341 m 5,32,-1
 382 348.071289062 l 5,33,-1
 389.071289062 341 l 5,34,-1
 382 333.928710938 l 5,35,-1
 374.928710938 341 l 5,32,-1
349.928710938 341 m 5,36,-1
 357 348.071289062 l 5,37,-1
 364.071289062 341 l 5,38,-1
 357 333.928710938 l 5,39,-1
 349.928710938 341 l 5,36,-1
324.928710938 341 m 5,40,-1
 332 348.071289062 l 5,41,-1
 339.071289062 341 l 5,42,-1
 332 333.928710938 l 5,43,-1
 324.928710938 341 l 5,40,-1
299.928710938 341 m 5,44,-1
 307 348.071289062 l 5,45,-1
 314.071289062 341 l 5,46,-1
 307 333.928710938 l 5,47,-1
 299.928710938 341 l 5,44,-1
274.928710938 341 m 5,48,-1
 282 348.071289062 l 5,49,-1
 289.071289062 341 l 5,50,-1
 282 333.928710938 l 5,51,-1
 274.928710938 341 l 5,48,-1
249.928710938 341 m 5,52,-1
 257 348.071289062 l 5,53,-1
 264.071289062 341 l 5,54,-1
 257 333.928710938 l 5,55,-1
 249.928710938 341 l 5,52,-1
224.928710938 341 m 5,56,-1
 232 348.071289062 l 5,57,-1
 239.071289062 341 l 5,58,-1
 232 333.928710938 l 5,59,-1
 224.928710938 341 l 5,56,-1
199.928710938 341 m 5,60,-1
 207 348.071289062 l 5,61,-1
 214.071289062 341 l 5,62,-1
 207 333.928710938 l 5,63,-1
 199.928710938 341 l 5,60,-1
174.928710938 341 m 5,64,-1
 182 348.071289062 l 5,65,-1
 189.071289062 341 l 5,66,-1
 182 333.928710938 l 5,67,-1
 174.928710938 341 l 5,64,-1
149.928710938 341 m 5,68,-1
 157 348.071289062 l 5,69,-1
 164.071289062 341 l 5,70,-1
 157 333.928710938 l 5,71,-1
 149.928710938 341 l 5,68,-1
124.928710938 341 m 5,72,-1
 132 348.071289062 l 5,73,-1
 139.071289062 341 l 5,74,-1
 132 333.928710938 l 5,75,-1
 124.928710938 341 l 5,72,-1
99.9287109375 341 m 5,76,-1
 107 348.071289062 l 5,77,-1
 114.071289062 341 l 5,78,-1
 107 333.928710938 l 5,79,-1
 99.9287109375 341 l 5,76,-1
74.9287109375 341 m 5,80,-1
 82 348.071289062 l 5,81,-1
 89.0712890625 341 l 5,82,-1
 82 333.928710938 l 5,83,-1
 74.9287109375 341 l 5,80,-1
49.9287109375 341 m 5,84,-1
 57 348.071289062 l 5,85,-1
 64.0712890625 341 l 5,86,-1
 57 333.928710938 l 5,87,-1
 49.9287109375 341 l 5,84,-1
24.9287109375 341 m 5,88,-1
 32 348.071289062 l 5,89,-1
 39.0712890625 341 l 5,90,-1
 32 333.928710938 l 5,91,-1
 24.9287109375 341 l 5,88,-1
-0.0712890625 341 m 5,92,-1
 7 348.071289062 l 5,93,-1
 14.0712890625 341 l 5,94,-1
 7 333.928710938 l 5,95,-1
 -0.0712890625 341 l 5,92,-1
550 687 m 5,96,-1
 580 687 l 5,97,-1
 580 677 l 5,98,-1
 550 677 l 5,99,-1
 550 687 l 5,96,-1
500 687 m 5,100,-1
 530 687 l 5,101,-1
 530 677 l 5,102,-1
 500 677 l 5,103,-1
 500 687 l 5,100,-1
450 687 m 5,104,-1
 480 687 l 5,105,-1
 480 677 l 5,106,-1
 450 677 l 5,107,-1
 450 687 l 5,104,-1
400 687 m 5,108,-1
 430 687 l 5,109,-1
 430 677 l 5,110,-1
 400 677 l 5,111,-1
 400 687 l 5,108,-1
350 687 m 5,112,-1
 380 687 l 5,113,-1
 380 677 l 5,114,-1
 350 677 l 5,115,-1
 350 687 l 5,112,-1
300 687 m 5,116,-1
 330 687 l 5,117,-1
 330 677 l 5,118,-1
 300 677 l 5,119,-1
 300 687 l 5,116,-1
250 687 m 5,120,-1
 280 687 l 5,121,-1
 280 677 l 5,122,-1
 250 677 l 5,123,-1
 250 687 l 5,120,-1
200 687 m 5,124,-1
 230 687 l 5,125,-1
 230 677 l 5,126,-1
 200 677 l 5,127,-1
 200 687 l 5,124,-1
150 687 m 5,128,-1
 180 687 l 5,129,-1
 180 677 l 5,130,-1
 150 677 l 5,131,-1
 150 687 l 5,128,-1
100 687 m 5,132,-1
 130 687 l 5,133,-1
 130 677 l 5,134,-1
 100 677 l 5,135,-1
 100 687 l 5,132,-1
50 687 m 5,136,-1
 80 687 l 5,137,-1
 80 677 l 5,138,-1
 50 677 l 5,139,-1
 50 687 l 5,136,-1
0 687 m 5,140,-1
 30 687 l 5,141,-1
 30 677 l 5,142,-1
 0 677 l 5,143,-1
 0 687 l 5,140,-1
0 8 m 5,144,-1
 602 8 l 5,145,-1
 602 -8 l 5,146,-1
 0 -8 l 5,147,-1
 0 8 l 5,144,-1
585 -682 m 128,-1,149
 585 -677.000488281 585 -677.000488281 590 -677 c 128,-1,150
 594.999511719 -677 594.999511719 -677 595 -682 c 128,-1,151
 595 -686.999511719 595 -686.999511719 590 -687 c 128,-1,148
 585.000488281 -687 585.000488281 -687 585 -682 c 128,-1,149
570 -682 m 128,-1,153
 570 -677.000488281 570 -677.000488281 575 -677 c 128,-1,154
 579.999511719 -677 579.999511719 -677 580 -682 c 128,-1,155
 580 -686.999511719 580 -686.999511719 575 -687 c 128,-1,152
 570.000488281 -687 570.000488281 -687 570 -682 c 128,-1,153
555 -682 m 128,-1,157
 555 -677.000488281 555 -677.000488281 560 -677 c 128,-1,158
 564.999511719 -677 564.999511719 -677 565 -682 c 128,-1,159
 565 -686.999511719 565 -686.999511719 560 -687 c 128,-1,156
 555.000488281 -687 555.000488281 -687 555 -682 c 128,-1,157
540 -682 m 128,-1,161
 540 -677.000488281 540 -677.000488281 545 -677 c 128,-1,162
 549.999511719 -677 549.999511719 -677 550 -682 c 128,-1,163
 550 -686.999511719 550 -686.999511719 545 -687 c 128,-1,160
 540.000488281 -687 540.000488281 -687 540 -682 c 128,-1,161
525 -682 m 128,-1,165
 525 -677.000488281 525 -677.000488281 530 -677 c 128,-1,166
 534.999511719 -677 534.999511719 -677 535 -682 c 128,-1,167
 535 -686.999511719 535 -686.999511719 530 -687 c 128,-1,164
 525.000488281 -687 525.000488281 -687 525 -682 c 128,-1,165
510 -682 m 128,-1,169
 510 -677.000488281 510 -677.000488281 515 -677 c 128,-1,170
 519.999511719 -677 519.999511719 -677 520 -682 c 128,-1,171
 520 -686.999511719 520 -686.999511719 515 -687 c 128,-1,168
 510.000488281 -687 510.000488281 -687 510 -682 c 128,-1,169
495 -682 m 128,-1,173
 495 -677.000488281 495 -677.000488281 500 -677 c 128,-1,174
 504.999511719 -677 504.999511719 -677 505 -682 c 128,-1,175
 505 -686.999511719 505 -686.999511719 500 -687 c 128,-1,172
 495.000488281 -687 495.000488281 -687 495 -682 c 128,-1,173
480 -682 m 128,-1,177
 480 -677.000488281 480 -677.000488281 485 -677 c 128,-1,178
 489.999511719 -677 489.999511719 -677 490 -682 c 128,-1,179
 490 -686.999511719 490 -686.999511719 485 -687 c 128,-1,176
 480.000488281 -687 480.000488281 -687 480 -682 c 128,-1,177
465 -682 m 128,-1,181
 465 -677.000488281 465 -677.000488281 470 -677 c 128,-1,182
 474.999511719 -677 474.999511719 -677 475 -682 c 128,-1,183
 475 -686.999511719 475 -686.999511719 470 -687 c 128,-1,180
 465.000488281 -687 465.000488281 -687 465 -682 c 128,-1,181
450 -682 m 128,-1,185
 450 -677.000488281 450 -677.000488281 455 -677 c 128,-1,186
 459.999511719 -677 459.999511719 -677 460 -682 c 128,-1,187
 460 -686.999511719 460 -686.999511719 455 -687 c 128,-1,184
 450.000488281 -687 450.000488281 -687 450 -682 c 128,-1,185
435 -682 m 128,-1,189
 435 -677.000488281 435 -677.000488281 440 -677 c 128,-1,190
 444.999511719 -677 444.999511719 -677 445 -682 c 128,-1,191
 445 -686.999511719 445 -686.999511719 440 -687 c 128,-1,188
 435.000488281 -687 435.000488281 -687 435 -682 c 128,-1,189
420 -682 m 128,-1,193
 420 -677.000488281 420 -677.000488281 425 -677 c 128,-1,194
 429.999511719 -677 429.999511719 -677 430 -682 c 128,-1,195
 430 -686.999511719 430 -686.999511719 425 -687 c 128,-1,192
 420.000488281 -687 420.000488281 -687 420 -682 c 128,-1,193
405 -682 m 128,-1,197
 405 -677.000488281 405 -677.000488281 410 -677 c 128,-1,198
 414.999511719 -677 414.999511719 -677 415 -682 c 128,-1,199
 415 -686.999511719 415 -686.999511719 410 -687 c 128,-1,196
 405.000488281 -687 405.000488281 -687 405 -682 c 128,-1,197
390 -682 m 128,-1,201
 390 -677.000488281 390 -677.000488281 395 -677 c 128,-1,202
 399.999511719 -677 399.999511719 -677 400 -682 c 128,-1,203
 400 -686.999511719 400 -686.999511719 395 -687 c 128,-1,200
 390.000488281 -687 390.000488281 -687 390 -682 c 128,-1,201
375 -682 m 128,-1,205
 375 -677.000488281 375 -677.000488281 380 -677 c 128,-1,206
 384.999511719 -677 384.999511719 -677 385 -682 c 128,-1,207
 385 -686.999511719 385 -686.999511719 380 -687 c 128,-1,204
 375.000488281 -687 375.000488281 -687 375 -682 c 128,-1,205
360 -682 m 128,-1,209
 360 -677.000488281 360 -677.000488281 365 -677 c 128,-1,210
 369.999511719 -677 369.999511719 -677 370 -682 c 128,-1,211
 370 -686.999511719 370 -686.999511719 365 -687 c 128,-1,208
 360.000488281 -687 360.000488281 -687 360 -682 c 128,-1,209
345 -682 m 128,-1,213
 345 -677.000488281 345 -677.000488281 350 -677 c 128,-1,214
 354.999511719 -677 354.999511719 -677 355 -682 c 128,-1,215
 355 -686.999511719 355 -686.999511719 350 -687 c 128,-1,212
 345.000488281 -687 345.000488281 -687 345 -682 c 128,-1,213
330 -682 m 128,-1,217
 330 -677.000488281 330 -677.000488281 335 -677 c 128,-1,218
 339.999511719 -677 339.999511719 -677 340 -682 c 128,-1,219
 340 -686.999511719 340 -686.999511719 335 -687 c 128,-1,216
 330.000488281 -687 330.000488281 -687 330 -682 c 128,-1,217
315 -682 m 128,-1,221
 315 -677.000488281 315 -677.000488281 320 -677 c 128,-1,222
 324.999511719 -677 324.999511719 -677 325 -682 c 128,-1,223
 325 -686.999511719 325 -686.999511719 320 -687 c 128,-1,220
 315.000488281 -687 315.000488281 -687 315 -682 c 128,-1,221
300 -682 m 128,-1,225
 300 -677.000488281 300 -677.000488281 305 -677 c 128,-1,226
 309.999511719 -677 309.999511719 -677 310 -682 c 128,-1,227
 310 -686.999511719 310 -686.999511719 305 -687 c 128,-1,224
 300.000488281 -687 300.000488281 -687 300 -682 c 128,-1,225
285 -682 m 128,-1,229
 285 -677.000488281 285 -677.000488281 290 -677 c 128,-1,230
 294.999511719 -677 294.999511719 -677 295 -682 c 128,-1,231
 295 -686.999511719 295 -686.999511719 290 -687 c 128,-1,228
 285.000488281 -687 285.000488281 -687 285 -682 c 128,-1,229
270 -682 m 128,-1,233
 270 -677.000488281 270 -677.000488281 275 -677 c 128,-1,234
 279.999511719 -677 279.999511719 -677 280 -682 c 128,-1,235
 280 -686.999511719 280 -686.999511719 275 -687 c 128,-1,232
 270.000488281 -687 270.000488281 -687 270 -682 c 128,-1,233
255 -682 m 128,-1,237
 255 -677.000488281 255 -677.000488281 260 -677 c 128,-1,238
 264.999511719 -677 264.999511719 -677 265 -682 c 128,-1,239
 265 -686.999511719 265 -686.999511719 260 -687 c 128,-1,236
 255.000488281 -687 255.000488281 -687 255 -682 c 128,-1,237
240 -682 m 128,-1,241
 240 -677.000488281 240 -677.000488281 245 -677 c 128,-1,242
 249.999511719 -677 249.999511719 -677 250 -682 c 128,-1,243
 250 -686.999511719 250 -686.999511719 245 -687 c 128,-1,240
 240.000488281 -687 240.000488281 -687 240 -682 c 128,-1,241
225 -682 m 128,-1,245
 225 -677.000488281 225 -677.000488281 230 -677 c 128,-1,246
 234.999511719 -677 234.999511719 -677 235 -682 c 128,-1,247
 235 -686.999511719 235 -686.999511719 230 -687 c 128,-1,244
 225.000488281 -687 225.000488281 -687 225 -682 c 128,-1,245
210 -682 m 128,-1,249
 210 -677.000488281 210 -677.000488281 215 -677 c 128,-1,250
 219.999511719 -677 219.999511719 -677 220 -682 c 128,-1,251
 220 -686.999511719 220 -686.999511719 215 -687 c 128,-1,248
 210.000488281 -687 210.000488281 -687 210 -682 c 128,-1,249
195 -682 m 128,-1,253
 195 -677.000488281 195 -677.000488281 200 -677 c 128,-1,254
 204.999511719 -677 204.999511719 -677 205 -682 c 128,-1,255
 205 -686.999511719 205 -686.999511719 200 -687 c 128,-1,252
 195.000488281 -687 195.000488281 -687 195 -682 c 128,-1,253
180 -682 m 128,-1,257
 180 -677.000488281 180 -677.000488281 185 -677 c 128,-1,258
 189.999511719 -677 189.999511719 -677 190 -682 c 128,-1,259
 190 -686.999511719 190 -686.999511719 185 -687 c 128,-1,256
 180.000488281 -687 180.000488281 -687 180 -682 c 128,-1,257
165 -682 m 128,-1,261
 165 -677.000488281 165 -677.000488281 170 -677 c 128,-1,262
 174.999511719 -677 174.999511719 -677 175 -682 c 128,-1,263
 175 -686.999511719 175 -686.999511719 170 -687 c 128,-1,260
 165.000488281 -687 165.000488281 -687 165 -682 c 128,-1,261
150 -682 m 128,-1,265
 150 -677.000488281 150 -677.000488281 155 -677 c 128,-1,266
 159.999511719 -677 159.999511719 -677 160 -682 c 128,-1,267
 160 -686.999511719 160 -686.999511719 155 -687 c 128,-1,264
 150.000488281 -687 150.000488281 -687 150 -682 c 128,-1,265
135 -682 m 128,-1,269
 135 -677.000488281 135 -677.000488281 140 -677 c 128,-1,270
 144.999511719 -677 144.999511719 -677 145 -682 c 128,-1,271
 145 -686.999511719 145 -686.999511719 140 -687 c 128,-1,268
 135.000488281 -687 135.000488281 -687 135 -682 c 128,-1,269
120 -682 m 128,-1,273
 120 -677.000488281 120 -677.000488281 125 -677 c 128,-1,274
 129.999511719 -677 129.999511719 -677 130 -682 c 128,-1,275
 130 -686.999511719 130 -686.999511719 125 -687 c 128,-1,272
 120.000488281 -687 120.000488281 -687 120 -682 c 128,-1,273
105 -682 m 128,-1,277
 105 -677.000488281 105 -677.000488281 110 -677 c 128,-1,278
 114.999511719 -677 114.999511719 -677 115 -682 c 128,-1,279
 115 -686.999511719 115 -686.999511719 110 -687 c 128,-1,276
 105.000488281 -687 105.000488281 -687 105 -682 c 128,-1,277
90 -682 m 128,-1,281
 90 -677.000488281 90 -677.000488281 95 -677 c 128,-1,282
 99.9995117188 -677 99.9995117188 -677 100 -682 c 128,-1,283
 100 -686.999511719 100 -686.999511719 95 -687 c 128,-1,280
 90.0004882812 -687 90.0004882812 -687 90 -682 c 128,-1,281
75 -682 m 128,-1,285
 75 -677.000488281 75 -677.000488281 80 -677 c 128,-1,286
 84.9995117188 -677 84.9995117188 -677 85 -682 c 128,-1,287
 85 -686.999511719 85 -686.999511719 80 -687 c 128,-1,284
 75.0004882812 -687 75.0004882812 -687 75 -682 c 128,-1,285
60 -682 m 128,-1,289
 60 -677.000488281 60 -677.000488281 65 -677 c 128,-1,290
 69.9995117188 -677 69.9995117188 -677 70 -682 c 128,-1,291
 70 -686.999511719 70 -686.999511719 65 -687 c 128,-1,288
 60.0004882812 -687 60.0004882812 -687 60 -682 c 128,-1,289
45 -682 m 128,-1,293
 45 -677.000488281 45 -677.000488281 50 -677 c 128,-1,294
 54.9995117188 -677 54.9995117188 -677 55 -682 c 128,-1,295
 55 -686.999511719 55 -686.999511719 50 -687 c 128,-1,292
 45.0004882812 -687 45.0004882812 -687 45 -682 c 128,-1,293
30 -682 m 128,-1,297
 30 -677.000488281 30 -677.000488281 35 -677 c 128,-1,298
 39.9995117188 -677 39.9995117188 -677 40 -682 c 128,-1,299
 40 -686.999511719 40 -686.999511719 35 -687 c 128,-1,296
 30.0004882812 -687 30.0004882812 -687 30 -682 c 128,-1,297
15 -682 m 128,-1,301
 15 -677.000488281 15 -677.000488281 20 -677 c 128,-1,302
 24.9995117188 -677 24.9995117188 -677 25 -682 c 128,-1,303
 25 -686.999511719 25 -686.999511719 20 -687 c 128,-1,300
 15.0004882812 -687 15.0004882812 -687 15 -682 c 128,-1,301
0 -682 m 128,-1,305
 0 -677.000488281 0 -677.000488281 5 -677 c 128,-1,306
 9.99951171875 -677 9.99951171875 -677 10 -682 c 128,-1,307
 10 -686.999511719 10 -686.999511719 5 -687 c 128,-1,304
 0.00048828125 -687 0.00048828125 -687 0 -682 c 128,-1,305
585 1364 m 132,-1,309
 585 1368.99951172 585 1368.99951172 590 1369 c 132,-1,310
 594.999511719 1369 594.999511719 1369 595 1364 c 132,-1,311
 595 1359.00048828 595 1359.00048828 590 1359 c 132,-1,308
 585.000488281 1359 585.000488281 1359 585 1364 c 132,-1,309
570 1364 m 132,-1,313
 570 1368.99951172 570 1368.99951172 575 1369 c 132,-1,314
 579.999511719 1369 579.999511719 1369 580 1364 c 132,-1,315
 580 1359.00048828 580 1359.00048828 575 1359 c 132,-1,312
 570.000488281 1359 570.000488281 1359 570 1364 c 132,-1,313
555 1364 m 132,-1,317
 555 1368.99951172 555 1368.99951172 560 1369 c 132,-1,318
 564.999511719 1369 564.999511719 1369 565 1364 c 132,-1,319
 565 1359.00048828 565 1359.00048828 560 1359 c 132,-1,316
 555.000488281 1359 555.000488281 1359 555 1364 c 132,-1,317
540 1364 m 132,-1,321
 540 1368.99951172 540 1368.99951172 545 1369 c 132,-1,322
 549.999511719 1369 549.999511719 1369 550 1364 c 132,-1,323
 550 1359.00048828 550 1359.00048828 545 1359 c 132,-1,320
 540.000488281 1359 540.000488281 1359 540 1364 c 132,-1,321
525 1364 m 132,-1,325
 525 1368.99951172 525 1368.99951172 530 1369 c 132,-1,326
 534.999511719 1369 534.999511719 1369 535 1364 c 132,-1,327
 535 1359.00048828 535 1359.00048828 530 1359 c 132,-1,324
 525.000488281 1359 525.000488281 1359 525 1364 c 132,-1,325
510 1364 m 132,-1,329
 510 1368.99951172 510 1368.99951172 515 1369 c 132,-1,330
 519.999511719 1369 519.999511719 1369 520 1364 c 132,-1,331
 520 1359.00048828 520 1359.00048828 515 1359 c 132,-1,328
 510.000488281 1359 510.000488281 1359 510 1364 c 132,-1,329
495 1364 m 132,-1,333
 495 1368.99951172 495 1368.99951172 500 1369 c 132,-1,334
 504.999511719 1369 504.999511719 1369 505 1364 c 132,-1,335
 505 1359.00048828 505 1359.00048828 500 1359 c 132,-1,332
 495.000488281 1359 495.000488281 1359 495 1364 c 132,-1,333
480 1364 m 132,-1,337
 480 1368.99951172 480 1368.99951172 485 1369 c 132,-1,338
 489.999511719 1369 489.999511719 1369 490 1364 c 132,-1,339
 490 1359.00048828 490 1359.00048828 485 1359 c 132,-1,336
 480.000488281 1359 480.000488281 1359 480 1364 c 132,-1,337
465 1364 m 132,-1,341
 465 1368.99951172 465 1368.99951172 470 1369 c 132,-1,342
 474.999511719 1369 474.999511719 1369 475 1364 c 132,-1,343
 475 1359.00048828 475 1359.00048828 470 1359 c 132,-1,340
 465.000488281 1359 465.000488281 1359 465 1364 c 132,-1,341
450 1364 m 132,-1,345
 450 1368.99951172 450 1368.99951172 455 1369 c 132,-1,346
 459.999511719 1369 459.999511719 1369 460 1364 c 132,-1,347
 460 1359.00048828 460 1359.00048828 455 1359 c 132,-1,344
 450.000488281 1359 450.000488281 1359 450 1364 c 132,-1,345
435 1364 m 132,-1,349
 435 1368.99951172 435 1368.99951172 440 1369 c 132,-1,350
 444.999511719 1369 444.999511719 1369 445 1364 c 132,-1,351
 445 1359.00048828 445 1359.00048828 440 1359 c 132,-1,348
 435.000488281 1359 435.000488281 1359 435 1364 c 132,-1,349
420 1364 m 132,-1,353
 420 1368.99951172 420 1368.99951172 425 1369 c 132,-1,354
 429.999511719 1369 429.999511719 1369 430 1364 c 132,-1,355
 430 1359.00048828 430 1359.00048828 425 1359 c 132,-1,352
 420.000488281 1359 420.000488281 1359 420 1364 c 132,-1,353
405 1364 m 132,-1,357
 405 1368.99951172 405 1368.99951172 410 1369 c 132,-1,358
 414.999511719 1369 414.999511719 1369 415 1364 c 132,-1,359
 415 1359.00048828 415 1359.00048828 410 1359 c 132,-1,356
 405.000488281 1359 405.000488281 1359 405 1364 c 132,-1,357
390 1364 m 132,-1,361
 390 1368.99951172 390 1368.99951172 395 1369 c 132,-1,362
 399.999511719 1369 399.999511719 1369 400 1364 c 132,-1,363
 400 1359.00048828 400 1359.00048828 395 1359 c 132,-1,360
 390.000488281 1359 390.000488281 1359 390 1364 c 132,-1,361
375 1364 m 132,-1,365
 375 1368.99951172 375 1368.99951172 380 1369 c 132,-1,366
 384.999511719 1369 384.999511719 1369 385 1364 c 132,-1,367
 385 1359.00048828 385 1359.00048828 380 1359 c 132,-1,364
 375.000488281 1359 375.000488281 1359 375 1364 c 132,-1,365
360 1364 m 132,-1,369
 360 1368.99951172 360 1368.99951172 365 1369 c 132,-1,370
 369.999511719 1369 369.999511719 1369 370 1364 c 132,-1,371
 370 1359.00048828 370 1359.00048828 365 1359 c 132,-1,368
 360.000488281 1359 360.000488281 1359 360 1364 c 132,-1,369
345 1364 m 132,-1,373
 345 1368.99951172 345 1368.99951172 350 1369 c 132,-1,374
 354.999511719 1369 354.999511719 1369 355 1364 c 132,-1,375
 355 1359.00048828 355 1359.00048828 350 1359 c 132,-1,372
 345.000488281 1359 345.000488281 1359 345 1364 c 132,-1,373
330 1364 m 132,-1,377
 330 1368.99951172 330 1368.99951172 335 1369 c 132,-1,378
 339.999511719 1369 339.999511719 1369 340 1364 c 132,-1,379
 340 1359.00048828 340 1359.00048828 335 1359 c 132,-1,376
 330.000488281 1359 330.000488281 1359 330 1364 c 132,-1,377
315 1364 m 132,-1,381
 315 1368.99951172 315 1368.99951172 320 1369 c 132,-1,382
 324.999511719 1369 324.999511719 1369 325 1364 c 132,-1,383
 325 1359.00048828 325 1359.00048828 320 1359 c 132,-1,380
 315.000488281 1359 315.000488281 1359 315 1364 c 132,-1,381
300 1364 m 132,-1,385
 300 1368.99951172 300 1368.99951172 305 1369 c 132,-1,386
 309.999511719 1369 309.999511719 1369 310 1364 c 132,-1,387
 310 1359.00048828 310 1359.00048828 305 1359 c 132,-1,384
 300.000488281 1359 300.000488281 1359 300 1364 c 132,-1,385
285 1364 m 132,-1,389
 285 1368.99951172 285 1368.99951172 290 1369 c 132,-1,390
 294.999511719 1369 294.999511719 1369 295 1364 c 132,-1,391
 295 1359.00048828 295 1359.00048828 290 1359 c 132,-1,388
 285.000488281 1359 285.000488281 1359 285 1364 c 132,-1,389
270 1364 m 132,-1,393
 270 1368.99951172 270 1368.99951172 275 1369 c 132,-1,394
 279.999511719 1369 279.999511719 1369 280 1364 c 132,-1,395
 280 1359.00048828 280 1359.00048828 275 1359 c 132,-1,392
 270.000488281 1359 270.000488281 1359 270 1364 c 132,-1,393
255 1364 m 132,-1,397
 255 1368.99951172 255 1368.99951172 260 1369 c 132,-1,398
 264.999511719 1369 264.999511719 1369 265 1364 c 132,-1,399
 265 1359.00048828 265 1359.00048828 260 1359 c 132,-1,396
 255.000488281 1359 255.000488281 1359 255 1364 c 132,-1,397
240 1364 m 132,-1,401
 240 1368.99951172 240 1368.99951172 245 1369 c 132,-1,402
 249.999511719 1369 249.999511719 1369 250 1364 c 132,-1,403
 250 1359.00048828 250 1359.00048828 245 1359 c 132,-1,400
 240.000488281 1359 240.000488281 1359 240 1364 c 132,-1,401
225 1364 m 132,-1,405
 225 1368.99951172 225 1368.99951172 230 1369 c 132,-1,406
 234.999511719 1369 234.999511719 1369 235 1364 c 132,-1,407
 235 1359.00048828 235 1359.00048828 230 1359 c 132,-1,404
 225.000488281 1359 225.000488281 1359 225 1364 c 132,-1,405
210 1364 m 132,-1,409
 210 1368.99951172 210 1368.99951172 215 1369 c 132,-1,410
 219.999511719 1369 219.999511719 1369 220 1364 c 132,-1,411
 220 1359.00048828 220 1359.00048828 215 1359 c 132,-1,408
 210.000488281 1359 210.000488281 1359 210 1364 c 132,-1,409
195 1364 m 132,-1,413
 195 1368.99951172 195 1368.99951172 200 1369 c 132,-1,414
 204.999511719 1369 204.999511719 1369 205 1364 c 132,-1,415
 205 1359.00048828 205 1359.00048828 200 1359 c 132,-1,412
 195.000488281 1359 195.000488281 1359 195 1364 c 132,-1,413
180 1364 m 132,-1,417
 180 1368.99951172 180 1368.99951172 185 1369 c 132,-1,418
 189.999511719 1369 189.999511719 1369 190 1364 c 132,-1,419
 190 1359.00048828 190 1359.00048828 185 1359 c 132,-1,416
 180.000488281 1359 180.000488281 1359 180 1364 c 132,-1,417
165 1364 m 132,-1,421
 165 1368.99951172 165 1368.99951172 170 1369 c 132,-1,422
 174.999511719 1369 174.999511719 1369 175 1364 c 132,-1,423
 175 1359.00048828 175 1359.00048828 170 1359 c 132,-1,420
 165.000488281 1359 165.000488281 1359 165 1364 c 132,-1,421
150 1364 m 132,-1,425
 150 1368.99951172 150 1368.99951172 155 1369 c 132,-1,426
 159.999511719 1369 159.999511719 1369 160 1364 c 132,-1,427
 160 1359.00048828 160 1359.00048828 155 1359 c 132,-1,424
 150.000488281 1359 150.000488281 1359 150 1364 c 132,-1,425
135 1364 m 132,-1,429
 135 1368.99951172 135 1368.99951172 140 1369 c 132,-1,430
 144.999511719 1369 144.999511719 1369 145 1364 c 132,-1,431
 145 1359.00048828 145 1359.00048828 140 1359 c 132,-1,428
 135.000488281 1359 135.000488281 1359 135 1364 c 132,-1,429
120 1364 m 132,-1,433
 120 1368.99951172 120 1368.99951172 125 1369 c 132,-1,434
 129.999511719 1369 129.999511719 1369 130 1364 c 132,-1,435
 130 1359.00048828 130 1359.00048828 125 1359 c 132,-1,432
 120.000488281 1359 120.000488281 1359 120 1364 c 132,-1,433
105 1364 m 132,-1,437
 105 1368.99951172 105 1368.99951172 110 1369 c 132,-1,438
 114.999511719 1369 114.999511719 1369 115 1364 c 132,-1,439
 115 1359.00048828 115 1359.00048828 110 1359 c 132,-1,436
 105.000488281 1359 105.000488281 1359 105 1364 c 132,-1,437
90 1364 m 132,-1,441
 90 1368.99951172 90 1368.99951172 95 1369 c 132,-1,442
 99.9995117188 1369 99.9995117188 1369 100 1364 c 132,-1,443
 100 1359.00048828 100 1359.00048828 95 1359 c 132,-1,440
 90.0004882812 1359 90.0004882812 1359 90 1364 c 132,-1,441
75 1364 m 132,-1,445
 75 1368.99951172 75 1368.99951172 80 1369 c 132,-1,446
 84.9995117188 1369 84.9995117188 1369 85 1364 c 132,-1,447
 85 1359.00048828 85 1359.00048828 80 1359 c 132,-1,444
 75.0004882812 1359 75.0004882812 1359 75 1364 c 132,-1,445
60 1364 m 132,-1,449
 60 1368.99951172 60 1368.99951172 65 1369 c 132,-1,450
 69.9995117188 1369 69.9995117188 1369 70 1364 c 132,-1,451
 70 1359.00048828 70 1359.00048828 65 1359 c 132,-1,448
 60.0004882812 1359 60.0004882812 1359 60 1364 c 132,-1,449
45 1364 m 132,-1,453
 45 1368.99951172 45 1368.99951172 50 1369 c 132,-1,454
 54.9995117188 1369 54.9995117188 1369 55 1364 c 132,-1,455
 55 1359.00048828 55 1359.00048828 50 1359 c 132,-1,452
 45.0004882812 1359 45.0004882812 1359 45 1364 c 132,-1,453
30 1364 m 132,-1,457
 30 1368.99951172 30 1368.99951172 35 1369 c 132,-1,458
 39.9995117188 1369 39.9995117188 1369 40 1364 c 132,-1,459
 40 1359.00048828 40 1359.00048828 35 1359 c 132,-1,456
 30.0004882812 1359 30.0004882812 1359 30 1364 c 132,-1,457
15 1364 m 132,-1,461
 15 1368.99951172 15 1368.99951172 20 1369 c 132,-1,462
 24.9995117188 1369 24.9995117188 1369 25 1364 c 132,-1,463
 25 1359.00048828 25 1359.00048828 20 1359 c 132,-1,460
 15.0004882812 1359 15.0004882812 1359 15 1364 c 132,-1,461
0 1364 m 132,-1,465
 0 1368.99951172 0 1368.99951172 5 1369 c 132,-1,466
 9.99951171875 1369 9.99951171875 1369 10 1364 c 132,-1,467
 10 1359.00048828 10 1359.00048828 5 1359 c 132,-1,464
 0.00048828125 1359 0.00048828125 1359 0 1364 c 132,-1,465
EndSplineSet
Validated: 1
EndChar

StartChar: cces
Encoding: 57374 57374 52
Width: 0
VWidth: 1540
LayerCount: 3
Back
SplineSet
-227.947265625 487.490234375 m 0
 -315.213867188 487.490234375 -386.682617188 382.920898438 -386.682617188 255.782226562 c 0
 -386.682617188 128.643554688 -315.213867188 25.578125 -227.947265625 25.578125 c 1024
26.5693359375 103.337890625 m 0
 35.66015625 87.931640625 47.330078125 74.048828125 60.966796875 62.4736328125 c 0
 74.5771484375 50.9208984375 90.1591796875 41.6806640625 106.875 35.416015625 c 0
 124.129882812 28.9482421875 142.564453125 25.666015625 160.9921875 25.6865234375 c 0
 188.913085938 25.7158203125 216.796875 33.376953125 240.779296875 47.6728515625 c 0
 264.317382812 61.705078125 283.986328125 82.068359375 297.506835938 105.903320312 c 0
 311.6328125 130.805664062 319.079101562 159.444335938 318.975585938 188.075195312 c 0
 318.91015625 225.138671875 318.884765625 262.202148438 318.888671875 299.266601562 c 0
 318.892578125 328.942382812 318.913085938 358.618164062 318.932617188 388.293945312 c 0
 318.953125 421.359375 318.969726562 454.424804688 318.975585938 487.490234375 c 1024
  Spiro
    26.5693 103.337 {
    60.9671 62.4734 o
    106.875 35.4157 o
    160.992 25.6862 o
    240.78 47.6733 o
    297.507 105.903 o
    318.975 188.075 v
    318.889 299.266 o
    318.932 388.294 o
    318.975 487.49 o
    0 0 z
  EndSpiro
EndSplineSet
Fore
Validated: 1
EndChar

StartChar: ccgs
Encoding: 57398 57398 53
Width: 2048
LayerCount: 3
Back
SplineSet
-19.5595703125 -13.541015625 m 4
 22.650390625 37.6123046875 51.431640625 74.373046875 114.349609375 133.87890625 c 6
 488.243164062 487.490234375 l 1029
EndSplineSet
Fore
Validated: 1
EndChar

StartChar: ccvs
Encoding: 57386 57386 54
Width: 2048
LayerCount: 3
Back
SplineSet
-540.903320312 487.490234375 m 7
 -497.270507812 487.490234375 -484.481445312 451.379882812 -484.481445312 410.755859375 c 4
 -483.728515625 410.755859375 -484.481445312 128.643554688 -484.481445312 128.643554688 c 4
 -484.481445312 71.46875 -445.361328125 25.578125 -383.672851562 25.578125 c 7
 -276.846679688 25.578125 -167.762695312 163.252929688 -167.762695312 330.259765625 c 7
 -167.762695312 406.275390625 -188.075195312 464.168945312 -205.377929688 487.490234375 c 1028
EndSplineSet
Fore
Validated: 1
EndChar

StartChar: ccos
Encoding: 57362 57362 55
Width: 2048
LayerCount: 3
Back
SplineSet
-473.196289062 255.782226562 m 0
 -473.196289062 382.920898438 -401.728515625 487.490234375 -314.4609375 487.490234375 c 0
 -227.194335938 487.490234375 -155.7265625 383.672851562 -155.7265625 256.534179688 c 0
 -155.7265625 159.6484375 -197.228515625 76.306640625 -255.598632812 42.12890625 c 0
 -273.825195312 31.4560546875 -293.696289062 25.578125 -314.4609375 25.578125 c 0
 -401.728515625 25.578125 -473.196289062 128.643554688 -473.196289062 255.782226562 c 0
EndSplineSet
Fore
Validated: 1
EndChar

StartChar: css
Encoding: 57542 57542 56
Width: 2048
LayerCount: 3
Back
SplineSet
-120.44140625 25.578125 m 7
 -99.6181640625 25.578125 -76.28515625 38.09375 -63.2666015625 50.404296875 c 6
 387.360351562 487.490234375 l 1029
EndSplineSet
Fore
Validated: 1
EndChar

StartChar: ccsi
Encoding: 57404 57404 57
Width: 0
VWidth: 1540
LayerCount: 3
Back
SplineSet
-319.48828125 80.7685546875 m 5
 -285.874023438 33.1015625 -250.515625 25.6865234375 -205.377929688 25.6865234375 c 1028
EndSplineSet
Fore
Validated: 1
EndChar

StartChar: ccsn
Encoding: 57405 57405 58
Width: 2048
LayerCount: 3
Back
SplineSet
-319.48828125 80.7685546875 m 5
 -285.874023438 33.1015625 -250.515625 25.6865234375 -205.377929688 25.6865234375 c 1028
EndSplineSet
Fore
Validated: 1
EndChar

StartChar: ccsh
Encoding: 57406 57406 59
Width: 0
VWidth: 1540
LayerCount: 3
Back
SplineSet
-319.48828125 80.7685546875 m 5
 -285.874023438 33.1015625 -250.515625 25.6865234375 -205.377929688 25.6865234375 c 1028
EndSplineSet
Fore
Validated: 1
EndChar

StartChar: ccso
Encoding: 57407 57407 60
Width: 0
VWidth: 1540
LayerCount: 3
Back
SplineSet
-319.48828125 80.7685546875 m 5
 -285.874023438 33.1015625 -250.515625 25.6865234375 -205.377929688 25.6865234375 c 1028
460.068359375 442.362304688 m 1025
271.49609375 441.134765625 m 1
 298.013671875 470.201171875 330.885742188 487.490234375 366.370117188 487.490234375 c 0
 401.47265625 487.490234375 434.01953125 470.692382812 460.385742188 442.3359375 c 1025
460.385742188 442.3359375 m 1
 499.568359375 400.197265625 525.10546875 332.532226562 525.10546875 256.534179688 c 0
 525.10546875 159.6484375 483.602539062 76.306640625 425.233398438 42.12890625 c 0
 407.006835938 31.4560546875 387.135742188 25.578125 366.370117188 25.578125 c 0
 279.103515625 25.578125 207.634765625 128.643554688 207.634765625 255.782226562 c 0
 207.634765625 331.223632812 232.798828125 398.71875 271.49609375 441.134765625 c 1025
EndSplineSet
Fore
Validated: 1
EndChar

StartChar: ccsa
Encoding: 57408 57408 61
Width: 0
VWidth: 1540
LayerCount: 3
Back
SplineSet
571.748046875 25.578125 m 3
 528.114257812 25.578125 515.325195312 62.4404296875 515.325195312 103.065429688 c 0
 515.325195312 104.12890625 515.325195312 487.490234375 515.325195312 487.490234375 c 1049
515.325195312 412.260742188 m 4
 493.508789062 440.84765625 445.361328125 487.490234375 384.42578125 487.490234375 c 4
 271.881835938 487.490234375 198.532226562 381.416015625 198.532226562 255.782226562 c 4
 198.532226562 128.643554688 277.147460938 25.578125 373.140625 25.578125 c 0
 451.379882812 25.578125 515.325195312 109.8125 515.325195312 217.415039062 c 1024
-319.48828125 80.7685546875 m 1
 -285.874023438 33.1015625 -250.515625 25.6865234375 -205.377929688 25.6865234375 c 1024
EndSplineSet
Fore
Validated: 1
EndChar

StartChar: ccse
Encoding: 57409 57409 62
Width: 0
VWidth: 1540
LayerCount: 3
Back
SplineSet
-319.48828125 80.7685546875 m 5
 -285.874023438 33.1015625 -250.515625 25.6865234375 -205.377929688 25.6865234375 c 1028
EndSplineSet
Fore
Validated: 1
EndChar

StartChar: ccss
Encoding: 57410 57410 63
Width: 2048
LayerCount: 3
Back
SplineSet
-319.48828125 80.7685546875 m 5
 -285.874023438 33.1015625 -250.515625 25.6865234375 -205.377929688 25.6865234375 c 1028
EndSplineSet
Fore
Validated: 1
EndChar

StartChar: ccpi
Encoding: 57416 57416 64
Width: 2048
LayerCount: 3
Back
SplineSet
-447.618164062 487.490234375 m 4
 -447.618164062 486.426757812 -446.866210938 -488.243164062 -447.618164062 -487.490234375 c 1029
-447.618164062 25.578125 m 4
 -408.0390625 25.578125 -464.921875 25.578125 -407.747070312 25.578125 c 7
 -225.633789062 25.578125 -130.900390625 179.047851562 -130.900390625 332.516601562 c 7
 -130.900390625 431.8203125 -174.533203125 487.490234375 -231.708007812 487.490234375 c 7
 -338.53515625 487.490234375 -447.618164062 337.030273438 -447.618164062 256.534179688 c 1028
EndSplineSet
Fore
Validated: 1
EndChar

StartChar: ccpn
Encoding: 57417 57417 65
Width: 2048
LayerCount: 3
Back
SplineSet
-449.12109375 487.490234375 m 0
 -449.12109375 486.426757812 -448.368164062 -488.243164062 -449.12109375 -487.490234375 c 1025
-449.12109375 25.578125 m 4
 -409.541015625 25.578125 -466.423828125 25.578125 -409.249023438 25.578125 c 3
 -227.13671875 25.578125 -132.40234375 179.047851562 -132.40234375 332.516601562 c 3
 -132.40234375 431.8203125 -176.036132812 487.490234375 -233.2109375 487.490234375 c 3
 -340.037109375 487.490234375 -449.12109375 337.030273438 -449.12109375 256.534179688 c 1024
-447.616210938 25.578125 m 1
 -409.249023438 26.0595703125 l 1026
EndSplineSet
Fore
Validated: 1
EndChar

StartChar: ccpo
Encoding: 57419 57419 66
Width: 2048
LayerCount: 3
Back
SplineSet
497.68359375 442.362304688 m 1029
324.630859375 456.170898438 m 5
 348.014648438 476.0625 375.13671875 487.490234375 403.985351562 487.490234375 c 4
 439.00390625 487.490234375 471.477539062 470.7734375 497.811523438 442.540039062 c 1029
497.811523438 442.540039062 m 5
 537.1015625 400.415039062 562.720703125 332.654296875 562.720703125 256.534179688 c 0
 562.720703125 159.6484375 521.217773438 76.306640625 462.848632812 42.12890625 c 0
 444.622070312 31.4560546875 424.750976562 25.578125 403.985351562 25.578125 c 0
 316.71875 25.578125 245.25 128.643554688 245.25 255.782226562 c 0
 245.25 340.891601562 277.27734375 415.887695312 324.630859375 456.170898438 c 1029
EndSplineSet
Fore
Validated: 1
EndChar

StartChar: ccpa
Encoding: 57420 57420 67
Width: 2048
LayerCount: 3
Back
SplineSet
552.940429688 487.490234375 m 7
 530.510742188 487.490234375 526.043945312 487.490234375 513.068359375 487.490234375 c 7
 446.591796875 487.490234375 391.758789062 467.041015625 348.92578125 433.607421875 c 1029
348.92578125 433.607421875 m 1029
347.477539062 431.8203125 m 5
 5.93359375 145.194335938 l 6
 -106.8671875 50.53125 -228.506835938 26.8935546875 -294.987304688 26.0595703125 c 6
 -333.354492188 25.578125 l 1029
EndSplineSet
Fore
Validated: 1
EndChar

StartChar: ccpe
Encoding: 57421 57421 68
Width: 2048
LayerCount: 3
Back
SplineSet
-446.114257812 25.578125 m 5
 -446.114257812 25.578125 -407.747070312 26.330078125 -407.747070312 26.0595703125 c 6
 -337.047851562 26.9462890625 -204.625976562 48.1474609375 -115.854492188 108.331054688 c 1028
291.139648438 487.490234375 m 4
 340.040039062 487.490234375 391.948242188 457.404296875 391.948242188 406.2421875 c 7
 391.948242188 369.37890625 387.259765625 343.358398438 352.076171875 323.489257812 c 6
 -118.111328125 62.4404296875 l 6
 -164.75390625 36.1103515625 -234.717773438 25.578125 -315.966796875 25.578125 c 1028
EndSplineSet
Fore
Validated: 1
EndChar

StartChar: ccps
Encoding: 57422 57422 69
Width: 2048
LayerCount: 3
Back
SplineSet
-447.618164062 487.490234375 m 4
 -447.618164062 486.426757812 -446.866210938 -488.243164062 -447.618164062 -487.490234375 c 1029
-447.618164062 25.578125 m 4
 -408.0390625 25.578125 -464.921875 25.578125 -407.747070312 25.578125 c 7
 -225.633789062 25.578125 -130.900390625 179.047851562 -130.900390625 332.516601562 c 7
 -130.900390625 431.8203125 -174.533203125 487.490234375 -231.708007812 487.490234375 c 7
 -338.53515625 487.490234375 -447.618164062 337.030273438 -447.618164062 256.534179688 c 1028
EndSplineSet
Fore
Validated: 1
EndChar

StartChar: q
Encoding: 113 113 70
Width: 600
Flags: W
LayerCount: 3
Back
SplineSet
585 341 m 128
 585 344.333333333 586.666666667 346 590 346 c 128
 593.333333333 346 595 344.333333333 595 341 c 128
 595 337.666666667 593.333333333 336 590 336 c 128
 586.666666667 336 585 337.666666667 585 341 c 128
570 341 m 128
 570 344.333333333 571.666666667 346 575 346 c 128
 578.333333333 346 580 344.333333333 580 341 c 128
 580 337.666666667 578.333333333 336 575 336 c 128
 571.666666667 336 570 337.666666667 570 341 c 128
555 341 m 128
 555 344.333333333 556.666666667 346 560 346 c 128
 563.333333333 346 565 344.333333333 565 341 c 128
 565 337.666666667 563.333333333 336 560 336 c 128
 556.666666667 336 555 337.666666667 555 341 c 128
540 341 m 128
 540 344.333333333 541.666666667 346 545 346 c 128
 548.333333333 346 550 344.333333333 550 341 c 128
 550 337.666666667 548.333333333 336 545 336 c 128
 541.666666667 336 540 337.666666667 540 341 c 128
525 341 m 128
 525 344.333333333 526.666666667 346 530 346 c 128
 533.333333333 346 535 344.333333333 535 341 c 128
 535 337.666666667 533.333333333 336 530 336 c 128
 526.666666667 336 525 337.666666667 525 341 c 128
510 341 m 128
 510 344.333333333 511.666666667 346 515 346 c 128
 518.333333333 346 520 344.333333333 520 341 c 128
 520 337.666666667 518.333333333 336 515 336 c 128
 511.666666667 336 510 337.666666667 510 341 c 128
495 341 m 128
 495 344.333333333 496.666666667 346 500 346 c 128
 503.333333333 346 505 344.333333333 505 341 c 128
 505 337.666666667 503.333333333 336 500 336 c 128
 496.666666667 336 495 337.666666667 495 341 c 128
480 341 m 128
 480 344.333333333 481.666666667 346 485 346 c 128
 488.333333333 346 490 344.333333333 490 341 c 128
 490 337.666666667 488.333333333 336 485 336 c 128
 481.666666667 336 480 337.666666667 480 341 c 128
465 341 m 128
 465 344.333333333 466.666666667 346 470 346 c 128
 473.333333333 346 475 344.333333333 475 341 c 128
 475 337.666666667 473.333333333 336 470 336 c 128
 466.666666667 336 465 337.666666667 465 341 c 128
450 341 m 128
 450 344.333333333 451.666666667 346 455 346 c 128
 458.333333333 346 460 344.333333333 460 341 c 128
 460 337.666666667 458.333333333 336 455 336 c 128
 451.666666667 336 450 337.666666667 450 341 c 128
435 341 m 128
 435 344.333333333 436.666666667 346 440 346 c 128
 443.333333333 346 445 344.333333333 445 341 c 128
 445 337.666666667 443.333333333 336 440 336 c 128
 436.666666667 336 435 337.666666667 435 341 c 128
420 341 m 128
 420 344.333333333 421.666666667 346 425 346 c 128
 428.333333333 346 430 344.333333333 430 341 c 128
 430 337.666666667 428.333333333 336 425 336 c 128
 421.666666667 336 420 337.666666667 420 341 c 128
405 341 m 128
 405 344.333333333 406.666666667 346 410 346 c 128
 413.333333333 346 415 344.333333333 415 341 c 128
 415 337.666666667 413.333333333 336 410 336 c 128
 406.666666667 336 405 337.666666667 405 341 c 128
390 341 m 128
 390 344.333333333 391.666666667 346 395 346 c 128
 398.333333333 346 400 344.333333333 400 341 c 128
 400 337.666666667 398.333333333 336 395 336 c 128
 391.666666667 336 390 337.666666667 390 341 c 128
375 341 m 128
 375 344.333333333 376.666666667 346 380 346 c 128
 383.333333333 346 385 344.333333333 385 341 c 128
 385 337.666666667 383.333333333 336 380 336 c 128
 376.666666667 336 375 337.666666667 375 341 c 128
360 341 m 128
 360 344.333333333 361.666666667 346 365 346 c 128
 368.333333333 346 370 344.333333333 370 341 c 128
 370 337.666666667 368.333333333 336 365 336 c 128
 361.666666667 336 360 337.666666667 360 341 c 128
345 341 m 128
 345 344.333333333 346.666666667 346 350 346 c 128
 353.333333333 346 355 344.333333333 355 341 c 128
 355 337.666666667 353.333333333 336 350 336 c 128
 346.666666667 336 345 337.666666667 345 341 c 128
330 341 m 128
 330 344.333333333 331.666666667 346 335 346 c 128
 338.333333333 346 340 344.333333333 340 341 c 128
 340 337.666666667 338.333333333 336 335 336 c 128
 331.666666667 336 330 337.666666667 330 341 c 128
315 341 m 128
 315 344.333333333 316.666666667 346 320 346 c 128
 323.333333333 346 325 344.333333333 325 341 c 128
 325 337.666666667 323.333333333 336 320 336 c 128
 316.666666667 336 315 337.666666667 315 341 c 128
300 341 m 128
 300 344.333333333 301.666666667 346 305 346 c 128
 308.333333333 346 310 344.333333333 310 341 c 128
 310 337.666666667 308.333333333 336 305 336 c 128
 301.666666667 336 300 337.666666667 300 341 c 128
285 341 m 128
 285 344.333333333 286.666666667 346 290 346 c 128
 293.333333333 346 295 344.333333333 295 341 c 128
 295 337.666666667 293.333333333 336 290 336 c 128
 286.666666667 336 285 337.666666667 285 341 c 128
270 341 m 128
 270 344.333333333 271.666666667 346 275 346 c 128
 278.333333333 346 280 344.333333333 280 341 c 128
 280 337.666666667 278.333333333 336 275 336 c 128
 271.666666667 336 270 337.666666667 270 341 c 128
255 341 m 128
 255 344.333333333 256.666666667 346 260 346 c 128
 263.333333333 346 265 344.333333333 265 341 c 128
 265 337.666666667 263.333333333 336 260 336 c 128
 256.666666667 336 255 337.666666667 255 341 c 128
240 341 m 128
 240 344.333333333 241.666666667 346 245 346 c 128
 248.333333333 346 250 344.333333333 250 341 c 128
 250 337.666666667 248.333333333 336 245 336 c 128
 241.666666667 336 240 337.666666667 240 341 c 128
225 341 m 128
 225 344.333333333 226.666666667 346 230 346 c 128
 233.333333333 346 235 344.333333333 235 341 c 128
 235 337.666666667 233.333333333 336 230 336 c 128
 226.666666667 336 225 337.666666667 225 341 c 128
210 341 m 128
 210 344.333333333 211.666666667 346 215 346 c 128
 218.333333333 346 220 344.333333333 220 341 c 128
 220 337.666666667 218.333333333 336 215 336 c 128
 211.666666667 336 210 337.666666667 210 341 c 128
195 341 m 128
 195 344.333333333 196.666666667 346 200 346 c 128
 203.333333333 346 205 344.333333333 205 341 c 128
 205 337.666666667 203.333333333 336 200 336 c 128
 196.666666667 336 195 337.666666667 195 341 c 128
180 341 m 128
 180 344.333333333 181.666666667 346 185 346 c 128
 188.333333333 346 190 344.333333333 190 341 c 128
 190 337.666666667 188.333333333 336 185 336 c 128
 181.666666667 336 180 337.666666667 180 341 c 128
165 341 m 128
 165 344.333333333 166.666666667 346 170 346 c 128
 173.333333333 346 175 344.333333333 175 341 c 128
 175 337.666666667 173.333333333 336 170 336 c 128
 166.666666667 336 165 337.666666667 165 341 c 128
150 341 m 128
 150 344.333333333 151.666666667 346 155 346 c 128
 158.333333333 346 160 344.333333333 160 341 c 128
 160 337.666666667 158.333333333 336 155 336 c 128
 151.666666667 336 150 337.666666667 150 341 c 128
135 341 m 128
 135 344.333333333 136.666666667 346 140 346 c 128
 143.333333333 346 145 344.333333333 145 341 c 128
 145 337.666666667 143.333333333 336 140 336 c 128
 136.666666667 336 135 337.666666667 135 341 c 128
120 341 m 128
 120 344.333333333 121.666666667 346 125 346 c 128
 128.333333333 346 130 344.333333333 130 341 c 128
 130 337.666666667 128.333333333 336 125 336 c 128
 121.666666667 336 120 337.666666667 120 341 c 128
105 341 m 128
 105 344.333333333 106.666666667 346 110 346 c 128
 113.333333333 346 115 344.333333333 115 341 c 128
 115 337.666666667 113.333333333 336 110 336 c 128
 106.666666667 336 105 337.666666667 105 341 c 128
90 341 m 128
 90 344.333333333 91.6666666667 346 95 346 c 128
 98.3333333333 346 100 344.333333333 100 341 c 128
 100 337.666666667 98.3333333333 336 95 336 c 128
 91.6666666667 336 90 337.666666667 90 341 c 128
75 341 m 128
 75 344.333333333 76.6666666667 346 80 346 c 128
 83.3333333333 346 85 344.333333333 85 341 c 128
 85 337.666666667 83.3333333333 336 80 336 c 128
 76.6666666667 336 75 337.666666667 75 341 c 128
60 341 m 128
 60 344.333333333 61.6666666667 346 65 346 c 128
 68.3333333333 346 70 344.333333333 70 341 c 128
 70 337.666666667 68.3333333333 336 65 336 c 128
 61.6666666667 336 60 337.666666667 60 341 c 128
45 341 m 128
 45 344.333333333 46.6666666667 346 50 346 c 128
 53.3333333333 346 55 344.333333333 55 341 c 128
 55 337.666666667 53.3333333333 336 50 336 c 128
 46.6666666667 336 45 337.666666667 45 341 c 128
30 341 m 128
 30 344.333333333 31.6666666667 346 35 346 c 128
 38.3333333333 346 40 344.333333333 40 341 c 128
 40 337.666666667 38.3333333333 336 35 336 c 128
 31.6666666667 336 30 337.666666667 30 341 c 128
15 341 m 128
 15 344.333333333 16.6666666667 346 20 346 c 128
 23.3333333333 346 25 344.333333333 25 341 c 128
 25 337.666666667 23.3333333333 336 20 336 c 128
 16.6666666667 336 15 337.666666667 15 341 c 128
0 341 m 128
 0 344.333333333 1.66666666667 346 5 346 c 128
 8.33333333333 346 10 344.333333333 10 341 c 128
 10 337.666666667 8.33333333333 336 5 336 c 128
 1.66666666667 336 0 337.666666667 0 341 c 128
550 687 m 1
 580 687 l 1
 580 677 l 1
 550 677 l 1
 550 687 l 1
500 687 m 1
 530 687 l 1
 530 677 l 1
 500 677 l 1
 500 687 l 1
450 687 m 1
 480 687 l 1
 480 677 l 1
 450 677 l 1
 450 687 l 1
400 687 m 1
 430 687 l 1
 430 677 l 1
 400 677 l 1
 400 687 l 1
350 687 m 1
 380 687 l 1
 380 677 l 1
 350 677 l 1
 350 687 l 1
300 687 m 1
 330 687 l 1
 330 677 l 1
 300 677 l 1
 300 687 l 1
250 687 m 1
 280 687 l 1
 280 677 l 1
 250 677 l 1
 250 687 l 1
200 687 m 1
 230 687 l 1
 230 677 l 1
 200 677 l 1
 200 687 l 1
150 687 m 1
 180 687 l 1
 180 677 l 1
 150 677 l 1
 150 687 l 1
100 687 m 1
 130 687 l 1
 130 677 l 1
 100 677 l 1
 100 687 l 1
50 687 m 1
 80 687 l 1
 80 677 l 1
 50 677 l 1
 50 687 l 1
0 -677 m 1
 602 -677 l 1
 602 -687 l 1
 0 -687 l 1
 0 -677 l 1
0 687 m 1
 30 687 l 1
 30 677 l 1
 0 677 l 1
 0 687 l 1
0 1369 m 5
 602 1369 l 5
 602 1359 l 5
 0 1359 l 5
 0 1369 l 5
0 8 m 1
 602 8 l 1
 602 -8 l 1
 0 -8 l 1
 0 8 l 1
EndSplineSet
Fore
SplineSet
0 1369 m 5,0,-1
 602 1369 l 5,1,-1
 602 1359 l 5,2,-1
 0 1359 l 5,3,-1
 0 1369 l 5,0,-1
0 -677 m 1,4,-1
 602 -677 l 1,5,-1
 602 -687 l 1,6,-1
 0 -687 l 1,7,-1
 0 -677 l 1,4,-1
550 687 m 5,8,-1
 580 687 l 5,9,-1
 580 677 l 5,10,-1
 550 677 l 5,11,-1
 550 687 l 5,8,-1
500 687 m 5,12,-1
 530 687 l 5,13,-1
 530 677 l 5,14,-1
 500 677 l 5,15,-1
 500 687 l 5,12,-1
450 687 m 5,16,-1
 480 687 l 5,17,-1
 480 677 l 5,18,-1
 450 677 l 5,19,-1
 450 687 l 5,16,-1
400 687 m 5,20,-1
 430 687 l 5,21,-1
 430 677 l 5,22,-1
 400 677 l 5,23,-1
 400 687 l 5,20,-1
350 687 m 5,24,-1
 380 687 l 5,25,-1
 380 677 l 5,26,-1
 350 677 l 5,27,-1
 350 687 l 5,24,-1
300 687 m 5,28,-1
 330 687 l 5,29,-1
 330 677 l 5,30,-1
 300 677 l 5,31,-1
 300 687 l 5,28,-1
250 687 m 5,32,-1
 280 687 l 5,33,-1
 280 677 l 5,34,-1
 250 677 l 5,35,-1
 250 687 l 5,32,-1
200 687 m 5,36,-1
 230 687 l 5,37,-1
 230 677 l 5,38,-1
 200 677 l 5,39,-1
 200 687 l 5,36,-1
150 687 m 5,40,-1
 180 687 l 5,41,-1
 180 677 l 5,42,-1
 150 677 l 5,43,-1
 150 687 l 5,40,-1
100 687 m 5,44,-1
 130 687 l 5,45,-1
 130 677 l 5,46,-1
 100 677 l 5,47,-1
 100 687 l 5,44,-1
50 687 m 5,48,-1
 80 687 l 5,49,-1
 80 677 l 5,50,-1
 50 677 l 5,51,-1
 50 687 l 5,48,-1
0 687 m 5,52,-1
 30 687 l 5,53,-1
 30 677 l 5,54,-1
 0 677 l 5,55,-1
 0 687 l 5,52,-1
0 8 m 5,56,-1
 602 8 l 5,57,-1
 602 -8 l 5,58,-1
 0 -8 l 5,59,-1
 0 8 l 5,56,-1
585 341 m 132,-1,61
 585 346 585 346 590 346 c 132,-1,62
 595 346 595 346 595 341 c 132,-1,63
 595 336 595 336 590 336 c 132,-1,60
 585 336 585 336 585 341 c 132,-1,61
570 341 m 132,-1,65
 570 346 570 346 575 346 c 132,-1,66
 580 346 580 346 580 341 c 132,-1,67
 580 336 580 336 575 336 c 132,-1,64
 570 336 570 336 570 341 c 132,-1,65
555 341 m 132,-1,69
 555 346 555 346 560 346 c 132,-1,70
 565 346 565 346 565 341 c 132,-1,71
 565 336 565 336 560 336 c 132,-1,68
 555 336 555 336 555 341 c 132,-1,69
540 341 m 132,-1,73
 540 346 540 346 545 346 c 132,-1,74
 550 346 550 346 550 341 c 132,-1,75
 550 336 550 336 545 336 c 132,-1,72
 540 336 540 336 540 341 c 132,-1,73
525 341 m 132,-1,77
 525 346 525 346 530 346 c 132,-1,78
 535 346 535 346 535 341 c 132,-1,79
 535 336 535 336 530 336 c 132,-1,76
 525 336 525 336 525 341 c 132,-1,77
510 341 m 132,-1,81
 510 346 510 346 515 346 c 132,-1,82
 520 346 520 346 520 341 c 132,-1,83
 520 336 520 336 515 336 c 132,-1,80
 510 336 510 336 510 341 c 132,-1,81
495 341 m 132,-1,85
 495 346 495 346 500 346 c 132,-1,86
 505 346 505 346 505 341 c 132,-1,87
 505 336 505 336 500 336 c 132,-1,84
 495 336 495 336 495 341 c 132,-1,85
480 341 m 132,-1,89
 480 346 480 346 485 346 c 132,-1,90
 490 346 490 346 490 341 c 132,-1,91
 490 336 490 336 485 336 c 132,-1,88
 480 336 480 336 480 341 c 132,-1,89
465 341 m 132,-1,93
 465 346 465 346 470 346 c 132,-1,94
 475 346 475 346 475 341 c 132,-1,95
 475 336 475 336 470 336 c 132,-1,92
 465 336 465 336 465 341 c 132,-1,93
450 341 m 132,-1,97
 450 346 450 346 455 346 c 132,-1,98
 460 346 460 346 460 341 c 132,-1,99
 460 336 460 336 455 336 c 132,-1,96
 450 336 450 336 450 341 c 132,-1,97
435 341 m 132,-1,101
 435 346 435 346 440 346 c 132,-1,102
 445 346 445 346 445 341 c 132,-1,103
 445 336 445 336 440 336 c 132,-1,100
 435 336 435 336 435 341 c 132,-1,101
420 341 m 132,-1,105
 420 346 420 346 425 346 c 132,-1,106
 430 346 430 346 430 341 c 132,-1,107
 430 336 430 336 425 336 c 132,-1,104
 420 336 420 336 420 341 c 132,-1,105
405 341 m 132,-1,109
 405 346 405 346 410 346 c 132,-1,110
 415 346 415 346 415 341 c 132,-1,111
 415 336 415 336 410 336 c 132,-1,108
 405 336 405 336 405 341 c 132,-1,109
390 341 m 132,-1,113
 390 346 390 346 395 346 c 132,-1,114
 400 346 400 346 400 341 c 132,-1,115
 400 336 400 336 395 336 c 132,-1,112
 390 336 390 336 390 341 c 132,-1,113
375 341 m 132,-1,117
 375 346 375 346 380 346 c 132,-1,118
 385 346 385 346 385 341 c 132,-1,119
 385 336 385 336 380 336 c 132,-1,116
 375 336 375 336 375 341 c 132,-1,117
360 341 m 132,-1,121
 360 346 360 346 365 346 c 132,-1,122
 370 346 370 346 370 341 c 132,-1,123
 370 336 370 336 365 336 c 132,-1,120
 360 336 360 336 360 341 c 132,-1,121
345 341 m 132,-1,125
 345 346 345 346 350 346 c 132,-1,126
 355 346 355 346 355 341 c 132,-1,127
 355 336 355 336 350 336 c 132,-1,124
 345 336 345 336 345 341 c 132,-1,125
330 341 m 132,-1,129
 330 346 330 346 335 346 c 132,-1,130
 340 346 340 346 340 341 c 132,-1,131
 340 336 340 336 335 336 c 132,-1,128
 330 336 330 336 330 341 c 132,-1,129
315 341 m 132,-1,133
 315 346 315 346 320 346 c 132,-1,134
 325 346 325 346 325 341 c 132,-1,135
 325 336 325 336 320 336 c 132,-1,132
 315 336 315 336 315 341 c 132,-1,133
300 341 m 132,-1,137
 300 346 300 346 305 346 c 132,-1,138
 310 346 310 346 310 341 c 132,-1,139
 310 336 310 336 305 336 c 132,-1,136
 300 336 300 336 300 341 c 132,-1,137
285 341 m 132,-1,141
 285 346 285 346 290 346 c 132,-1,142
 295 346 295 346 295 341 c 132,-1,143
 295 336 295 336 290 336 c 132,-1,140
 285 336 285 336 285 341 c 132,-1,141
270 341 m 132,-1,145
 270 346 270 346 275 346 c 132,-1,146
 280 346 280 346 280 341 c 132,-1,147
 280 336 280 336 275 336 c 132,-1,144
 270 336 270 336 270 341 c 132,-1,145
255 341 m 132,-1,149
 255 346 255 346 260 346 c 132,-1,150
 265 346 265 346 265 341 c 132,-1,151
 265 336 265 336 260 336 c 132,-1,148
 255 336 255 336 255 341 c 132,-1,149
240 341 m 132,-1,153
 240 346 240 346 245 346 c 132,-1,154
 250 346 250 346 250 341 c 132,-1,155
 250 336 250 336 245 336 c 132,-1,152
 240 336 240 336 240 341 c 132,-1,153
225 341 m 132,-1,157
 225 346 225 346 230 346 c 132,-1,158
 235 346 235 346 235 341 c 132,-1,159
 235 336 235 336 230 336 c 132,-1,156
 225 336 225 336 225 341 c 132,-1,157
210 341 m 132,-1,161
 210 346 210 346 215 346 c 132,-1,162
 220 346 220 346 220 341 c 132,-1,163
 220 336 220 336 215 336 c 132,-1,160
 210 336 210 336 210 341 c 132,-1,161
195 341 m 132,-1,165
 195 346 195 346 200 346 c 132,-1,166
 205 346 205 346 205 341 c 132,-1,167
 205 336 205 336 200 336 c 132,-1,164
 195 336 195 336 195 341 c 132,-1,165
180 341 m 132,-1,169
 180 346 180 346 185 346 c 132,-1,170
 190 346 190 346 190 341 c 132,-1,171
 190 336 190 336 185 336 c 132,-1,168
 180 336 180 336 180 341 c 132,-1,169
165 341 m 132,-1,173
 165 346 165 346 170 346 c 132,-1,174
 175 346 175 346 175 341 c 132,-1,175
 175 336 175 336 170 336 c 132,-1,172
 165 336 165 336 165 341 c 132,-1,173
150 341 m 132,-1,177
 150 346 150 346 155 346 c 132,-1,178
 160 346 160 346 160 341 c 132,-1,179
 160 336 160 336 155 336 c 132,-1,176
 150 336 150 336 150 341 c 132,-1,177
135 341 m 132,-1,181
 135 346 135 346 140 346 c 132,-1,182
 145 346 145 346 145 341 c 132,-1,183
 145 336 145 336 140 336 c 132,-1,180
 135 336 135 336 135 341 c 132,-1,181
120 341 m 132,-1,185
 120 346 120 346 125 346 c 132,-1,186
 130 346 130 346 130 341 c 132,-1,187
 130 336 130 336 125 336 c 132,-1,184
 120 336 120 336 120 341 c 132,-1,185
105 341 m 132,-1,189
 105 346 105 346 110 346 c 132,-1,190
 115 346 115 346 115 341 c 132,-1,191
 115 336 115 336 110 336 c 132,-1,188
 105 336 105 336 105 341 c 132,-1,189
90 341 m 132,-1,193
 90 346 90 346 95 346 c 132,-1,194
 100 346 100 346 100 341 c 132,-1,195
 100 336 100 336 95 336 c 132,-1,192
 90 336 90 336 90 341 c 132,-1,193
75 341 m 132,-1,197
 75 346 75 346 80 346 c 132,-1,198
 85 346 85 346 85 341 c 132,-1,199
 85 336 85 336 80 336 c 132,-1,196
 75 336 75 336 75 341 c 132,-1,197
60 341 m 132,-1,201
 60 346 60 346 65 346 c 132,-1,202
 70 346 70 346 70 341 c 132,-1,203
 70 336 70 336 65 336 c 132,-1,200
 60 336 60 336 60 341 c 132,-1,201
45 341 m 132,-1,205
 45 346 45 346 50 346 c 132,-1,206
 55 346 55 346 55 341 c 132,-1,207
 55 336 55 336 50 336 c 132,-1,204
 45 336 45 336 45 341 c 132,-1,205
30 341 m 132,-1,209
 30 346 30 346 35 346 c 132,-1,210
 40 346 40 346 40 341 c 132,-1,211
 40 336 40 336 35 336 c 132,-1,208
 30 336 30 336 30 341 c 132,-1,209
15 341 m 132,-1,213
 15 346 15 346 20 346 c 132,-1,214
 25 346 25 346 25 341 c 132,-1,215
 25 336 25 336 20 336 c 132,-1,212
 15 336 15 336 15 341 c 132,-1,213
0 341 m 132,-1,217
 0 346 0 346 5 346 c 132,-1,218
 10 346 10 346 10 341 c 132,-1,219
 10 336 10 336 5 336 c 132,-1,216
 0 336 0 336 0 341 c 132,-1,217
EndSplineSet
Validated: 1
EndChar

StartChar: f
Encoding: 102 102 71
Width: 600
Flags: W
LayerCount: 3
Fore
SplineSet
0 1369 m 5,0,-1
 602 1369 l 5,1,-1
 602 1359 l 5,2,-1
 0 1359 l 5,3,-1
 0 1369 l 5,0,-1
EndSplineSet
Validated: 1
EndChar

StartChar: cczi
Encoding: 57428 57428 72
Width: 0
VWidth: 1540
LayerCount: 3
Back
SplineSet
-132.405273438 25.578125 m 7
 -100.80859375 25.578125 -84.794921875 54.935546875 -73.7255859375 77.4873046875 c 14
 127.890625 488.243164062 l 1029
-187.572265625 25.5361328125 m 7
 -90.2763671875 25.5361328125 -9.7802734375 -177.030273438 -9.7802734375 -317.470703125 c 23
 -9.7802734375 -410.00390625 -40.6240234375 -486.73828125 -99.3037109375 -486.73828125 c 7
 -157.983398438 -486.73828125 -188.827148438 -410.00390625 -188.827148438 -317.470703125 c 6
 -188.827148438 485.985351562 l 1029
-188.827148438 487.490234375 m 1029
-188.827148438 487.490234375 m 4
 -228.407226562 487.490234375 -171.524414062 487.490234375 -228.69921875 487.490234375 c 7
 -410.811523438 487.490234375 -505.545898438 334.021484375 -505.545898438 180.551757812 c 7
 -505.545898438 81.248046875 -461.912109375 25.578125 -404.737304688 25.578125 c 7
 -297.911132812 25.578125 -188.827148438 176.038085938 -188.827148438 256.534179688 c 1028
EndSplineSet
Fore
Validated: 1
EndChar

StartChar: cczn
Encoding: 57429 57429 73
Width: 2048
LayerCount: 3
Back
SplineSet
180.5546875 410.755859375 m 4
 180.5546875 451.379882812 167.764648438 487.490234375 124.131835938 487.490234375 c 7
 92.53515625 487.490234375 76.564453125 458.987304688 65.4521484375 436.333984375 c 6
 -110.5859375 77.4873046875 l 5
 -121.704101562 54.8359375 -137.668945312 26.330078125 -169.265625 26.330078125 c 1028
-187.572265625 25.5361328125 m 3
 -90.2763671875 25.5361328125 -9.7802734375 -177.030273438 -9.7802734375 -317.470703125 c 19
 -9.7802734375 -410.00390625 -40.6240234375 -486.73828125 -99.3037109375 -486.73828125 c 3
 -157.983398438 -486.73828125 -188.827148438 -410.00390625 -188.827148438 -317.470703125 c 2
 -188.827148438 485.985351562 l 1025
-188.827148438 487.490234375 m 1025
-188.827148438 487.490234375 m 0
 -228.407226562 487.490234375 -171.524414062 487.490234375 -228.69921875 487.490234375 c 3
 -410.811523438 487.490234375 -505.545898438 334.021484375 -505.545898438 180.551757812 c 3
 -505.545898438 81.248046875 -461.912109375 25.578125 -404.737304688 25.578125 c 3
 -297.911132812 25.578125 -188.827148438 176.038085938 -188.827148438 256.534179688 c 1024
EndSplineSet
Fore
Validated: 1
EndChar

StartChar: cczh
Encoding: 57430 57430 74
Width: 2048
LayerCount: 3
Back
SplineSet
-71.46875 25.578125 m 0
 -99.7646484375 25.578125 -130.221679688 46.798828125 -150.168945312 59.431640625 c 0
 -172.73828125 73.7255859375 -203.4296875 76.734375 -230.665039062 76.734375 c 0
 -293.106445312 76.734375 -358.556640625 57.9267578125 -389.400390625 25.578125 c 1
 -73.4345703125 487.490234375 l 17
 -88.0185546875 466.42578125 -151.211914062 436.333984375 -231.708007812 436.333984375 c 0
 -258.943359375 436.333984375 -289.634765625 439.342773438 -312.204101562 453.63671875 c 0
 -332.150390625 466.26953125 -355.0859375 487.490234375 -388.9375 487.490234375 c 1024
EndSplineSet
Fore
Validated: 1
EndChar

StartChar: cczo
Encoding: 57431 57431 75
Width: 0
VWidth: 1540
LayerCount: 3
Back
SplineSet
460.068359375 442.362304688 m 1029
207.634765625 255.782226562 m 4
 207.634765625 382.920898438 279.103515625 487.490234375 366.370117188 487.490234375 c 4
 453.63671875 487.490234375 525.10546875 383.672851562 525.10546875 256.534179688 c 4
 525.10546875 159.6484375 483.602539062 76.306640625 425.233398438 42.12890625 c 4
 407.006835938 31.4560546875 387.135742188 25.578125 366.370117188 25.578125 c 4
 279.103515625 25.578125 207.634765625 128.643554688 207.634765625 255.782226562 c 4
-81.2490234375 55.669921875 m 2
 136.166015625 410.755859375 l 1025
-185.818359375 25.578125 m 3
 -151.96484375 25.578125 -113.055664062 43.5615234375 -66.955078125 128.643554688 c 1034
EndSplineSet
Fore
Validated: 1
EndChar

StartChar: ccza
Encoding: 57432 57432 76
Width: 0
VWidth: 1540
LayerCount: 3
Back
SplineSet
515.325195312 412.260742188 m 4
 493.508789062 440.84765625 445.361328125 487.490234375 384.42578125 487.490234375 c 4
 271.881835938 487.490234375 198.532226562 381.416015625 198.532226562 255.782226562 c 1028
EndSplineSet
Fore
Validated: 1
EndChar

StartChar: cczs
Encoding: 57434 57434 77
Width: 2048
LayerCount: 3
Back
SplineSet
-132.405273438 25.578125 m 7
 -111.581054688 25.578125 -88.248046875 38.09375 -75.23046875 50.404296875 c 6
 375.397460938 487.490234375 l 1029
EndSplineSet
Fore
Validated: 1
EndChar

StartChar: x
Encoding: 120 120 79
Width: 682
VWidth: 1540
Flags: W
LayerCount: 3
Back
SplineSet
2 682 m 31
 261 682 421 682 680 682 c 1052
0 0 m 5
 682 0 l 5
 682 454.666666667 682 909.333333333 682 1364 c 5
 0 1364 l 5
 0 0 l 5
EndSplineSet
Fore
SplineSet
677.000980447 1359.00098045 m 1,0,-1
 4.9990195527 1359.00098045 l 1,1,-1
 4.9990195527 686.999019553 l 1,2,-1
 677.000980447 686.999019553 l 1,3,-1
 677.000980447 1359.00098045 l 1,0,-1
-4.9990195527 -4.9990195527 m 1,4,-1
 -4.9990195527 1368.99901955 l 1,5,-1
 686.999019553 1368.99901955 l 1,6,-1
 686.999019553 -4.9990195527 l 1,7,-1
 -4.9990195527 -4.9990195527 l 1,4,-1
4.9990195527 677.000980447 m 1,8,-1
 4.9990195527 4.9990195527 l 1,9,-1
 677.000980447 4.9990195527 l 1,10,-1
 677.000980447 677.000980447 l 1,11,-1
 4.9990195527 677.000980447 l 1,8,-1
EndSplineSet
Validated: 1
EndChar

StartChar: z
Encoding: 122 122 80
Width: 682
VWidth: 1540
Flags: W
LayerCount: 3
Back
SplineSet
0 682 m 5
 684 682 l 5
 684 0 l 5
 0 0 l 5
 0 682 l 5
EndSplineSet
Fore
Validated: 1
EndChar

StartChar: csz
Encoding: 57546 57546 81
Width: 2048
LayerCount: 3
Back
SplineSet
322.24609375 461.516601562 m 5
 200.357421875 281.810546875 24 25.578125 24 25.578125 c 1028
EndSplineSet
Fore
Validated: 1
Comment: "Starting stroke towards z, parallel with internal stroke of this letter."
EndChar

StartChar: uniE069
Encoding: 57449 57449 82
Width: 2048
LayerCount: 3
Back
SplineSet
456 648 m 29
 456 648 198 272 35 34 c 1053
489.640625 648 m 7
 447.640625 648 427 610 411.640625 580 c 1028
EndSplineSet
Fore
Validated: 1
Comment: "Starting stroke towards x, parallel with internal stroke of this letter."
EndChar

StartChar: r
Encoding: 114 114 83
Width: 600
Flags: W
LayerCount: 3
Back
SplineSet
0 -674 m 5
 601 -674 l 5
 601 -690 l 5
 0 -690 l 5
 0 -674 l 5
0 1372 m 5
 601 1372 l 5
 601 1356 l 5
 0 1356 l 5
 0 1372 l 5
0 14 m 5
 601 14 l 5
 601 -14 l 5
 0 -14 l 5
 0 14 l 5
EndSplineSet
Fore
SplineSet
585 341 m 132,-1,1
 585 346 585 346 590 346 c 132,-1,2
 595 346 595 346 595 341 c 132,-1,3
 595 336 595 336 590 336 c 132,-1,0
 585 336 585 336 585 341 c 132,-1,1
570 341 m 132,-1,5
 570 346 570 346 575 346 c 132,-1,6
 580 346 580 346 580 341 c 132,-1,7
 580 336 580 336 575 336 c 132,-1,4
 570 336 570 336 570 341 c 132,-1,5
555 341 m 132,-1,9
 555 346 555 346 560 346 c 132,-1,10
 565 346 565 346 565 341 c 132,-1,11
 565 336 565 336 560 336 c 132,-1,8
 555 336 555 336 555 341 c 132,-1,9
540 341 m 132,-1,13
 540 346 540 346 545 346 c 132,-1,14
 550 346 550 346 550 341 c 132,-1,15
 550 336 550 336 545 336 c 132,-1,12
 540 336 540 336 540 341 c 132,-1,13
525 341 m 132,-1,17
 525 346 525 346 530 346 c 132,-1,18
 535 346 535 346 535 341 c 132,-1,19
 535 336 535 336 530 336 c 132,-1,16
 525 336 525 336 525 341 c 132,-1,17
510 341 m 132,-1,21
 510 346 510 346 515 346 c 132,-1,22
 520 346 520 346 520 341 c 132,-1,23
 520 336 520 336 515 336 c 132,-1,20
 510 336 510 336 510 341 c 132,-1,21
495 341 m 132,-1,25
 495 346 495 346 500 346 c 132,-1,26
 505 346 505 346 505 341 c 132,-1,27
 505 336 505 336 500 336 c 132,-1,24
 495 336 495 336 495 341 c 132,-1,25
480 341 m 132,-1,29
 480 346 480 346 485 346 c 132,-1,30
 490 346 490 346 490 341 c 132,-1,31
 490 336 490 336 485 336 c 132,-1,28
 480 336 480 336 480 341 c 132,-1,29
465 341 m 132,-1,33
 465 346 465 346 470 346 c 132,-1,34
 475 346 475 346 475 341 c 132,-1,35
 475 336 475 336 470 336 c 132,-1,32
 465 336 465 336 465 341 c 132,-1,33
450 341 m 132,-1,37
 450 346 450 346 455 346 c 132,-1,38
 460 346 460 346 460 341 c 132,-1,39
 460 336 460 336 455 336 c 132,-1,36
 450 336 450 336 450 341 c 132,-1,37
435 341 m 132,-1,41
 435 346 435 346 440 346 c 132,-1,42
 445 346 445 346 445 341 c 132,-1,43
 445 336 445 336 440 336 c 132,-1,40
 435 336 435 336 435 341 c 132,-1,41
420 341 m 132,-1,45
 420 346 420 346 425 346 c 132,-1,46
 430 346 430 346 430 341 c 132,-1,47
 430 336 430 336 425 336 c 132,-1,44
 420 336 420 336 420 341 c 132,-1,45
405 341 m 132,-1,49
 405 346 405 346 410 346 c 132,-1,50
 415 346 415 346 415 341 c 132,-1,51
 415 336 415 336 410 336 c 132,-1,48
 405 336 405 336 405 341 c 132,-1,49
390 341 m 132,-1,53
 390 346 390 346 395 346 c 132,-1,54
 400 346 400 346 400 341 c 132,-1,55
 400 336 400 336 395 336 c 132,-1,52
 390 336 390 336 390 341 c 132,-1,53
375 341 m 132,-1,57
 375 346 375 346 380 346 c 132,-1,58
 385 346 385 346 385 341 c 132,-1,59
 385 336 385 336 380 336 c 132,-1,56
 375 336 375 336 375 341 c 132,-1,57
360 341 m 132,-1,61
 360 346 360 346 365 346 c 132,-1,62
 370 346 370 346 370 341 c 132,-1,63
 370 336 370 336 365 336 c 132,-1,60
 360 336 360 336 360 341 c 132,-1,61
345 341 m 132,-1,65
 345 346 345 346 350 346 c 132,-1,66
 355 346 355 346 355 341 c 132,-1,67
 355 336 355 336 350 336 c 132,-1,64
 345 336 345 336 345 341 c 132,-1,65
330 341 m 132,-1,69
 330 346 330 346 335 346 c 132,-1,70
 340 346 340 346 340 341 c 132,-1,71
 340 336 340 336 335 336 c 132,-1,68
 330 336 330 336 330 341 c 132,-1,69
315 341 m 132,-1,73
 315 346 315 346 320 346 c 132,-1,74
 325 346 325 346 325 341 c 132,-1,75
 325 336 325 336 320 336 c 132,-1,72
 315 336 315 336 315 341 c 132,-1,73
300 341 m 132,-1,77
 300 346 300 346 305 346 c 132,-1,78
 310 346 310 346 310 341 c 132,-1,79
 310 336 310 336 305 336 c 132,-1,76
 300 336 300 336 300 341 c 132,-1,77
285 341 m 132,-1,81
 285 346 285 346 290 346 c 132,-1,82
 295 346 295 346 295 341 c 132,-1,83
 295 336 295 336 290 336 c 132,-1,80
 285 336 285 336 285 341 c 132,-1,81
270 341 m 132,-1,85
 270 346 270 346 275 346 c 132,-1,86
 280 346 280 346 280 341 c 132,-1,87
 280 336 280 336 275 336 c 132,-1,84
 270 336 270 336 270 341 c 132,-1,85
255 341 m 132,-1,89
 255 346 255 346 260 346 c 132,-1,90
 265 346 265 346 265 341 c 132,-1,91
 265 336 265 336 260 336 c 132,-1,88
 255 336 255 336 255 341 c 132,-1,89
240 341 m 132,-1,93
 240 346 240 346 245 346 c 132,-1,94
 250 346 250 346 250 341 c 132,-1,95
 250 336 250 336 245 336 c 132,-1,92
 240 336 240 336 240 341 c 132,-1,93
225 341 m 132,-1,97
 225 346 225 346 230 346 c 132,-1,98
 235 346 235 346 235 341 c 132,-1,99
 235 336 235 336 230 336 c 132,-1,96
 225 336 225 336 225 341 c 132,-1,97
210 341 m 132,-1,101
 210 346 210 346 215 346 c 132,-1,102
 220 346 220 346 220 341 c 132,-1,103
 220 336 220 336 215 336 c 132,-1,100
 210 336 210 336 210 341 c 132,-1,101
195 341 m 132,-1,105
 195 346 195 346 200 346 c 132,-1,106
 205 346 205 346 205 341 c 132,-1,107
 205 336 205 336 200 336 c 132,-1,104
 195 336 195 336 195 341 c 132,-1,105
180 341 m 132,-1,109
 180 346 180 346 185 346 c 132,-1,110
 190 346 190 346 190 341 c 132,-1,111
 190 336 190 336 185 336 c 132,-1,108
 180 336 180 336 180 341 c 132,-1,109
165 341 m 132,-1,113
 165 346 165 346 170 346 c 132,-1,114
 175 346 175 346 175 341 c 132,-1,115
 175 336 175 336 170 336 c 132,-1,112
 165 336 165 336 165 341 c 132,-1,113
150 341 m 132,-1,117
 150 346 150 346 155 346 c 132,-1,118
 160 346 160 346 160 341 c 132,-1,119
 160 336 160 336 155 336 c 132,-1,116
 150 336 150 336 150 341 c 132,-1,117
135 341 m 132,-1,121
 135 346 135 346 140 346 c 132,-1,122
 145 346 145 346 145 341 c 132,-1,123
 145 336 145 336 140 336 c 132,-1,120
 135 336 135 336 135 341 c 132,-1,121
120 341 m 132,-1,125
 120 346 120 346 125 346 c 132,-1,126
 130 346 130 346 130 341 c 132,-1,127
 130 336 130 336 125 336 c 132,-1,124
 120 336 120 336 120 341 c 132,-1,125
105 341 m 132,-1,129
 105 346 105 346 110 346 c 132,-1,130
 115 346 115 346 115 341 c 132,-1,131
 115 336 115 336 110 336 c 132,-1,128
 105 336 105 336 105 341 c 132,-1,129
90 341 m 132,-1,133
 90 346 90 346 95 346 c 132,-1,134
 100 346 100 346 100 341 c 132,-1,135
 100 336 100 336 95 336 c 132,-1,132
 90 336 90 336 90 341 c 132,-1,133
75 341 m 132,-1,137
 75 346 75 346 80 346 c 132,-1,138
 85 346 85 346 85 341 c 132,-1,139
 85 336 85 336 80 336 c 132,-1,136
 75 336 75 336 75 341 c 132,-1,137
60 341 m 132,-1,141
 60 346 60 346 65 346 c 132,-1,142
 70 346 70 346 70 341 c 132,-1,143
 70 336 70 336 65 336 c 132,-1,140
 60 336 60 336 60 341 c 132,-1,141
45 341 m 132,-1,145
 45 346 45 346 50 346 c 132,-1,146
 55 346 55 346 55 341 c 132,-1,147
 55 336 55 336 50 336 c 132,-1,144
 45 336 45 336 45 341 c 132,-1,145
30 341 m 132,-1,149
 30 346 30 346 35 346 c 132,-1,150
 40 346 40 346 40 341 c 132,-1,151
 40 336 40 336 35 336 c 132,-1,148
 30 336 30 336 30 341 c 132,-1,149
15 341 m 132,-1,153
 15 346 15 346 20 346 c 132,-1,154
 25 346 25 346 25 341 c 132,-1,155
 25 336 25 336 20 336 c 132,-1,152
 15 336 15 336 15 341 c 132,-1,153
0 341 m 132,-1,157
 0 346 0 346 5 346 c 132,-1,158
 10 346 10 346 10 341 c 132,-1,159
 10 336 10 336 5 336 c 132,-1,156
 0 336 0 336 0 341 c 132,-1,157
EndSplineSet
Validated: 1
EndChar

StartChar: t
Encoding: 116 116 84
Width: 600
Flags: W
LayerCount: 3
Fore
SplineSet
574.928710938 341 m 5,0,-1
 582 348.071289062 l 5,1,-1
 589.071289062 341 l 5,2,-1
 582 333.928710938 l 5,3,-1
 574.928710938 341 l 5,0,-1
549.928710938 341 m 5,4,-1
 557 348.071289062 l 5,5,-1
 564.071289062 341 l 5,6,-1
 557 333.928710938 l 5,7,-1
 549.928710938 341 l 5,4,-1
524.928710938 341 m 5,8,-1
 532 348.071289062 l 5,9,-1
 539.071289062 341 l 5,10,-1
 532 333.928710938 l 5,11,-1
 524.928710938 341 l 5,8,-1
499.928710938 341 m 5,12,-1
 507 348.071289062 l 5,13,-1
 514.071289062 341 l 5,14,-1
 507 333.928710938 l 5,15,-1
 499.928710938 341 l 5,12,-1
474.928710938 341 m 5,16,-1
 482 348.071289062 l 5,17,-1
 489.071289062 341 l 5,18,-1
 482 333.928710938 l 5,19,-1
 474.928710938 341 l 5,16,-1
449.928710938 341 m 5,20,-1
 457 348.071289062 l 5,21,-1
 464.071289062 341 l 5,22,-1
 457 333.928710938 l 5,23,-1
 449.928710938 341 l 5,20,-1
424.928710938 341 m 5,24,-1
 432 348.071289062 l 5,25,-1
 439.071289062 341 l 5,26,-1
 432 333.928710938 l 5,27,-1
 424.928710938 341 l 5,24,-1
399.928710938 341 m 5,28,-1
 407 348.071289062 l 5,29,-1
 414.071289062 341 l 5,30,-1
 407 333.928710938 l 5,31,-1
 399.928710938 341 l 5,28,-1
374.928710938 341 m 5,32,-1
 382 348.071289062 l 5,33,-1
 389.071289062 341 l 5,34,-1
 382 333.928710938 l 5,35,-1
 374.928710938 341 l 5,32,-1
349.928710938 341 m 5,36,-1
 357 348.071289062 l 5,37,-1
 364.071289062 341 l 5,38,-1
 357 333.928710938 l 5,39,-1
 349.928710938 341 l 5,36,-1
324.928710938 341 m 5,40,-1
 332 348.071289062 l 5,41,-1
 339.071289062 341 l 5,42,-1
 332 333.928710938 l 5,43,-1
 324.928710938 341 l 5,40,-1
299.928710938 341 m 5,44,-1
 307 348.071289062 l 5,45,-1
 314.071289062 341 l 5,46,-1
 307 333.928710938 l 5,47,-1
 299.928710938 341 l 5,44,-1
274.928710938 341 m 5,48,-1
 282 348.071289062 l 5,49,-1
 289.071289062 341 l 5,50,-1
 282 333.928710938 l 5,51,-1
 274.928710938 341 l 5,48,-1
249.928710938 341 m 5,52,-1
 257 348.071289062 l 5,53,-1
 264.071289062 341 l 5,54,-1
 257 333.928710938 l 5,55,-1
 249.928710938 341 l 5,52,-1
224.928710938 341 m 5,56,-1
 232 348.071289062 l 5,57,-1
 239.071289062 341 l 5,58,-1
 232 333.928710938 l 5,59,-1
 224.928710938 341 l 5,56,-1
199.928710938 341 m 5,60,-1
 207 348.071289062 l 5,61,-1
 214.071289062 341 l 5,62,-1
 207 333.928710938 l 5,63,-1
 199.928710938 341 l 5,60,-1
174.928710938 341 m 5,64,-1
 182 348.071289062 l 5,65,-1
 189.071289062 341 l 5,66,-1
 182 333.928710938 l 5,67,-1
 174.928710938 341 l 5,64,-1
149.928710938 341 m 5,68,-1
 157 348.071289062 l 5,69,-1
 164.071289062 341 l 5,70,-1
 157 333.928710938 l 5,71,-1
 149.928710938 341 l 5,68,-1
124.928710938 341 m 5,72,-1
 132 348.071289062 l 5,73,-1
 139.071289062 341 l 5,74,-1
 132 333.928710938 l 5,75,-1
 124.928710938 341 l 5,72,-1
99.9287109375 341 m 5,76,-1
 107 348.071289062 l 5,77,-1
 114.071289062 341 l 5,78,-1
 107 333.928710938 l 5,79,-1
 99.9287109375 341 l 5,76,-1
74.9287109375 341 m 5,80,-1
 82 348.071289062 l 5,81,-1
 89.0712890625 341 l 5,82,-1
 82 333.928710938 l 5,83,-1
 74.9287109375 341 l 5,80,-1
49.9287109375 341 m 5,84,-1
 57 348.071289062 l 5,85,-1
 64.0712890625 341 l 5,86,-1
 57 333.928710938 l 5,87,-1
 49.9287109375 341 l 5,84,-1
24.9287109375 341 m 5,88,-1
 32 348.071289062 l 5,89,-1
 39.0712890625 341 l 5,90,-1
 32 333.928710938 l 5,91,-1
 24.9287109375 341 l 5,88,-1
-0.0712890625 341 m 5,92,-1
 7 348.071289062 l 5,93,-1
 14.0712890625 341 l 5,94,-1
 7 333.928710938 l 5,95,-1
 -0.0712890625 341 l 5,92,-1
EndSplineSet
Validated: 1
EndChar

StartChar: ceo
Encoding: 57367 57367 85
Width: 2048
LayerCount: 3
Back
SplineSet
127.890625 488.243164062 m 4
 91.0283203125 424.296875 30.091796875 384.42578125 -48.1474609375 384.42578125 c 7
 -121.120117188 384.42578125 -189.580078125 416.774414062 -220.763671875 443.114257812 c 1028
EndSplineSet
Fore
Validated: 1
EndChar

StartChar: ceg
Encoding: 57403 57403 86
Width: 2048
LayerCount: 3
Back
SplineSet
-180.551757812 -743.272460938 m 7
 -285.60546875 -743.272460938 -301.403320312 -621.4765625 -301.403320312 -539.471679688 c 7
 -301.403320312 -492.26171875 -293.138671875 -440.348632812 -240.688476562 -325.818359375 c 4
 -161.754882812 -153.456054688 -36.8623046875 70.7158203125 70.330078125 237.7265625 c 1028
EndSplineSet
Fore
Validated: 1
EndChar

StartChar: ccnt
Encoding: 57351 57351 88
Width: 0
VWidth: 1540
LayerCount: 3
Back
SplineSet
403.232421875 644.720703125 m 29
 353.581054688 644.720703125 241.48828125 644.720703125 241.48828125 644.720703125 c 29
 191.836914062 644.720703125 107.579101562 644.720703125 107.579101562 644.720703125 c 1053
353.95703125 25.578125 m 7
 266.690429688 25.578125 241.112304688 99.3037109375 241.112304688 180.551757812 c 4
 241.112304688 181.826171875 241.216796875 742.469726562 241.163085938 1000.55859375 c 1029
-19.5595703125 25.578125 m 7
 68.458984375 25.578125 240.736328125 315.4375 240.736328125 488.243164062 c 1052
EndSplineSet
Fore
Validated: 1
EndChar

StartChar: ccot
Encoding: 57363 57363 89
Width: 0
VWidth: 1540
LayerCount: 3
Back
SplineSet
240.736328125 488.243164062 m 4
 240.736328125 421.288085938 142.936523438 384.42578125 64.6982421875 384.42578125 c 7
 -8.275390625 384.42578125 -76.734375 416.774414062 -107.91796875 443.114257812 c 1028
EndSplineSet
Fore
Validated: 1
EndChar

StartChar: ccet
Encoding: 57375 57375 90
Width: 2048
LayerCount: 3
Back
SplineSet
-113.59765625 25.578125 m 3
 72.220703125 25.578125 278.350585938 293.360351562 278.350585938 488.243164062 c 1024
EndSplineSet
Fore
Validated: 1
EndChar

StartChar: ccvt
Encoding: 57387 57387 91
Width: 0
VWidth: 1540
LayerCount: 3
Back
SplineSet
240.736328125 488.243164062 m 0
 203.873046875 424.296875 156.478515625 394.205078125 78.2392578125 394.205078125 c 3
 5.265625 394.205078125 -60.18359375 433.325195312 -92.533203125 487.490234375 c 1024
403.232421875 644.720703125 m 25
 353.581054688 644.720703125 241.48828125 644.720703125 241.48828125 644.720703125 c 25
 191.836914062 644.720703125 107.579101562 644.720703125 107.579101562 644.720703125 c 1049
353.95703125 25.578125 m 3
 266.690429688 25.578125 241.112304688 99.3037109375 241.112304688 180.551757812 c 0
 241.112304688 181.826171875 241.216796875 742.469726562 241.163085938 1000.55859375 c 1025
EndSplineSet
Fore
Validated: 1
EndChar

StartChar: ccgt
Encoding: 57399 57399 92
Width: 2048
LayerCount: 3
Back
SplineSet
449.123046875 644.720703125 m 29
 399.471679688 644.720703125 287.37890625 644.720703125 287.37890625 644.720703125 c 29
 237.7265625 644.720703125 153.46875 644.720703125 153.46875 644.720703125 c 1053
399.84765625 25.578125 m 7
 312.581054688 25.578125 287.002929688 99.3037109375 287.002929688 180.551757812 c 4
 287.002929688 181.826171875 287.106445312 742.469726562 287.052734375 1000.55859375 c 1029
-56.4228515625 487.490234375 m 25
 -56.4228515625 487.490234375 -56.4228515625 109.39453125 -56.4228515625 108.331054688 c 0
 -56.4248046875 -33.8701171875 -56.4228515625 -229.00390625 -56.4228515625 -489.37109375 c 0
 -56.4228515625 -628.170898438 -72.220703125 -743.272460938 -181.680664062 -743.272460938 c 1024
-56.4228515625 412.260742188 m 0
 -78.2392578125 440.84765625 -126.38671875 487.490234375 -187.322265625 487.490234375 c 0
 -299.866210938 487.490234375 -373.215820312 381.416015625 -373.215820312 255.782226562 c 0
 -373.215820312 128.643554688 -294.600585938 25.578125 -198.607421875 25.578125 c 0
 -120.368164062 25.578125 -56.4228515625 109.8125 -56.4228515625 217.415039062 c 1024
EndSplineSet
Fore
Validated: 1
EndChar

StartChar: ccst
Encoding: 57411 57411 93
Width: 0
VWidth: 1540
LayerCount: 3
Back
SplineSet
-19.5595703125 25.578125 m 7
 82.763671875 25.578125 240.736328125 435.052734375 240.736328125 607.858398438 c 1052
-319.48828125 80.7685546875 m 1
 -285.874023438 33.1015625 -250.515625 25.6865234375 -205.377929688 25.6865234375 c 1024
EndSplineSet
Fore
Validated: 1
EndChar

StartChar: ccpt
Encoding: 57423 57423 94
Width: 2048
LayerCount: 3
Back
SplineSet
-332.516601562 25.578125 m 7
 -247.409179688 25.578125 -174.37109375 31.478515625 -99.3037109375 77.4873046875 c 4
 87.2666015625 191.836914062 279.103515625 306.1796875 279.103515625 488.243164062 c 1028
EndSplineSet
Fore
Validated: 1
EndChar

StartChar: cczt
Encoding: 57435 57435 95
Width: 0
VWidth: 1540
LayerCount: 3
Back
SplineSet
-19.5595703125 25.578125 m 7
 82.763671875 25.578125 240.736328125 435.052734375 240.736328125 607.858398438 c 1052
-72.97265625 25.578125 m 3
 39.119140625 25.578125 240.736328125 315.4375 240.736328125 488.243164062 c 1048
EndSplineSet
Fore
Validated: 1
EndChar

StartChar: C
Encoding: 67 67 97
Width: 600
Flags: W
LayerCount: 3
Back
SplineSet
451.475585938 25.033203125 m 0
 219.073242188 25.033203125 28.744140625 298.559570312 28.744140625 637.14453125 c 0
 28.744140625 975.73046875 219.073242188 1254.2109375 451.475585938 1254.2109375 c 3
 537.802734375 1254.2109375 571.954101562 1177.41894531 571.954101562 1103.36914062 c 3
 571.954101562 950.633789062 293.057617188 808.338867188 47.349609375 808.338867188 c 3
 -29.513671875 808.338867188 -99.69140625 838.696289062 -143.328125 883.283203125 c 1024
EndSplineSet
Fore
SplineSet
585 1364 m 132,-1,1
 585 1368.99951172 585 1368.99951172 590 1369 c 132,-1,2
 594.999511719 1369 594.999511719 1369 595 1364 c 132,-1,3
 595 1359.00048828 595 1359.00048828 590 1359 c 132,-1,0
 585.000488281 1359 585.000488281 1359 585 1364 c 132,-1,1
570 1364 m 132,-1,5
 570 1368.99951172 570 1368.99951172 575 1369 c 132,-1,6
 579.999511719 1369 579.999511719 1369 580 1364 c 132,-1,7
 580 1359.00048828 580 1359.00048828 575 1359 c 132,-1,4
 570.000488281 1359 570.000488281 1359 570 1364 c 132,-1,5
555 1364 m 132,-1,9
 555 1368.99951172 555 1368.99951172 560 1369 c 132,-1,10
 564.999511719 1369 564.999511719 1369 565 1364 c 132,-1,11
 565 1359.00048828 565 1359.00048828 560 1359 c 132,-1,8
 555.000488281 1359 555.000488281 1359 555 1364 c 132,-1,9
540 1364 m 132,-1,13
 540 1368.99951172 540 1368.99951172 545 1369 c 132,-1,14
 549.999511719 1369 549.999511719 1369 550 1364 c 132,-1,15
 550 1359.00048828 550 1359.00048828 545 1359 c 132,-1,12
 540.000488281 1359 540.000488281 1359 540 1364 c 132,-1,13
525 1364 m 132,-1,17
 525 1368.99951172 525 1368.99951172 530 1369 c 132,-1,18
 534.999511719 1369 534.999511719 1369 535 1364 c 132,-1,19
 535 1359.00048828 535 1359.00048828 530 1359 c 132,-1,16
 525.000488281 1359 525.000488281 1359 525 1364 c 132,-1,17
510 1364 m 132,-1,21
 510 1368.99951172 510 1368.99951172 515 1369 c 132,-1,22
 519.999511719 1369 519.999511719 1369 520 1364 c 132,-1,23
 520 1359.00048828 520 1359.00048828 515 1359 c 132,-1,20
 510.000488281 1359 510.000488281 1359 510 1364 c 132,-1,21
495 1364 m 132,-1,25
 495 1368.99951172 495 1368.99951172 500 1369 c 132,-1,26
 504.999511719 1369 504.999511719 1369 505 1364 c 132,-1,27
 505 1359.00048828 505 1359.00048828 500 1359 c 132,-1,24
 495.000488281 1359 495.000488281 1359 495 1364 c 132,-1,25
480 1364 m 132,-1,29
 480 1368.99951172 480 1368.99951172 485 1369 c 132,-1,30
 489.999511719 1369 489.999511719 1369 490 1364 c 132,-1,31
 490 1359.00048828 490 1359.00048828 485 1359 c 132,-1,28
 480.000488281 1359 480.000488281 1359 480 1364 c 132,-1,29
465 1364 m 132,-1,33
 465 1368.99951172 465 1368.99951172 470 1369 c 132,-1,34
 474.999511719 1369 474.999511719 1369 475 1364 c 132,-1,35
 475 1359.00048828 475 1359.00048828 470 1359 c 132,-1,32
 465.000488281 1359 465.000488281 1359 465 1364 c 132,-1,33
450 1364 m 132,-1,37
 450 1368.99951172 450 1368.99951172 455 1369 c 132,-1,38
 459.999511719 1369 459.999511719 1369 460 1364 c 132,-1,39
 460 1359.00048828 460 1359.00048828 455 1359 c 132,-1,36
 450.000488281 1359 450.000488281 1359 450 1364 c 132,-1,37
435 1364 m 132,-1,41
 435 1368.99951172 435 1368.99951172 440 1369 c 132,-1,42
 444.999511719 1369 444.999511719 1369 445 1364 c 132,-1,43
 445 1359.00048828 445 1359.00048828 440 1359 c 132,-1,40
 435.000488281 1359 435.000488281 1359 435 1364 c 132,-1,41
420 1364 m 132,-1,45
 420 1368.99951172 420 1368.99951172 425 1369 c 132,-1,46
 429.999511719 1369 429.999511719 1369 430 1364 c 132,-1,47
 430 1359.00048828 430 1359.00048828 425 1359 c 132,-1,44
 420.000488281 1359 420.000488281 1359 420 1364 c 132,-1,45
405 1364 m 132,-1,49
 405 1368.99951172 405 1368.99951172 410 1369 c 132,-1,50
 414.999511719 1369 414.999511719 1369 415 1364 c 132,-1,51
 415 1359.00048828 415 1359.00048828 410 1359 c 132,-1,48
 405.000488281 1359 405.000488281 1359 405 1364 c 132,-1,49
390 1364 m 132,-1,53
 390 1368.99951172 390 1368.99951172 395 1369 c 132,-1,54
 399.999511719 1369 399.999511719 1369 400 1364 c 132,-1,55
 400 1359.00048828 400 1359.00048828 395 1359 c 132,-1,52
 390.000488281 1359 390.000488281 1359 390 1364 c 132,-1,53
375 1364 m 132,-1,57
 375 1368.99951172 375 1368.99951172 380 1369 c 132,-1,58
 384.999511719 1369 384.999511719 1369 385 1364 c 132,-1,59
 385 1359.00048828 385 1359.00048828 380 1359 c 132,-1,56
 375.000488281 1359 375.000488281 1359 375 1364 c 132,-1,57
360 1364 m 132,-1,61
 360 1368.99951172 360 1368.99951172 365 1369 c 132,-1,62
 369.999511719 1369 369.999511719 1369 370 1364 c 132,-1,63
 370 1359.00048828 370 1359.00048828 365 1359 c 132,-1,60
 360.000488281 1359 360.000488281 1359 360 1364 c 132,-1,61
345 1364 m 132,-1,65
 345 1368.99951172 345 1368.99951172 350 1369 c 132,-1,66
 354.999511719 1369 354.999511719 1369 355 1364 c 132,-1,67
 355 1359.00048828 355 1359.00048828 350 1359 c 132,-1,64
 345.000488281 1359 345.000488281 1359 345 1364 c 132,-1,65
330 1364 m 132,-1,69
 330 1368.99951172 330 1368.99951172 335 1369 c 132,-1,70
 339.999511719 1369 339.999511719 1369 340 1364 c 132,-1,71
 340 1359.00048828 340 1359.00048828 335 1359 c 132,-1,68
 330.000488281 1359 330.000488281 1359 330 1364 c 132,-1,69
315 1364 m 132,-1,73
 315 1368.99951172 315 1368.99951172 320 1369 c 132,-1,74
 324.999511719 1369 324.999511719 1369 325 1364 c 132,-1,75
 325 1359.00048828 325 1359.00048828 320 1359 c 132,-1,72
 315.000488281 1359 315.000488281 1359 315 1364 c 132,-1,73
300 1364 m 132,-1,77
 300 1368.99951172 300 1368.99951172 305 1369 c 132,-1,78
 309.999511719 1369 309.999511719 1369 310 1364 c 132,-1,79
 310 1359.00048828 310 1359.00048828 305 1359 c 132,-1,76
 300.000488281 1359 300.000488281 1359 300 1364 c 132,-1,77
285 1364 m 132,-1,81
 285 1368.99951172 285 1368.99951172 290 1369 c 132,-1,82
 294.999511719 1369 294.999511719 1369 295 1364 c 132,-1,83
 295 1359.00048828 295 1359.00048828 290 1359 c 132,-1,80
 285.000488281 1359 285.000488281 1359 285 1364 c 132,-1,81
270 1364 m 132,-1,85
 270 1368.99951172 270 1368.99951172 275 1369 c 132,-1,86
 279.999511719 1369 279.999511719 1369 280 1364 c 132,-1,87
 280 1359.00048828 280 1359.00048828 275 1359 c 132,-1,84
 270.000488281 1359 270.000488281 1359 270 1364 c 132,-1,85
255 1364 m 132,-1,89
 255 1368.99951172 255 1368.99951172 260 1369 c 132,-1,90
 264.999511719 1369 264.999511719 1369 265 1364 c 132,-1,91
 265 1359.00048828 265 1359.00048828 260 1359 c 132,-1,88
 255.000488281 1359 255.000488281 1359 255 1364 c 132,-1,89
240 1364 m 132,-1,93
 240 1368.99951172 240 1368.99951172 245 1369 c 132,-1,94
 249.999511719 1369 249.999511719 1369 250 1364 c 132,-1,95
 250 1359.00048828 250 1359.00048828 245 1359 c 132,-1,92
 240.000488281 1359 240.000488281 1359 240 1364 c 132,-1,93
225 1364 m 132,-1,97
 225 1368.99951172 225 1368.99951172 230 1369 c 132,-1,98
 234.999511719 1369 234.999511719 1369 235 1364 c 132,-1,99
 235 1359.00048828 235 1359.00048828 230 1359 c 132,-1,96
 225.000488281 1359 225.000488281 1359 225 1364 c 132,-1,97
210 1364 m 132,-1,101
 210 1368.99951172 210 1368.99951172 215 1369 c 132,-1,102
 219.999511719 1369 219.999511719 1369 220 1364 c 132,-1,103
 220 1359.00048828 220 1359.00048828 215 1359 c 132,-1,100
 210.000488281 1359 210.000488281 1359 210 1364 c 132,-1,101
195 1364 m 132,-1,105
 195 1368.99951172 195 1368.99951172 200 1369 c 132,-1,106
 204.999511719 1369 204.999511719 1369 205 1364 c 132,-1,107
 205 1359.00048828 205 1359.00048828 200 1359 c 132,-1,104
 195.000488281 1359 195.000488281 1359 195 1364 c 132,-1,105
180 1364 m 132,-1,109
 180 1368.99951172 180 1368.99951172 185 1369 c 132,-1,110
 189.999511719 1369 189.999511719 1369 190 1364 c 132,-1,111
 190 1359.00048828 190 1359.00048828 185 1359 c 132,-1,108
 180.000488281 1359 180.000488281 1359 180 1364 c 132,-1,109
165 1364 m 132,-1,113
 165 1368.99951172 165 1368.99951172 170 1369 c 132,-1,114
 174.999511719 1369 174.999511719 1369 175 1364 c 132,-1,115
 175 1359.00048828 175 1359.00048828 170 1359 c 132,-1,112
 165.000488281 1359 165.000488281 1359 165 1364 c 132,-1,113
150 1364 m 132,-1,117
 150 1368.99951172 150 1368.99951172 155 1369 c 132,-1,118
 159.999511719 1369 159.999511719 1369 160 1364 c 132,-1,119
 160 1359.00048828 160 1359.00048828 155 1359 c 132,-1,116
 150.000488281 1359 150.000488281 1359 150 1364 c 132,-1,117
135 1364 m 132,-1,121
 135 1368.99951172 135 1368.99951172 140 1369 c 132,-1,122
 144.999511719 1369 144.999511719 1369 145 1364 c 132,-1,123
 145 1359.00048828 145 1359.00048828 140 1359 c 132,-1,120
 135.000488281 1359 135.000488281 1359 135 1364 c 132,-1,121
120 1364 m 132,-1,125
 120 1368.99951172 120 1368.99951172 125 1369 c 132,-1,126
 129.999511719 1369 129.999511719 1369 130 1364 c 132,-1,127
 130 1359.00048828 130 1359.00048828 125 1359 c 132,-1,124
 120.000488281 1359 120.000488281 1359 120 1364 c 132,-1,125
105 1364 m 132,-1,129
 105 1368.99951172 105 1368.99951172 110 1369 c 132,-1,130
 114.999511719 1369 114.999511719 1369 115 1364 c 132,-1,131
 115 1359.00048828 115 1359.00048828 110 1359 c 132,-1,128
 105.000488281 1359 105.000488281 1359 105 1364 c 132,-1,129
90 1364 m 132,-1,133
 90 1368.99951172 90 1368.99951172 95 1369 c 132,-1,134
 99.9995117188 1369 99.9995117188 1369 100 1364 c 132,-1,135
 100 1359.00048828 100 1359.00048828 95 1359 c 132,-1,132
 90.0004882812 1359 90.0004882812 1359 90 1364 c 132,-1,133
75 1364 m 132,-1,137
 75 1368.99951172 75 1368.99951172 80 1369 c 132,-1,138
 84.9995117188 1369 84.9995117188 1369 85 1364 c 132,-1,139
 85 1359.00048828 85 1359.00048828 80 1359 c 132,-1,136
 75.0004882812 1359 75.0004882812 1359 75 1364 c 132,-1,137
60 1364 m 132,-1,141
 60 1368.99951172 60 1368.99951172 65 1369 c 132,-1,142
 69.9995117188 1369 69.9995117188 1369 70 1364 c 132,-1,143
 70 1359.00048828 70 1359.00048828 65 1359 c 132,-1,140
 60.0004882812 1359 60.0004882812 1359 60 1364 c 132,-1,141
45 1364 m 132,-1,145
 45 1368.99951172 45 1368.99951172 50 1369 c 132,-1,146
 54.9995117188 1369 54.9995117188 1369 55 1364 c 132,-1,147
 55 1359.00048828 55 1359.00048828 50 1359 c 132,-1,144
 45.0004882812 1359 45.0004882812 1359 45 1364 c 132,-1,145
30 1364 m 132,-1,149
 30 1368.99951172 30 1368.99951172 35 1369 c 132,-1,150
 39.9995117188 1369 39.9995117188 1369 40 1364 c 132,-1,151
 40 1359.00048828 40 1359.00048828 35 1359 c 132,-1,148
 30.0004882812 1359 30.0004882812 1359 30 1364 c 132,-1,149
15 1364 m 132,-1,153
 15 1368.99951172 15 1368.99951172 20 1369 c 132,-1,154
 24.9995117188 1369 24.9995117188 1369 25 1364 c 132,-1,155
 25 1359.00048828 25 1359.00048828 20 1359 c 132,-1,152
 15.0004882812 1359 15.0004882812 1359 15 1364 c 132,-1,153
0 1364 m 132,-1,157
 0 1368.99951172 0 1368.99951172 5 1369 c 132,-1,158
 9.99951171875 1369 9.99951171875 1369 10 1364 c 132,-1,159
 10 1359.00048828 10 1359.00048828 5 1359 c 132,-1,156
 0.00048828125 1359 0.00048828125 1359 0 1364 c 132,-1,157
550 687 m 5,160,-1
 580 687 l 5,161,-1
 580 677 l 5,162,-1
 550 677 l 5,163,-1
 550 687 l 5,160,-1
500 687 m 5,164,-1
 530 687 l 5,165,-1
 530 677 l 5,166,-1
 500 677 l 5,167,-1
 500 687 l 5,164,-1
450 687 m 5,168,-1
 480 687 l 5,169,-1
 480 677 l 5,170,-1
 450 677 l 5,171,-1
 450 687 l 5,168,-1
400 687 m 5,172,-1
 430 687 l 5,173,-1
 430 677 l 5,174,-1
 400 677 l 5,175,-1
 400 687 l 5,172,-1
350 687 m 5,176,-1
 380 687 l 5,177,-1
 380 677 l 5,178,-1
 350 677 l 5,179,-1
 350 687 l 5,176,-1
300 687 m 5,180,-1
 330 687 l 5,181,-1
 330 677 l 5,182,-1
 300 677 l 5,183,-1
 300 687 l 5,180,-1
250 687 m 5,184,-1
 280 687 l 5,185,-1
 280 677 l 5,186,-1
 250 677 l 5,187,-1
 250 687 l 5,184,-1
200 687 m 5,188,-1
 230 687 l 5,189,-1
 230 677 l 5,190,-1
 200 677 l 5,191,-1
 200 687 l 5,188,-1
150 687 m 5,192,-1
 180 687 l 5,193,-1
 180 677 l 5,194,-1
 150 677 l 5,195,-1
 150 687 l 5,192,-1
100 687 m 5,196,-1
 130 687 l 5,197,-1
 130 677 l 5,198,-1
 100 677 l 5,199,-1
 100 687 l 5,196,-1
50 687 m 5,200,-1
 80 687 l 5,201,-1
 80 677 l 5,202,-1
 50 677 l 5,203,-1
 50 687 l 5,200,-1
0 687 m 5,204,-1
 30 687 l 5,205,-1
 30 677 l 5,206,-1
 0 677 l 5,207,-1
 0 687 l 5,204,-1
0 8 m 5,208,-1
 602 8 l 5,209,-1
 602 -8 l 5,210,-1
 0 -8 l 5,211,-1
 0 8 l 5,208,-1
EndSplineSet
Validated: 1
EndChar

StartChar: G
Encoding: 71 71 98
Width: 600
Flags: W
LayerCount: 3
Back
SplineSet
525 690 m 5
 571 690 l 5
 571 674 l 5
 525 674 l 5
 525 690 l 5
450 690 m 5
 496 690 l 5
 496 674 l 5
 450 674 l 5
 450 690 l 5
375 690 m 5
 421 690 l 5
 421 674 l 5
 375 674 l 5
 375 690 l 5
300 690 m 5
 346 690 l 5
 346 674 l 5
 300 674 l 5
 300 690 l 5
225 690 m 5
 271 690 l 5
 271 674 l 5
 225 674 l 5
 225 690 l 5
150 690 m 5
 196 690 l 5
 196 674 l 5
 150 674 l 5
 150 690 l 5
75 690 m 5
 121 690 l 5
 121 674 l 5
 75 674 l 5
 75 690 l 5
0 -674 m 5
 601 -674 l 5
 601 -690 l 5
 0 -690 l 5
 0 -674 l 5
0 690 m 5
 46 690 l 5
 46 674 l 5
 0 674 l 5
 0 690 l 5
0 1372 m 5
 601 1372 l 5
 601 1356 l 5
 0 1356 l 5
 0 1372 l 5
0 14 m 5
 601 14 l 5
 601 -14 l 5
 0 -14 l 5
 0 14 l 5
EndSplineSet
Fore
SplineSet
585 -682 m 132,-1,1
 585 -677.000488281 585 -677.000488281 590 -677 c 132,-1,2
 594.999511719 -677 594.999511719 -677 595 -682 c 132,-1,3
 595 -686.999511719 595 -686.999511719 590 -687 c 132,-1,0
 585.000488281 -687 585.000488281 -687 585 -682 c 132,-1,1
570 -682 m 132,-1,5
 570 -677.000488281 570 -677.000488281 575 -677 c 132,-1,6
 579.999511719 -677 579.999511719 -677 580 -682 c 132,-1,7
 580 -686.999511719 580 -686.999511719 575 -687 c 132,-1,4
 570.000488281 -687 570.000488281 -687 570 -682 c 132,-1,5
555 -682 m 132,-1,9
 555 -677.000488281 555 -677.000488281 560 -677 c 132,-1,10
 564.999511719 -677 564.999511719 -677 565 -682 c 132,-1,11
 565 -686.999511719 565 -686.999511719 560 -687 c 132,-1,8
 555.000488281 -687 555.000488281 -687 555 -682 c 132,-1,9
540 -682 m 132,-1,13
 540 -677.000488281 540 -677.000488281 545 -677 c 132,-1,14
 549.999511719 -677 549.999511719 -677 550 -682 c 132,-1,15
 550 -686.999511719 550 -686.999511719 545 -687 c 132,-1,12
 540.000488281 -687 540.000488281 -687 540 -682 c 132,-1,13
525 -682 m 132,-1,17
 525 -677.000488281 525 -677.000488281 530 -677 c 132,-1,18
 534.999511719 -677 534.999511719 -677 535 -682 c 132,-1,19
 535 -686.999511719 535 -686.999511719 530 -687 c 132,-1,16
 525.000488281 -687 525.000488281 -687 525 -682 c 132,-1,17
510 -682 m 132,-1,21
 510 -677.000488281 510 -677.000488281 515 -677 c 132,-1,22
 519.999511719 -677 519.999511719 -677 520 -682 c 132,-1,23
 520 -686.999511719 520 -686.999511719 515 -687 c 132,-1,20
 510.000488281 -687 510.000488281 -687 510 -682 c 132,-1,21
495 -682 m 132,-1,25
 495 -677.000488281 495 -677.000488281 500 -677 c 132,-1,26
 504.999511719 -677 504.999511719 -677 505 -682 c 132,-1,27
 505 -686.999511719 505 -686.999511719 500 -687 c 132,-1,24
 495.000488281 -687 495.000488281 -687 495 -682 c 132,-1,25
480 -682 m 132,-1,29
 480 -677.000488281 480 -677.000488281 485 -677 c 132,-1,30
 489.999511719 -677 489.999511719 -677 490 -682 c 132,-1,31
 490 -686.999511719 490 -686.999511719 485 -687 c 132,-1,28
 480.000488281 -687 480.000488281 -687 480 -682 c 132,-1,29
465 -682 m 132,-1,33
 465 -677.000488281 465 -677.000488281 470 -677 c 132,-1,34
 474.999511719 -677 474.999511719 -677 475 -682 c 132,-1,35
 475 -686.999511719 475 -686.999511719 470 -687 c 132,-1,32
 465.000488281 -687 465.000488281 -687 465 -682 c 132,-1,33
450 -682 m 132,-1,37
 450 -677.000488281 450 -677.000488281 455 -677 c 132,-1,38
 459.999511719 -677 459.999511719 -677 460 -682 c 132,-1,39
 460 -686.999511719 460 -686.999511719 455 -687 c 132,-1,36
 450.000488281 -687 450.000488281 -687 450 -682 c 132,-1,37
435 -682 m 132,-1,41
 435 -677.000488281 435 -677.000488281 440 -677 c 132,-1,42
 444.999511719 -677 444.999511719 -677 445 -682 c 132,-1,43
 445 -686.999511719 445 -686.999511719 440 -687 c 132,-1,40
 435.000488281 -687 435.000488281 -687 435 -682 c 132,-1,41
420 -682 m 132,-1,45
 420 -677.000488281 420 -677.000488281 425 -677 c 132,-1,46
 429.999511719 -677 429.999511719 -677 430 -682 c 132,-1,47
 430 -686.999511719 430 -686.999511719 425 -687 c 132,-1,44
 420.000488281 -687 420.000488281 -687 420 -682 c 132,-1,45
405 -682 m 132,-1,49
 405 -677.000488281 405 -677.000488281 410 -677 c 132,-1,50
 414.999511719 -677 414.999511719 -677 415 -682 c 132,-1,51
 415 -686.999511719 415 -686.999511719 410 -687 c 132,-1,48
 405.000488281 -687 405.000488281 -687 405 -682 c 132,-1,49
390 -682 m 132,-1,53
 390 -677.000488281 390 -677.000488281 395 -677 c 132,-1,54
 399.999511719 -677 399.999511719 -677 400 -682 c 132,-1,55
 400 -686.999511719 400 -686.999511719 395 -687 c 132,-1,52
 390.000488281 -687 390.000488281 -687 390 -682 c 132,-1,53
375 -682 m 132,-1,57
 375 -677.000488281 375 -677.000488281 380 -677 c 132,-1,58
 384.999511719 -677 384.999511719 -677 385 -682 c 132,-1,59
 385 -686.999511719 385 -686.999511719 380 -687 c 132,-1,56
 375.000488281 -687 375.000488281 -687 375 -682 c 132,-1,57
360 -682 m 132,-1,61
 360 -677.000488281 360 -677.000488281 365 -677 c 132,-1,62
 369.999511719 -677 369.999511719 -677 370 -682 c 132,-1,63
 370 -686.999511719 370 -686.999511719 365 -687 c 132,-1,60
 360.000488281 -687 360.000488281 -687 360 -682 c 132,-1,61
345 -682 m 132,-1,65
 345 -677.000488281 345 -677.000488281 350 -677 c 132,-1,66
 354.999511719 -677 354.999511719 -677 355 -682 c 132,-1,67
 355 -686.999511719 355 -686.999511719 350 -687 c 132,-1,64
 345.000488281 -687 345.000488281 -687 345 -682 c 132,-1,65
330 -682 m 132,-1,69
 330 -677.000488281 330 -677.000488281 335 -677 c 132,-1,70
 339.999511719 -677 339.999511719 -677 340 -682 c 132,-1,71
 340 -686.999511719 340 -686.999511719 335 -687 c 132,-1,68
 330.000488281 -687 330.000488281 -687 330 -682 c 132,-1,69
315 -682 m 132,-1,73
 315 -677.000488281 315 -677.000488281 320 -677 c 132,-1,74
 324.999511719 -677 324.999511719 -677 325 -682 c 132,-1,75
 325 -686.999511719 325 -686.999511719 320 -687 c 132,-1,72
 315.000488281 -687 315.000488281 -687 315 -682 c 132,-1,73
300 -682 m 132,-1,77
 300 -677.000488281 300 -677.000488281 305 -677 c 132,-1,78
 309.999511719 -677 309.999511719 -677 310 -682 c 132,-1,79
 310 -686.999511719 310 -686.999511719 305 -687 c 132,-1,76
 300.000488281 -687 300.000488281 -687 300 -682 c 132,-1,77
285 -682 m 132,-1,81
 285 -677.000488281 285 -677.000488281 290 -677 c 132,-1,82
 294.999511719 -677 294.999511719 -677 295 -682 c 132,-1,83
 295 -686.999511719 295 -686.999511719 290 -687 c 132,-1,80
 285.000488281 -687 285.000488281 -687 285 -682 c 132,-1,81
270 -682 m 132,-1,85
 270 -677.000488281 270 -677.000488281 275 -677 c 132,-1,86
 279.999511719 -677 279.999511719 -677 280 -682 c 132,-1,87
 280 -686.999511719 280 -686.999511719 275 -687 c 132,-1,84
 270.000488281 -687 270.000488281 -687 270 -682 c 132,-1,85
255 -682 m 132,-1,89
 255 -677.000488281 255 -677.000488281 260 -677 c 132,-1,90
 264.999511719 -677 264.999511719 -677 265 -682 c 132,-1,91
 265 -686.999511719 265 -686.999511719 260 -687 c 132,-1,88
 255.000488281 -687 255.000488281 -687 255 -682 c 132,-1,89
240 -682 m 132,-1,93
 240 -677.000488281 240 -677.000488281 245 -677 c 132,-1,94
 249.999511719 -677 249.999511719 -677 250 -682 c 132,-1,95
 250 -686.999511719 250 -686.999511719 245 -687 c 132,-1,92
 240.000488281 -687 240.000488281 -687 240 -682 c 132,-1,93
225 -682 m 132,-1,97
 225 -677.000488281 225 -677.000488281 230 -677 c 132,-1,98
 234.999511719 -677 234.999511719 -677 235 -682 c 132,-1,99
 235 -686.999511719 235 -686.999511719 230 -687 c 132,-1,96
 225.000488281 -687 225.000488281 -687 225 -682 c 132,-1,97
210 -682 m 132,-1,101
 210 -677.000488281 210 -677.000488281 215 -677 c 132,-1,102
 219.999511719 -677 219.999511719 -677 220 -682 c 132,-1,103
 220 -686.999511719 220 -686.999511719 215 -687 c 132,-1,100
 210.000488281 -687 210.000488281 -687 210 -682 c 132,-1,101
195 -682 m 132,-1,105
 195 -677.000488281 195 -677.000488281 200 -677 c 132,-1,106
 204.999511719 -677 204.999511719 -677 205 -682 c 132,-1,107
 205 -686.999511719 205 -686.999511719 200 -687 c 132,-1,104
 195.000488281 -687 195.000488281 -687 195 -682 c 132,-1,105
180 -682 m 132,-1,109
 180 -677.000488281 180 -677.000488281 185 -677 c 132,-1,110
 189.999511719 -677 189.999511719 -677 190 -682 c 132,-1,111
 190 -686.999511719 190 -686.999511719 185 -687 c 132,-1,108
 180.000488281 -687 180.000488281 -687 180 -682 c 132,-1,109
165 -682 m 132,-1,113
 165 -677.000488281 165 -677.000488281 170 -677 c 132,-1,114
 174.999511719 -677 174.999511719 -677 175 -682 c 132,-1,115
 175 -686.999511719 175 -686.999511719 170 -687 c 132,-1,112
 165.000488281 -687 165.000488281 -687 165 -682 c 132,-1,113
150 -682 m 132,-1,117
 150 -677.000488281 150 -677.000488281 155 -677 c 132,-1,118
 159.999511719 -677 159.999511719 -677 160 -682 c 132,-1,119
 160 -686.999511719 160 -686.999511719 155 -687 c 132,-1,116
 150.000488281 -687 150.000488281 -687 150 -682 c 132,-1,117
135 -682 m 132,-1,121
 135 -677.000488281 135 -677.000488281 140 -677 c 132,-1,122
 144.999511719 -677 144.999511719 -677 145 -682 c 132,-1,123
 145 -686.999511719 145 -686.999511719 140 -687 c 132,-1,120
 135.000488281 -687 135.000488281 -687 135 -682 c 132,-1,121
120 -682 m 132,-1,125
 120 -677.000488281 120 -677.000488281 125 -677 c 132,-1,126
 129.999511719 -677 129.999511719 -677 130 -682 c 132,-1,127
 130 -686.999511719 130 -686.999511719 125 -687 c 132,-1,124
 120.000488281 -687 120.000488281 -687 120 -682 c 132,-1,125
105 -682 m 132,-1,129
 105 -677.000488281 105 -677.000488281 110 -677 c 132,-1,130
 114.999511719 -677 114.999511719 -677 115 -682 c 132,-1,131
 115 -686.999511719 115 -686.999511719 110 -687 c 132,-1,128
 105.000488281 -687 105.000488281 -687 105 -682 c 132,-1,129
90 -682 m 132,-1,133
 90 -677.000488281 90 -677.000488281 95 -677 c 132,-1,134
 99.9995117188 -677 99.9995117188 -677 100 -682 c 132,-1,135
 100 -686.999511719 100 -686.999511719 95 -687 c 132,-1,132
 90.0004882812 -687 90.0004882812 -687 90 -682 c 132,-1,133
75 -682 m 132,-1,137
 75 -677.000488281 75 -677.000488281 80 -677 c 132,-1,138
 84.9995117188 -677 84.9995117188 -677 85 -682 c 132,-1,139
 85 -686.999511719 85 -686.999511719 80 -687 c 132,-1,136
 75.0004882812 -687 75.0004882812 -687 75 -682 c 132,-1,137
60 -682 m 132,-1,141
 60 -677.000488281 60 -677.000488281 65 -677 c 132,-1,142
 69.9995117188 -677 69.9995117188 -677 70 -682 c 132,-1,143
 70 -686.999511719 70 -686.999511719 65 -687 c 132,-1,140
 60.0004882812 -687 60.0004882812 -687 60 -682 c 132,-1,141
45 -682 m 132,-1,145
 45 -677.000488281 45 -677.000488281 50 -677 c 132,-1,146
 54.9995117188 -677 54.9995117188 -677 55 -682 c 132,-1,147
 55 -686.999511719 55 -686.999511719 50 -687 c 132,-1,144
 45.0004882812 -687 45.0004882812 -687 45 -682 c 132,-1,145
30 -682 m 132,-1,149
 30 -677.000488281 30 -677.000488281 35 -677 c 132,-1,150
 39.9995117188 -677 39.9995117188 -677 40 -682 c 132,-1,151
 40 -686.999511719 40 -686.999511719 35 -687 c 132,-1,148
 30.0004882812 -687 30.0004882812 -687 30 -682 c 132,-1,149
15 -682 m 132,-1,153
 15 -677.000488281 15 -677.000488281 20 -677 c 132,-1,154
 24.9995117188 -677 24.9995117188 -677 25 -682 c 132,-1,155
 25 -686.999511719 25 -686.999511719 20 -687 c 132,-1,152
 15.0004882812 -687 15.0004882812 -687 15 -682 c 132,-1,153
0 -682 m 132,-1,157
 0 -677.000488281 0 -677.000488281 5 -677 c 132,-1,158
 9.99951171875 -677 9.99951171875 -677 10 -682 c 132,-1,159
 10 -686.999511719 10 -686.999511719 5 -687 c 132,-1,156
 0.00048828125 -687 0.00048828125 -687 0 -682 c 132,-1,157
EndSplineSet
Validated: 1
EndChar

StartChar: N
Encoding: 78 78 99
Width: 975
VWidth: 2431
Flags: W
AnchorPoint: "topright" 776.253 1255.84 basechar 0
AnchorPoint: "topleft" 455.049 1255.84 basechar 0
AnchorPoint: "topmid" 615.65 1255.84 basechar 0
LayerCount: 3
Back
SplineSet
956.826171875 27.080078125 m 0
 901.8046875 27.080078125 885.677734375 73.5634765625 886.203125 124.591796875 c 8
 887.23046875 531.76171875 887 1256.09375 887 1256.09375 c 1024
886.275390625 318.315429688 m 0
 886.275390625 216.810546875 732.59375 27.080078125 496.5625 27.080078125 c 3
 332.428710938 27.080078125 228.341796875 149.180664062 228.341796875 301.305664062 c 0
 228.341796875 301.305664062 228.341796875 1254.72753906 228.341796875 1256.73046875 c 1024
EndSplineSet
Fore
Validated: 1
EndChar

StartChar: A
Encoding: 65 65 100
Width: 600
Flags: W
LayerCount: 3
Fore
SplineSet
550 687 m 5,0,-1
 580 687 l 5,1,-1
 580 677 l 5,2,-1
 550 677 l 5,3,-1
 550 687 l 5,0,-1
500 687 m 5,4,-1
 530 687 l 5,5,-1
 530 677 l 5,6,-1
 500 677 l 5,7,-1
 500 687 l 5,4,-1
450 687 m 5,8,-1
 480 687 l 5,9,-1
 480 677 l 5,10,-1
 450 677 l 5,11,-1
 450 687 l 5,8,-1
400 687 m 5,12,-1
 430 687 l 5,13,-1
 430 677 l 5,14,-1
 400 677 l 5,15,-1
 400 687 l 5,12,-1
350 687 m 5,16,-1
 380 687 l 5,17,-1
 380 677 l 5,18,-1
 350 677 l 5,19,-1
 350 687 l 5,16,-1
300 687 m 5,20,-1
 330 687 l 5,21,-1
 330 677 l 5,22,-1
 300 677 l 5,23,-1
 300 687 l 5,20,-1
250 687 m 5,24,-1
 280 687 l 5,25,-1
 280 677 l 5,26,-1
 250 677 l 5,27,-1
 250 687 l 5,24,-1
200 687 m 5,28,-1
 230 687 l 5,29,-1
 230 677 l 5,30,-1
 200 677 l 5,31,-1
 200 687 l 5,28,-1
150 687 m 5,32,-1
 180 687 l 5,33,-1
 180 677 l 5,34,-1
 150 677 l 5,35,-1
 150 687 l 5,32,-1
100 687 m 5,36,-1
 130 687 l 5,37,-1
 130 677 l 5,38,-1
 100 677 l 5,39,-1
 100 687 l 5,36,-1
50 687 m 5,40,-1
 80 687 l 5,41,-1
 80 677 l 5,42,-1
 50 677 l 5,43,-1
 50 687 l 5,40,-1
0 687 m 5,44,-1
 30 687 l 5,45,-1
 30 677 l 5,46,-1
 0 677 l 5,47,-1
 0 687 l 5,44,-1
0 1369 m 5,48,-1
 602 1369 l 5,49,-1
 602 1359 l 5,50,-1
 0 1359 l 5,51,-1
 0 1369 l 5,48,-1
0 8 m 5,52,-1
 602 8 l 5,53,-1
 602 -8 l 5,54,-1
 0 -8 l 5,55,-1
 0 8 l 5,52,-1
EndSplineSet
Validated: 1
EndChar

StartChar: M
Encoding: 77 77 101
Width: 1371
VWidth: 2431
Flags: W
AnchorPoint: "topmid" 1192.76 1204.34 basechar 0
AnchorPoint: "topleft" 1083.55 1204.34 basechar 0
AnchorPoint: "topright" 1301.97 1204.34 basechar 0
LayerCount: 3
Back
SplineSet
1537.21972656 1256.32617188 m 0
 1518.24707031 1223.12402344 1494.53027344 1207.04882812 1460.37890625 1189.19238281 c 0
 1430.44628906 1173.54199219 1401.66113281 1171 1375 1171 c 3
 1348.33984375 1171 1318.60644531 1173.54199219 1288.67382812 1189.19238281 c 0
 1254.52148438 1207.04882812 1232.703125 1223.12402344 1213.73046875 1256.32617188 c 0
 1251.22070312 1189.27929688 1291 1019.09082031 1291 813 c 3
 1291 574.888671875 1248.41992188 344.708984375 1191.57226562 230.68359375 c 0
 1114.0078125 75.1044921875 1007.55273438 24.671875 933.9375 24.671875 c 3
 804.38671875 24.671875 755.28125 121.9609375 755.28125 303.1484375 c 8
 754.665039062 674.267578125 755.736328125 922.56640625 755.736328125 1254.40429688 c 1024
755.392578125 373.989257812 m 0
 755.392578125 272.484375 639.978515625 24.75390625 443.623046875 24.75390625 c 3
 312.314453125 24.75390625 229.045898438 146.854492188 229.045898438 298.979492188 c 0
 229.045898438 298.979492188 229.045898438 1156.40136719 229.045898438 1158.40429688 c 0
 229.208007812 1204.4609375 213.081054688 1256.20410156 158.059570312 1256.20410156 c 3
 118.215820312 1256.20410156 98.6357421875 1218.15625 84.0654296875 1189.69628906 c 0
 25.8583984375 1071.11523438 l 1025
EndSplineSet
Fore
Validated: 1
EndChar

StartChar: E
Encoding: 69 69 102
Width: 600
Flags: W
LayerCount: 3
Back
SplineSet
311.512695312 24.7236328125 m 0
 153.736328125 24.7236328125 25.869140625 149.541015625 25.869140625 304.326171875 c 3
 25.869140625 414.932617188 93.677734375 514.560546875 188.153320312 557.794921875 c 0
 235.646484375 579.528320312 332.702148438 574.756835938 332.702148438 574.756835938 c 2
 332.702148438 574.756835938 248.303710938 574.176757812 212.254882812 591.508789062 c 0
 142.427734375 625.080078125 92.626953125 700.938476562 92.626953125 783.754882812 c 3
 92.626953125 903.3671875 191.438476562 1000.44238281 314.57421875 1000.91796875 c 0
 375.94921875 1000.91796875 431.46875 975.625 471.474609375 936.626953125 c 1025
EndSplineSet
Fore
SplineSet
0 1369 m 1,0,-1
 602 1369 l 1,1,-1
 602 1359 l 1,2,-1
 0 1359 l 1,3,-1
 0 1369 l 1,0,-1
0 8 m 1,4,-1
 602 8 l 1,5,-1
 602 -8 l 1,6,-1
 0 -8 l 1,7,-1
 0 8 l 1,4,-1
EndSplineSet
Validated: 1
EndChar

